SplineFontDB: 3.0
FontName: Jost-Thin
FullName: Jost* 200 Thin
FamilyName: Jost* Thin
Weight: Thin
Copyright: This typeface is licensed under the SIL open font license.
UComments: "2018-6-8: Created with FontForge (http://fontforge.org)"
Version: 003.300
ItalicAngle: 0
UnderlinePosition: -100
UnderlineWidth: 50
Ascent: 800
Descent: 200
InvalidEm: 0
LayerCount: 2
Layer: 0 0 "Back" 1
Layer: 1 0 "Fore" 0
XUID: [1021 69 1495626776 15919582]
FSType: 0
OS2Version: 0
OS2_WeightWidthSlopeOnly: 0
OS2_UseTypoMetrics: 0
CreationTime: 1528481165
ModificationTime: 1577666567
PfmFamily: 17
TTFWeight: 200
TTFWidth: 5
LineGap: 100
VLineGap: 0
OS2TypoAscent: 825
OS2TypoAOffset: 0
OS2TypoDescent: -225
OS2TypoDOffset: 0
OS2TypoLinegap: 100
OS2WinAscent: 900
OS2WinAOffset: 0
OS2WinDescent: 300
OS2WinDOffset: 0
HheadAscent: 1030
HheadAOffset: 0
HheadDescent: -350
HheadDOffset: 0
OS2CapHeight: 700
OS2XHeight: 460
OS2Vendor: 'PfEd'
Lookup: 1 0 0 "alt a" { "alt a"  } ['ss01' ('DFLT' <'dflt' > 'latn' <'dflt' > ) ]
Lookup: 1 0 0 "Tabular Numbers lookup" { "Tabular Numbers lookup"  } ['tnum' ('DFLT' <'dflt' > 'grek' <'dflt' > 'latn' <'dflt' > ) ]
Lookup: 258 0 0 "Lets get our kern on" { "kernin like nobodys business" [150,0,4] } ['kern' ('DFLT' <'dflt' > 'latn' <'dflt' > ) ]
MarkAttachClasses: 1
DEI: 91125
KernClass2: 16 14 "kernin like nobodys business"
 43 slash seven V W Wcircumflex uni040E uni0423
 175 quotedbl quotesingle asterisk grave dieresis ordfeminine macron degree acute ordmasculine circumflex breve dotaccent ring tilde quoteleft quoteright quotedblleft quotedblright
 25 nine question F P uni0420
 131 A L backslash Agrave Aacute Acircumflex Atilde Adieresis Aring Amacron Abreve Aogonek Lacute uni013B Lslash uni0410 uni0414 uni041C
 58 three eight B C germandbls uni0411 uni0412 uni0417 uni0421
 29 K X Z uni0416 uni041A uni0425

StartChar: H
Encoding: 72 72 0
Width: 627
VWidth: 0
Flags: HMW
LayerCount: 2
Fore
SplineSet
168 366 m 1
 178 397 l 1
 618 397 l 1
 608 366 l 1
 168 366 l 1
699 699 m 1
 733 700 l 1
 491 0 l 1
 460 0 l 1
 699 699 l 1
266 699 m 1
 300 700 l 1
 58 0 l 1
 27 0 l 1
 266 699 l 1
EndSplineSet
EndChar

StartChar: O
Encoding: 79 79 1
Width: 732
VWidth: 0
Flags: HMW
LayerCount: 2
Fore
SplineSet
143 350 m 0
 93 204 137 27 318 25 c 0
 503 23 663 185 720 350 c 0
 770 496 727 673 546 675 c 0
 361 677 200 515 143 350 c 0
108 350 m 0
 169 534 348 709 551 708 c 0
 749 707 809 514 755 350 c 0
 694 166 515 -9 312 -8 c 0
 114 -7 54 186 108 350 c 0
EndSplineSet
EndChar

StartChar: I
Encoding: 73 73 2
Width: 187
VWidth: 0
Flags: HMW
LayerCount: 2
Fore
SplineSet
264 700 m 1
 296 700 l 1
 54 0 l 1
 24 0 l 1
 264 700 l 1
EndSplineSet
EndChar

StartChar: C
Encoding: 67 67 3
Width: 644
VWidth: 0
Flags: HMW
LayerCount: 2
Fore
SplineSet
144 350 m 0
 94 206 134 29 312 26 c 0
 402 24 485 65 558 114 c 1
 543 70 l 1
 471 24 392 -9 306 -8 c 0
 108 -6 54 188 108 350 c 0
 169 534 344 706 546 708 c 0
 622 709 682 684 734 630 c 1
 719 586 l 1
 675 647 614 674 539 674 c 0
 355 672 201 514 144 350 c 0
EndSplineSet
EndChar

StartChar: E
Encoding: 69 69 4
Width: 490
VWidth: 0
Flags: HMW
LayerCount: 2
Fore
SplineSet
42 0 m 1
 52 31 l 1
 376 31 l 1
 366 0 l 1
 42 0 l 1
271 669 m 1
 281 700 l 1
 604 700 l 1
 594 669 l 1
 271 669 l 1
168 371 m 1
 180 402 l 1
 484 402 l 1
 474 371 l 1
 168 371 l 1
266 700 m 1
 300 700 l 1
 58 0 l 1
 27 0 l 1
 266 700 l 1
EndSplineSet
EndChar

StartChar: F
Encoding: 70 70 6
Width: 437
VWidth: 0
Flags: HMW
LayerCount: 2
Fore
SplineSet
271 668 m 1
 282 700 l 1
 567 700 l 1
 556 668 l 1
 271 668 l 1
166 364 m 1
 178 394 l 1
 453 394 l 1
 442 363 l 1
 166 364 l 1
266 700 m 1
 300 700 l 1
 58 0 l 1
 27 0 l 1
 266 700 l 1
EndSplineSet
EndChar

StartChar: G
Encoding: 71 71 7
Width: 722
VWidth: 0
Flags: HMW
LayerCount: 2
Fore
SplineSet
443 314 m 1
 454 344 l 1
 737 344 l 1
 668 170 517 -8 314 -8 c 0
 116 -8 54 186 108 350 c 0
 170 535 350 708 554 708 c 0
 658 708 732 652 770 557 c 1
 741 537 l 1
 711 625 642 675 548 675 c 0
 362 675 201 517 143 350 c 0
 93 204 139 26 320 26 c 0
 494 26 622 171 692 313 c 1
 443 314 l 1
EndSplineSet
EndChar

StartChar: T
Encoding: 84 84 8
Width: 414
VWidth: 0
Flags: HMW
LayerCount: 2
Fore
SplineSet
189 668 m 1
 200 700 l 1
 585 700 l 1
 574 668 l 1
 398 668 l 1
 168 0 l 1
 136 0 l 1
 365 668 l 1
 189 668 l 1
EndSplineSet
EndChar

StartChar: L
Encoding: 76 76 9
Width: 409
VWidth: 0
Flags: HMW
LayerCount: 2
Fore
SplineSet
266 700 m 1
 299 700 l 1
 69 31 l 1
 351 31 l 1
 340 0 l 1
 26 0 l 1
 266 700 l 1
EndSplineSet
EndChar

StartChar: D
Encoding: 68 68 10
Width: 609
VWidth: 0
Flags: HMW
LayerCount: 2
Fore
SplineSet
266 699 m 1
 300 700 l 1
 58 0 l 1
 27 0 l 1
 266 699 l 1
195 0 m 2
 44 0 l 1
 55 33 l 1
 202 33 l 2
 388 33 541 179 600 350 c 0
 654 504 602 667 422 667 c 2
 271 667 l 1
 282 700 l 1
 428 700 l 2
 626 700 689 520 632 350 c 0
 570 162 399 0 195 0 c 2
EndSplineSet
EndChar

StartChar: Q
Encoding: 81 81 11
Width: 730
VWidth: 0
Flags: HMW
LayerCount: 2
Fore
SplineSet
143 350 m 0
 93 204 137 27 318 25 c 0
 503 23 663 185 720 350 c 0
 770 496 727 673 546 675 c 0
 361 677 200 515 143 350 c 0
108 350 m 0
 169 534 348 709 551 708 c 0
 749 707 809 514 755 350 c 0
 694 166 515 -9 312 -8 c 0
 114 -7 54 186 108 350 c 0
419 300 m 1
 458 300 l 1
 653 0 l 1
 613 0 l 1
 419 300 l 1
EndSplineSet
EndChar

StartChar: A
Encoding: 65 65 12
Width: 580
VWidth: 0
Flags: HMW
LayerCount: 2
Fore
SplineSet
159 254 m 1
 177 284 l 1
 492 284 l 1
 490 254 l 1
 159 254 l 1
460 644 m 1
 190 273 l 1
 184 265 l 1
 -8 0 l 1
 -46 0 l 1
 483 722 l 1
 516 0 l 1
 480 0 l 1
 472 263 l 1
 472 271 l 1
 460 644 l 1
EndSplineSet
EndChar

StartChar: R
Encoding: 82 82 13
Width: 465
VWidth: 0
Flags: HMW
LayerCount: 2
Fore
SplineSet
246 326 m 1
 280 326 l 1
 386 0 l 1
 349 0 l 1
 246 326 l 1
266 700 m 1
 300 700 l 1
 58 0 l 1
 27 0 l 1
 266 700 l 1
270 670 m 1
 280 700 l 1
 394 700 l 2
 509 700 592 622 552 502 c 0
 512 378 388 307 263 304 c 1
 144 304 l 1
 156 334 l 1
 268 334 l 1
 376 337 483 396 520 502 c 0
 556 604 486 666 388 670 c 1
 270 670 l 1
EndSplineSet
EndChar

StartChar: V
Encoding: 86 86 14
Width: 580
VWidth: 0
Flags: HMW
LayerCount: 2
Fore
SplineSet
272 58 m 1
 716 699 l 1
 754 699 l 1
 249 -22 l 1
 194 700 l 1
 228 700 l 1
 272 58 l 1
EndSplineSet
EndChar

StartChar: M
Encoding: 77 77 15
Width: 774
VWidth: 0
Flags: HMW
LayerCount: 2
Fore
SplineSet
301 614 m 1
 27 0 l 1
 -6 0 l 1
 317 722 l 1
 386 162 l 1
 846 724 l 1
 670 0 l 1
 638 0 l 1
 788 610 l 1
 366 92 l 1
 301 614 l 1
EndSplineSet
EndChar

StartChar: W
Encoding: 87 87 16
Width: 904
VWidth: 0
Flags: HMW
LayerCount: 2
Fore
SplineSet
642 73 m 1
 1036 699 l 1
 1073 699 l 1
 615 -23 l 1
 612 624 l 1
 207 -23 l 1
 198 700 l 1
 232 700 l 1
 236 73 l 1
 642 723 l 1
 642 73 l 1
EndSplineSet
EndChar

StartChar: N
Encoding: 78 78 17
Width: 656
VWidth: 0
Flags: HMW
LayerCount: 2
Fore
SplineSet
742 700 m 1
 774 700 l 1
 526 -20 l 1
 250 631 l 1
 32 0 l 1
 -1 0 l 1
 247 720 l 1
 524 66 l 1
 742 700 l 1
EndSplineSet
EndChar

StartChar: a
Encoding: 97 97 18
Width: 423
VWidth: 0
Flags: HMW
LayerCount: 2
Fore
SplineSet
56 135 m 0
 34 72 70 20 136 20 c 0
 228 19 294 89 335 164 c 1
 338 149 l 1
 297 66 225 -9 125 -9 c 0
 43 -9 0 58 26 135 c 0
 56 227 157 282 250 282 c 0
 298 282 335 266 369 232 c 1
 362 212 l 1
 329 242 292 256 246 256 c 0
 169 256 82 211 56 135 c 0
163 383 m 1
 154 408 l 1
 206 440 265 471 327 469 c 0
 413 467 440 397 417 323 c 2
 306 0 l 1
 274 0 l 1
 388 323 l 2
 406 380 393 438 322 440 c 0
 264 442 210 411 163 383 c 1
EndSplineSet
Substitution2: "alt a" a.alt
EndChar

StartChar: X
Encoding: 88 88 19
Width: 485
VWidth: 0
Flags: HMW
LayerCount: 2
Fore
SplineSet
599 698 m 1
 640 698 l 1
 340 365 l 1
 436 0 l 1
 400 0 l 1
 316 336 l 1
 20 0 l 1
 -21 0 l 1
 309 369 l 1
 221 700 l 1
 258 700 l 1
 332 398 l 1
 599 698 l 1
EndSplineSet
EndChar

StartChar: K
Encoding: 75 75 20
Width: 458
VWidth: 0
Flags: HMW
LayerCount: 2
Fore
SplineSet
264 700 m 1
 296 700 l 1
 55 0 l 1
 24 0 l 1
 264 700 l 1
576 698 m 1
 620 698 l 1
 211 370 l 1
 391 0 l 1
 354 0 l 1
 174 374 l 1
 576 698 l 1
EndSplineSet
EndChar

StartChar: Y
Encoding: 89 89 21
Width: 492
VWidth: 0
Flags: HMW
LayerCount: 2
Fore
SplineSet
630 698 m 1
 668 698 l 1
 299 276 l 1
 204 0 l 1
 171 0 l 1
 268 279 l 1
 196 700 l 1
 231 700 l 1
 292 311 l 1
 630 698 l 1
EndSplineSet
EndChar

StartChar: B
Encoding: 66 66 22
Width: 483
VWidth: 0
Flags: HMW
LayerCount: 2
Fore
SplineSet
182 382 m 1
 187 400 l 1
 286 401 l 1
 372 404 460 448 490 534 c 0
 520 618 462 670 382 670 c 2
 288 670 l 1
 68 30 l 1
 168 30 l 2
 276 30 378 97 414 203 c 0
 446 297 383 372 289 372 c 2
 178 372 l 1
 184 391 l 1
 298 392 l 2
 404 391 480 309 446 201 c 0
 408 77 288 0 162 0 c 2
 26 0 l 1
 266 700 l 1
 388 700 l 2
 484 700 558 638 524 534 c 0
 490 434 390 386 290 382 c 1
 182 382 l 1
EndSplineSet
EndChar

StartChar: Z
Encoding: 90 90 23
Width: 505
VWidth: 0
Flags: HMW
LayerCount: 2
Fore
SplineSet
209 668 m 1
 220 700 l 1
 678 700 l 1
 30 32 l 1
 436 32 l 1
 425 0 l 1
 -40 0 l 1
 608 668 l 1
 209 668 l 1
EndSplineSet
EndChar

StartChar: o
Encoding: 111 111 24
Width: 520
VWidth: 0
Flags: HMW
LayerCount: 2
Fore
SplineSet
75 230 m 0
 111 354 233 469 368 469 c 0
 500 469 552 344 518 230 c 0
 482 106 360 -9 225 -9 c 0
 93 -9 41 116 75 230 c 0
106 230 m 0
 76 133 115 21 230 20 c 0
 348 19 454 122 488 230 c 0
 518 327 479 439 364 440 c 0
 246 441 140 338 106 230 c 0
EndSplineSet
EndChar

StartChar: J
Encoding: 74 74 25
Width: 197
VWidth: 0
Flags: HMW
LayerCount: 2
Fore
SplineSet
-208 -143 m 1
 -187 -168 -165 -188 -129 -188 c 0
 -51 -189 -9 -114 14 -50 c 2
 271 700 l 1
 302 700 l 1
 42 -60 l 2
 13 -139 -42 -221 -136 -219 c 0
 -178 -218 -207 -197 -232 -166 c 1
 -208 -143 l 1
EndSplineSet
EndChar

StartChar: t
Encoding: 116 116 26
Width: 192
VWidth: 0
Flags: HMW
LayerCount: 2
Fore
SplineSet
118 460 m 1
 289 460 l 1
 278 430 l 1
 106 430 l 1
 118 460 l 1
239 619 m 1
 270 620 l 1
 56 0 l 1
 27 0 l 1
 239 619 l 1
EndSplineSet
EndChar

StartChar: d
Encoding: 100 100 27
Width: 517
VWidth: 0
Flags: HMW
LayerCount: 2
Fore
SplineSet
627 779 m 1
 658 780 l 1
 390 0 l 1
 360 0 l 1
 627 779 l 1
62 230 m 0
 101 348 214 472 348 470 c 0
 476 468 486 325 454 230 c 0
 418 119 317 -8 189 -9 c 0
 55 -10 28 126 62 230 c 0
94 230 m 0
 63 140 81 18 198 20 c 0
 309 22 406 133 440 230 c 0
 468 312 455 436 347 440 c 0
 230 444 130 332 94 230 c 0
EndSplineSet
EndChar

StartChar: l
Encoding: 108 108 28
Width: 183
VWidth: 0
Flags: HMW
LayerCount: 2
Fore
SplineSet
289 779 m 1
 320 780 l 1
 51 0 l 1
 22 0 l 1
 289 779 l 1
EndSplineSet
EndChar

StartChar: i
Encoding: 105 105 29
Width: 197
VWidth: 0
Flags: HMW
LayerCount: 2
Fore
SplineSet
255 682 m 0
 255 695 265 704 278 704 c 0
 291 704 302 695 302 682 c 0
 302 669 291 658 278 658 c 0
 265 658 255 669 255 682 c 0
188 459 m 1
 219 459 l 1
 60 0 l 1
 30 0 l 1
 188 459 l 1
EndSplineSet
EndChar

StartChar: r
Encoding: 114 114 30
Width: 287
VWidth: 0
Flags: HMW
LayerCount: 2
Fore
SplineSet
211 460 m 1
 52 0 l 1
 20 0 l 1
 180 460 l 1
 211 460 l 1
352 420 m 1
 337 430 322 439 304 440 c 0
 222 444 174 344 146 282 c 1
 132 282 l 1
 164 356 219 473 315 469 c 0
 339 469 356 457 375 444 c 1
 352 420 l 1
EndSplineSet
EndChar

StartChar: c
Encoding: 99 99 31
Width: 456
VWidth: 0
Flags: HMW
LayerCount: 2
Fore
SplineSet
100 230 m 0
 70 132 111 22 226 20 c 0
 290 20 346 50 396 86 c 1
 384 48 l 1
 334 16 280 -9 220 -9 c 0
 88 -9 36 116 70 230 c 0
 106 355 228 469 364 469 c 0
 417 469 460 450 496 412 c 1
 484 374 l 1
 454 418 413 440 359 440 c 0
 241 440 134 338 100 230 c 0
EndSplineSet
EndChar

StartChar: b
Encoding: 98 98 32
Width: 517
VWidth: 0
Flags: HMW
LayerCount: 2
Fore
SplineSet
316 780 m 1
 46 0 l 1
 16 0 l 1
 284 780 l 1
 316 780 l 1
503 230 m 0
 464 112 352 -12 218 -10 c 0
 90 -8 80 135 112 230 c 0
 148 341 248 468 376 469 c 0
 510 470 537 334 503 230 c 0
472 230 m 0
 503 320 483 442 366 440 c 0
 255 438 160 327 126 230 c 0
 98 148 110 24 218 20 c 0
 335 16 436 128 472 230 c 0
EndSplineSet
EndChar

StartChar: p
Encoding: 112 112 33
Width: 517
VWidth: 0
Flags: HMW
LayerCount: 2
Fore
SplineSet
-28 -219 m 1
 -60 -220 l 1
 176 460 l 1
 205 459 l 1
 -28 -219 l 1
503 230 m 0
 464 112 352 -12 218 -10 c 0
 90 -8 80 135 112 230 c 0
 148 341 248 468 376 469 c 0
 510 470 537 334 503 230 c 0
472 230 m 0
 503 320 483 442 366 440 c 0
 255 438 160 327 126 230 c 0
 98 148 110 24 218 20 c 0
 335 16 436 128 472 230 c 0
EndSplineSet
EndChar

StartChar: q
Encoding: 113 113 34
Width: 517
VWidth: 0
Flags: HMW
LayerCount: 2
Fore
SplineSet
284 -220 m 1
 518 460 l 1
 550 460 l 1
 314 -220 l 1
 284 -220 l 1
62 230 m 0
 101 348 214 472 348 470 c 0
 476 468 486 325 454 230 c 0
 418 119 317 -8 189 -9 c 0
 55 -10 28 126 62 230 c 0
94 230 m 0
 63 140 81 18 198 20 c 0
 309 22 406 133 440 230 c 0
 468 312 455 436 347 440 c 0
 230 444 130 332 94 230 c 0
EndSplineSet
EndChar

StartChar: h
Encoding: 104 104 35
Width: 460
VWidth: 0
Flags: HMW
LayerCount: 2
Fore
SplineSet
320 780 m 1
 52 0 l 1
 21 0 l 1
 290 780 l 1
 320 780 l 1
406 308 m 2
 424 368 423 438 345 440 c 0
 253 442 184 355 146 282 c 1
 135 282 l 1
 175 370 248 469 356 469 c 0
 450 469 459 384 437 311 c 1
 328 0 l 1
 300 0 l 1
 406 308 l 2
EndSplineSet
EndChar

StartChar: n
Encoding: 110 110 36
Width: 460
VWidth: 0
Flags: HMW
LayerCount: 2
Fore
SplineSet
406 308 m 2
 424 368 423 438 345 440 c 0
 259 442 181 372 155 296 c 2
 52 0 l 1
 20 0 l 1
 180 460 l 1
 211 460 l 1
 176 358 l 1
 211 419 276 469 356 469 c 0
 450 469 460 383 437 311 c 2
 328 0 l 1
 300 0 l 1
 406 308 l 2
EndSplineSet
EndChar

StartChar: m
Encoding: 109 109 37
Width: 674
VWidth: 0
Flags: HMW
LayerCount: 2
Fore
SplineSet
650 311 m 2
 543 0 l 1
 512 0 l 1
 620 308 l 2
 636 358 647 437 574 439 c 0
 492 442 423 364 399 294 c 2
 297 0 l 1
 268 0 l 1
 374 308 l 2
 390 358 402 437 329 439 c 0
 249 442 180 368 155 298 c 2
 52 0 l 1
 20 0 l 1
 180 460 l 1
 211 460 l 1
 176 359 l 1
 207 414 267 472 340 470 c 0
 414 468 422 401 412 353 c 1
 454 422 509 471 585 469 c 0
 675 467 670 375 650 311 c 2
EndSplineSet
EndChar

StartChar: k
Encoding: 107 107 38
Width: 368
VWidth: 0
Flags: HMW
LayerCount: 2
Fore
SplineSet
284 779 m 1
 316 780 l 1
 46 0 l 1
 18 0 l 1
 284 779 l 1
408 458 m 1
 450 458 l 1
 164 266 l 1
 308 0 l 1
 273 0 l 1
 130 272 l 1
 408 458 l 1
EndSplineSet
EndChar

StartChar: u
Encoding: 117 117 39
Width: 460
VWidth: 0
Flags: HMW
LayerCount: 2
Fore
SplineSet
106 159 m 2
 87 99 83 20 165 20 c 0
 253 18 331 96 356 166 c 2
 458 460 l 1
 488 460 l 1
 330 0 l 1
 298 0 l 1
 333 96 l 1
 291 38 234 -11 154 -9 c 0
 56 -9 51 82 75 156 c 2
 181 460 l 1
 210 459 l 1
 106 159 l 2
EndSplineSet
EndChar

StartChar: e
Encoding: 101 101 40
Width: 496
VWidth: 0
Flags: HMW
LayerCount: 2
Fore
SplineSet
207 -10 m 0
 117 -10 63 52 63 164 c 0
 63 302 205 470 350 470 c 0
 435 470 488 400 488 304 c 0
 488 276 478 242 468 222 c 1
 90 222 l 1
 90 250 l 1
 452 250 l 1
 438 230 l 1
 446 248 458 273 458 305 c 0
 458 381 420 442 346 442 c 0
 218 442 94 288 94 166 c 0
 94 78 132 20 210 20 c 0
 286 20 356 62 404 124 c 1
 428 107 l 1
 374 39 295 -10 207 -10 c 0
EndSplineSet
EndChar

StartChar: g
Encoding: 103 103 41
Width: 517
VWidth: 0
Flags: HMW
LayerCount: 2
Fore
SplineSet
-12 -30 m 1
 18 -30 l 1
 -1 -114 16 -198 118 -200 c 0
 237 -202 329 -93 364 10 c 2
 518 460 l 1
 550 460 l 1
 396 10 l 2
 355 -109 257 -229 117 -229 c 0
 -2 -229 -36 -130 -12 -30 c 1
62 230 m 0
 101 348 214 472 348 470 c 0
 476 468 486 325 454 230 c 0
 418 119 317 -8 189 -9 c 0
 55 -10 28 126 62 230 c 0
94 230 m 0
 62 140 81 20 198 20 c 0
 310 20 407 136 440 234 c 0
 468 316 453 436 347 440 c 0
 230 444 130 332 94 230 c 0
EndSplineSet
EndChar

StartChar: f
Encoding: 102 102 42
Width: 263
VWidth: 0
Flags: HMW
LayerCount: 2
Fore
SplineSet
146 460 m 1
 341 460 l 1
 330 430 l 1
 136 430 l 1
 146 460 l 1
452 718 m 1
 440 737 427 755 401 757 c 0
 339 759 302 690 282 641 c 2
 62 0 l 1
 30 0 l 1
 250 644 l 2
 274 710 327 792 408 788 c 0
 440 786 458 766 476 742 c 1
 452 718 l 1
EndSplineSet
EndChar

StartChar: s
Encoding: 115 115 43
Width: 379
VWidth: 0
Flags: HMW
LayerCount: 2
Fore
SplineSet
70 144 m 1
 76 84 96 18 172 18 c 0
 232 18 290 65 302 121 c 0
 314 177 267 207 222 226 c 0
 168 248 118 279 134 351 c 0
 148 423 220 468 288 468 c 0
 354 468 386 426 400 372 c 1
 377 358 l 1
 364 406 341 441 287 441 c 0
 229 442 178 406 164 356 c 0
 148 298 190 272 240 251 c 0
 296 227 344 195 332 124 c 0
 318 51 248 -10 168 -10 c 0
 78 -10 47 64 43 132 c 1
 70 144 l 1
EndSplineSet
EndChar

StartChar: y
Encoding: 121 121 44
Width: 403
VWidth: 0
Flags: HMW
LayerCount: 2
Fore
SplineSet
503 459 m 1
 -14 -219 l 1
 -49 -218 l 1
 146 36 l 1
 110 460 l 1
 140 460 l 1
 175 44 l 1
 157 46 l 1
 468 459 l 1
 503 459 l 1
EndSplineSet
EndChar

StartChar: w
Encoding: 119 119 45
Width: 599
VWidth: 0
Flags: HMW
LayerCount: 2
Fore
SplineSet
116 460 m 1
 146 460 l 1
 131 64 l 1
 406 483 l 1
 398 62 l 1
 660 459 l 1
 694 459 l 1
 373 -23 l 1
 380 397 l 1
 102 -23 l 1
 116 460 l 1
EndSplineSet
EndChar

StartChar: v
Encoding: 118 118 46
Width: 400
VWidth: 0
Flags: HMW
LayerCount: 2
Fore
SplineSet
114 460 m 1
 147 460 l 1
 180 50 l 1
 468 459 l 1
 504 459 l 1
 159 -22 l 1
 114 460 l 1
EndSplineSet
EndChar

StartChar: x
Encoding: 120 120 47
Width: 368
VWidth: 0
Flags: HMW
LayerCount: 2
Fore
SplineSet
424 458 m 1
 462 458 l 1
 241 234 l 1
 328 0 l 1
 295 0 l 1
 217 214 l 1
 8 0 l 1
 -30 0 l 1
 208 240 l 1
 124 460 l 1
 156 460 l 1
 231 261 l 1
 424 458 l 1
EndSplineSet
EndChar

StartChar: z
Encoding: 122 122 48
Width: 412
VWidth: 0
Flags: HMW
LayerCount: 2
Fore
SplineSet
425 430 m 1
 131 430 l 1
 141 460 l 1
 494 460 l 1
 30 30 l 1
 346 30 l 1
 336 0 l 1
 -40 0 l 1
 425 430 l 1
EndSplineSet
EndChar

StartChar: j
Encoding: 106 106 49
Width: 188
VWidth: 0
Flags: HMW
LayerCount: 2
Fore
SplineSet
245 682 m 0
 245 695 255 704 268 704 c 0
 281 704 292 695 292 682 c 0
 292 669 281 658 268 658 c 0
 255 658 245 669 245 682 c 0
-176 -150 m 1
 -166 -167 -149 -188 -126 -188 c 0
 -63 -189 -22 -118 -4 -72 c 2
 178 460 l 1
 209 460 l 1
 26 -76 l 2
 2 -142 -47 -220 -128 -219 c 0
 -161 -219 -182 -198 -200 -174 c 1
 -176 -150 l 1
EndSplineSet
EndChar

StartChar: P
Encoding: 80 80 50
Width: 470
VWidth: 0
Flags: HMW
LayerCount: 2
Fore
SplineSet
266 699 m 1
 300 700 l 1
 58 0 l 1
 27 0 l 1
 266 699 l 1
272 669 m 1
 284 700 l 1
 400 700 l 2
 517 700 580 606 542 494 c 0
 503 374 388 290 264 290 c 2
 144 290 l 1
 154 321 l 1
 271 321 l 1
 378 322 474 393 510 495 c 0
 544 591 494 668 394 668 c 2
 272 669 l 1
EndSplineSet
EndChar

StartChar: U
Encoding: 85 85 51
Width: 555
VWidth: 0
Flags: HMW
LayerCount: 2
Fore
SplineSet
262 700 m 1
 294 700 l 1
 130 223 l 2
 102 133 113 22 229 22 c 0
 352 22 432 122 468 223 c 2
 633 700 l 1
 666 700 l 1
 502 223 l 2
 460 103 370 -9 224 -9 c 0
 89 -9 65 115 99 223 c 2
 262 700 l 1
EndSplineSet
EndChar

StartChar: S
Encoding: 83 83 52
Width: 475
VWidth: 0
Flags: HMW
LayerCount: 2
Fore
SplineSet
74 202 m 1
 82 116 104 26 205 24 c 0
 309 22 392 101 414 188 c 0
 433 268 387 316 317 354 c 0
 248 391 179 446 201 538 c 0
 221 630 313 708 419 708 c 0
 518 708 556 634 564 552 c 1
 536 540 l 1
 531 608 502 676 414 676 c 0
 331 676 254 617 234 541 c 0
 212 459 276 410 342 376 c 0
 414 338 467 284 447 192 c 0
 425 84 323 -10 203 -8 c 0
 89 -6 53 92 46 185 c 1
 74 202 l 1
EndSplineSet
EndChar

StartChar: at
Encoding: 64 64 53
Width: 724
VWidth: 0
Flags: HMW
LayerCount: 2
Fore
SplineSet
272 320 m 0
 254 266 259 196 329 192 c 0
 420 188 501 293 527 370 c 0
 543 420 542 494 474 499 c 0
 380 505 298 399 272 320 c 0
242 320 m 0
 272 415 370 534 480 528 c 0
 564 524 563 429 543 368 c 0
 513 278 426 161 320 163 c 0
 234 165 221 253 242 320 c 0
86 320 m 0
 154 522 354 710 576 708 c 0
 752 706 824 544 772 390 c 0
 740 294 641 140 522 152 c 0
 447 159 474 236 492 284 c 1
 488 285 l 1
 606 519 l 1
 638 519 l 1
 517 289 l 2
 513 279 508 267 504 256 c 0
 495 225 490 188 530 180 c 0
 628 162 717 316 743 390 c 0
 793 529 733 678 571 681 c 0
 363 685 179 506 115 320 c 0
 65 172 112 24 286 20 c 0
 368 18 448 43 523 74 c 1
 530 49 l 1
 452 16 368 -9 282 -8 c 0
 92 -5 31 156 86 320 c 0
EndSplineSet
EndChar

StartChar: period
Encoding: 46 46 54
Width: 255
VWidth: 0
Flags: HMW
LayerCount: 2
Fore
SplineSet
54 12 m 0
 54 25 65 36 78 36 c 0
 91 36 102 25 102 12 c 0
 102 -1 91 -11 78 -11 c 0
 65 -11 54 -1 54 12 c 0
EndSplineSet
EndChar

StartChar: comma
Encoding: 44 44 55
Width: 268
VWidth: 0
Flags: HMW
LayerCount: 2
Fore
SplineSet
136 97 m 1
 164 84 l 1
 -26 -162 l 1
 -47 -154 l 1
 136 97 l 1
EndSplineSet
EndChar

StartChar: colon
Encoding: 58 58 56
Width: 282
VWidth: 0
Flags: HMW
LayerCount: 2
Fore
SplineSet
54 12 m 0
 54 25 65 36 78 36 c 0
 91 36 102 25 102 12 c 0
 102 -1 91 -11 78 -11 c 0
 65 -11 54 -1 54 12 c 0
176 370 m 0
 176 383 187 394 200 394 c 0
 213 394 224 383 224 370 c 0
 224 357 213 346 200 346 c 0
 187 346 176 357 176 370 c 0
EndSplineSet
EndChar

StartChar: semicolon
Encoding: 59 59 57
Width: 274
VWidth: 0
Flags: HMW
LayerCount: 2
Fore
SplineSet
204 370 m 0
 204 383 215 394 228 394 c 0
 241 394 252 383 252 370 c 0
 252 357 241 346 228 346 c 0
 215 346 204 357 204 370 c 0
136 97 m 1
 164 84 l 1
 -26 -162 l 1
 -47 -154 l 1
 136 97 l 1
EndSplineSet
EndChar

StartChar: quotedbl
Encoding: 34 34 58
Width: 396
VWidth: 0
Flags: HMW
LayerCount: 2
Fore
SplineSet
310 699 m 1
 348 699 l 1
 195 416 l 1
 174 415 l 1
 310 699 l 1
480 699 m 1
 518 699 l 1
 364 416 l 1
 342 415 l 1
 480 699 l 1
EndSplineSet
EndChar

StartChar: exclam
Encoding: 33 33 59
Width: 256
VWidth: 0
Flags: HMW
LayerCount: 2
Fore
SplineSet
294 700 m 1
 334 700 l 1
 154 201 l 1
 132 201 l 1
 294 700 l 1
54 12 m 0
 54 26 65 37 78 37 c 0
 91 37 102 26 102 12 c 0
 102 -2 91 -12 78 -12 c 0
 65 -12 54 -2 54 12 c 0
EndSplineSet
EndChar

StartChar: quotesingle
Encoding: 39 39 60
Width: 226
VWidth: 0
Flags: HMW
LayerCount: 2
Fore
SplineSet
310 699 m 1
 348 699 l 1
 195 416 l 1
 174 415 l 1
 310 699 l 1
EndSplineSet
EndChar

StartChar: numbersign
Encoding: 35 35 61
Width: 546
VWidth: 0
Flags: HMW
LayerCount: 2
Fore
SplineSet
170 450 m 1
 178 476 l 1
 623 476 l 1
 614 450 l 1
 500 450 l 1
 493 450 l 1
 302 450 l 1
 296 450 l 1
 170 450 l 1
56 228 m 1
 65 255 l 1
 180 255 l 1
 188 255 l 1
 378 255 l 1
 388 255 l 1
 509 255 l 1
 501 228 l 1
 56 228 l 1
622 699 m 1
 654 699 l 1
 252 0 l 1
 221 0 l 1
 358 239 l 1
 363 246 l 1
 484 459 l 1
 488 467 l 1
 622 699 l 1
424 699 m 1
 456 699 l 1
 322 468 l 1
 318 460 l 1
 194 244 l 1
 192 238 l 1
 54 0 l 1
 25 0 l 1
 424 699 l 1
EndSplineSet
EndChar

StartChar: hyphen
Encoding: 45 45 62
Width: 197
VWidth: 0
Flags: HMW
LayerCount: 2
Fore
SplineSet
34 246 m 1
 44 275 l 1
 234 275 l 1
 224 246 l 1
 34 246 l 1
EndSplineSet
EndChar

StartChar: dollar
Encoding: 36 36 63
Width: 545
VWidth: 0
Flags: HMW
LayerCount: 2
Fore
SplineSet
454 817 m 1
 483 817 l 1
 442 692 l 1
 414 692 l 1
 454 817 l 1
208 12 m 1
 236 12 l 1
 196 -112 l 1
 168 -112 l 1
 208 12 l 1
539 538 m 1
 533 608 506 674 426 676 c 0
 348 678 268 619 244 545 c 0
 216 457 289 410 356 376 c 0
 436 336 486 271 460 179 c 0
 430 73 332 -10 220 -8 c 0
 106 -6 72 94 66 190 c 1
 98 206 l 1
 102 122 124 26 226 24 c 0
 318 22 400 91 426 178 c 0
 452 264 397 316 327 352 c 0
 249 392 183 453 211 548 c 0
 238 638 337 709 431 708 c 0
 524 707 562 634 569 552 c 1
 539 538 l 1
EndSplineSet
EndChar

StartChar: bar
Encoding: 124 124 64
Width: 215
VWidth: 0
Flags: HMW
LayerCount: 2
Fore
SplineSet
302 784 m 1
 330 784 l 1
 21 -214 l 1
 -8 -214 l 1
 302 784 l 1
EndSplineSet
EndChar

StartChar: zero
Encoding: 48 48 65
Width: 531
VWidth: 0
Flags: HMW
LayerCount: 2
Fore
SplineSet
145 350 m 0
 113 259 56 24 216 22 c 0
 374 20 475 224 518 350 c 0
 550 441 606 676 446 678 c 0
 288 680 188 476 145 350 c 0
112 350 m 0
 160 494 274 711 452 709 c 0
 634 707 587 460 550 350 c 0
 502 206 388 -11 210 -9 c 0
 28 -7 75 240 112 350 c 0
EndSplineSet
Substitution2: "Tabular Numbers lookup" uniFF10
EndChar

StartChar: one
Encoding: 49 49 66
Width: 396
VWidth: 0
Flags: HMW
LayerCount: 2
Fore
SplineSet
244 627 m 1
 256 662 l 1
 460 707 l 1
 216 0 l 1
 185 0 l 1
 414 664 l 1
 244 627 l 1
EndSplineSet
Substitution2: "Tabular Numbers lookup" uniFF11
EndChar

StartChar: two
Encoding: 50 50 67
Width: 498
VWidth: 0
Flags: HMW
LayerCount: 2
Fore
SplineSet
-12 0 m 1
 394 340 l 2
 450 388 512 441 534 515 c 0
 560 595 524 677 432 679 c 0
 309 681 232 561 190 461 c 1
 159 461 l 1
 205 579 294 712 436 710 c 0
 544 708 594 614 566 516 c 0
 542 436 480 374 418 322 c 2
 66 32 l 1
 437 31 l 1
 428 0 l 1
 -12 0 l 1
EndSplineSet
Substitution2: "Tabular Numbers lookup" uniFF12
EndChar

StartChar: four
Encoding: 52 52 68
Width: 528
VWidth: 0
Flags: HMW
LayerCount: 2
Fore
SplineSet
16 142 m 1
 568 698 l 1
 580 699 l 1
 339 0 l 1
 308 0 l 1
 360 152 l 1
 362 159 l 1
 520 614 l 1
 80 170 l 1
 376 170 l 1
 384 170 l 1
 502 170 l 1
 492 140 l 1
 16 142 l 1
EndSplineSet
Substitution2: "Tabular Numbers lookup" uniFF14
EndChar

StartChar: slash
Encoding: 47 47 69
Width: 457
VWidth: 0
Flags: HMW
LayerCount: 2
Fore
SplineSet
598 699 m 1
 632 698 l 1
 -61 -149 l 1
 -92 -148 l 1
 598 699 l 1
EndSplineSet
EndChar

StartChar: backslash
Encoding: 92 92 70
Width: 431
VWidth: 0
Flags: HMW
LayerCount: 2
Fore
SplineSet
198 700 m 1
 231 700 l 1
 363 0 l 1
 332 0 l 1
 198 700 l 1
EndSplineSet
EndChar

StartChar: eight
Encoding: 56 56 71
Width: 493
VWidth: 0
Flags: HMW
LayerCount: 2
Fore
SplineSet
208 538 m 0
 238 628 334 710 432 709 c 0
 526 708 574 621 546 537 c 0
 516 446 418 365 320 365 c 0
 225 365 180 453 208 538 c 0
236 535 m 0
 214 469 244 388 322 386 c 0
 403 384 488 462 514 535 c 0
 538 603 508 678 428 680 c 0
 346 682 262 611 236 535 c 0
66 187 m 0
 100 289 209 377 319 376 c 0
 425 376 476 282 446 186 c 0
 412 80 305 -10 192 -9 c 0
 82 -8 34 89 66 187 c 0
98 190 m 0
 68 108 100 22 196 20 c 0
 293 18 387 100 417 190 c 0
 443 267 406 353 316 355 c 0
 223 357 128 274 98 190 c 0
EndSplineSet
Substitution2: "Tabular Numbers lookup" uniFF18
EndChar

StartChar: nine
Encoding: 57 57 72
Width: 515
VWidth: 0
Flags: HMW
LayerCount: 2
Fore
SplineSet
552 477 m 0
 582 570 547 678 435 679 c 0
 321 680 221 581 189 477 c 0
 162 389 197 286 301 284 c 0
 413 282 518 375 552 477 c 0
172 0 m 1
 130 0 l 1
 454 328 l 1
 458 325 l 1
 408 288 353 256 289 258 c 0
 171 261 130 377 159 477 c 0
 193 599 308 709 440 709 c 0
 570 709 616 589 582 477 c 0
 564 419 528 366 486 322 c 2
 172 0 l 1
EndSplineSet
Substitution2: "Tabular Numbers lookup" uniFF19
EndChar

StartChar: three
Encoding: 51 51 73
Width: 516
VWidth: 0
Flags: HMW
LayerCount: 2
Fore
SplineSet
310 358 m 1
 316 380 l 1
 408 392 508 434 540 530 c 0
 564 604 526 677 444 679 c 0
 348 681 283 605 245 527 c 1
 214 528 l 1
 256 624 335 710 449 709 c 0
 548 708 600 622 572 530 c 0
 537 416 419 368 310 358 c 1
228 -9 m 0
 110 -9 62 77 82 185 c 1
 114 184 l 1
 98 93 130 23 232 22 c 0
 327 21 424 89 452 181 c 0
 484 286 399 337 307 349 c 1
 314 370 l 1
 422 360 520 300 484 178 c 0
 452 70 340 -9 228 -9 c 0
EndSplineSet
Substitution2: "Tabular Numbers lookup" uniFF13
EndChar

StartChar: five
Encoding: 53 53 74
Width: 525
VWidth: 0
Flags: HMW
LayerCount: 2
Fore
SplineSet
507 230 m 0
 471 103 356 -9 218 -9 c 0
 123 -9 72 51 52 138 c 1
 83 155 l 1
 99 79 138 23 222 22 c 0
 341 21 442 121 476 230 c 0
 503 318 472 417 368 421 c 0
 286 423 212 376 150 329 c 1
 352 700 l 1
 663 700 l 1
 654 670 l 1
 368 670 l 1
 209 384 l 1
 259 422 318 453 382 451 c 0
 503 449 537 330 507 230 c 0
EndSplineSet
Substitution2: "Tabular Numbers lookup" uniFF15
EndChar

StartChar: six
Encoding: 54 54 75
Width: 515
VWidth: 0
Flags: HMW
LayerCount: 2
Fore
SplineSet
111 223 m 0
 81 130 116 22 228 21 c 0
 342 20 442 119 474 223 c 0
 501 311 466 414 362 416 c 0
 250 418 145 325 111 223 c 0
491 698 m 1
 533 698 l 1
 208 372 l 1
 204 375 l 1
 254 412 310 444 374 442 c 0
 492 439 533 323 504 223 c 0
 470 101 355 -9 223 -9 c 0
 93 -9 46 111 80 223 c 0
 98 281 134 334 176 378 c 2
 491 698 l 1
EndSplineSet
Substitution2: "Tabular Numbers lookup" uniFF16
EndChar

StartChar: seven
Encoding: 55 55 76
Width: 486
VWidth: 0
Flags: HMW
LayerCount: 2
Fore
SplineSet
202 669 m 1
 212 700 l 1
 663 699 l 1
 107 0 l 1
 72 0 l 1
 604 668 l 1
 202 669 l 1
EndSplineSet
Substitution2: "Tabular Numbers lookup" uniFF17
EndChar

StartChar: plus
Encoding: 43 43 77
Width: 535
VWidth: 0
Flags: HMW
LayerCount: 2
Fore
SplineSet
88 240 m 1
 98 270 l 1
 508 270 l 1
 496 240 l 1
 88 240 l 1
361 485 m 1
 394 486 l 1
 233 24 l 1
 202 25 l 1
 361 485 l 1
EndSplineSet
EndChar

StartChar: equal
Encoding: 61 61 78
Width: 578
VWidth: 0
Flags: HMW
LayerCount: 2
Fore
SplineSet
66 172 m 1
 75 201 l 1
 533 201 l 1
 523 172 l 1
 66 172 l 1
111 304 m 1
 120 334 l 1
 578 334 l 1
 568 304 l 1
 111 304 l 1
EndSplineSet
EndChar

StartChar: percent
Encoding: 37 37 79
Width: 673
VWidth: 0
Flags: HMW
LayerCount: 2
Fore
SplineSet
168 558 m 0
 194 637 274 709 360 709 c 0
 446 709 478 630 454 556 c 0
 428 477 347 405 261 405 c 0
 175 405 144 484 168 558 c 0
195 557 m 0
 175 499 196 433 266 431 c 0
 336 429 404 493 426 557 c 0
 446 615 425 680 356 682 c 0
 286 684 217 621 195 557 c 0
350 144 m 0
 376 223 457 295 543 295 c 0
 629 295 660 216 636 142 c 0
 610 63 530 -9 444 -9 c 0
 358 -9 326 70 350 144 c 0
378 143 m 0
 358 85 377 19 447 17 c 0
 517 15 587 79 609 143 c 0
 629 201 607 266 538 268 c 0
 468 270 400 207 378 143 c 0
720 698 m 1
 752 698 l 1
 84 0 l 1
 52 0 l 1
 720 698 l 1
EndSplineSet
EndChar

StartChar: ampersand
Encoding: 38 38 80
Width: 635
VWidth: 0
Flags: HMW
LayerCount: 2
Fore
SplineSet
277 414 m 2
 252 464 233 515 250 571 c 0
 274 651 356 712 440 710 c 0
 518 708 560 641 538 568 c 0
 512 482 421 431 347 391 c 0
 250 339 125 294 89 178 c 0
 61 89 116 22 207 20 c 0
 383 16 518 204 630 314 c 1
 650 298 l 1
 529 179 389 -11 201 -9 c 0
 95 -7 26 71 56 176 c 0
 93 302 222 354 328 410 c 0
 394 445 483 491 507 568 c 0
 525 624 498 680 436 682 c 0
 369 684 301 632 281 570 c 0
 265 522 282 476 304 432 c 2
 527 0 l 1
 493 0 l 1
 277 414 l 2
EndSplineSet
EndChar

StartChar: question
Encoding: 63 63 81
Width: 513
VWidth: 0
Flags: HMW
LayerCount: 2
Fore
SplineSet
536 514 m 0
 567 600 525 679 430 680 c 0
 350 681 284 630 228 578 c 1
 206 596 l 1
 270 656 346 711 438 709 c 0
 548 707 601 614 567 514 c 0
 527 398 407 339 293 323 c 1
 237 171 l 1
 214 171 l 1
 264 345 l 1
 272 345 l 0
 379 355 497 406 536 514 c 0
145 12 m 0
 145 24 155 36 169 36 c 0
 183 36 192 24 192 12 c 0
 192 -1 181 -11 168 -11 c 0
 154 -11 145 -2 145 12 c 0
EndSplineSet
EndChar

StartChar: parenleft
Encoding: 40 40 82
Width: 244
VWidth: 0
Flags: HMW
LayerCount: 2
Fore
SplineSet
399 778 m 1
 424 778 l 1
 314 630 226 466 172 290 c 0
 123 131 104 -34 122 -200 c 1
 98 -200 l 1
 72 -35 90 131 138 290 c 0
 192 468 281 634 399 778 c 1
EndSplineSet
EndChar

StartChar: parenright
Encoding: 41 41 83
Width: 244
VWidth: 0
Flags: HMW
LayerCount: 2
Fore
SplineSet
-43 -198 m 1
 -68 -198 l 1
 42 -50 129 114 183 290 c 0
 232 449 252 614 234 780 c 1
 258 780 l 1
 284 615 265 449 217 290 c 0
 163 112 75 -54 -43 -198 c 1
EndSplineSet
EndChar

StartChar: asterisk
Encoding: 42 42 84
Width: 557
VWidth: 0
Flags: HMW
LayerCount: 2
Fore
SplineSet
583 588 m 1
 582 560 l 1
 401 510 l 1
 400 530 l 1
 583 588 l 1
466 380 m 1
 438 364 l 1
 392 513 l 1
 408 525 l 1
 466 380 l 1
260 366 m 1
 241 384 l 1
 394 524 l 1
 406 511 l 1
 260 366 l 1
248 562 m 1
 266 588 l 1
 409 528 l 1
 398 511 l 1
 248 562 l 1
450 699 m 1
 479 699 l 1
 410 520 l 1
 391 520 l 1
 450 699 l 1
EndSplineSet
EndChar

StartChar: less
Encoding: 60 60 85
Width: 602
VWidth: 0
Flags: HMW
LayerCount: 2
Fore
SplineSet
144 256 m 1
 510 64 l 1
 500 38 l 1
 91 248 l 1
 97 266 l 1
 652 479 l 1
 640 446 l 1
 144 256 l 1
EndSplineSet
EndChar

StartChar: greater
Encoding: 62 62 86
Width: 602
VWidth: 0
Flags: HMW
LayerCount: 2
Fore
SplineSet
526 258 m 1
 159 450 l 1
 170 478 l 1
 578 266 l 1
 572 249 l 1
 18 36 l 1
 28 69 l 1
 526 258 l 1
EndSplineSet
EndChar

StartChar: bracketleft
Encoding: 91 91 87
Width: 255
VWidth: 0
Flags: HMW
LayerCount: 2
Fore
SplineSet
322 750 m 1
 32 -190 l 1
 145 -190 l 1
 136 -220 l 1
 -10 -220 l 1
 300 780 l 1
 444 780 l 1
 435 750 l 1
 322 750 l 1
EndSplineSet
EndChar

StartChar: bracketright
Encoding: 93 93 88
Width: 255
VWidth: 0
Flags: HMW
LayerCount: 2
Fore
SplineSet
38 -190 m 1
 328 750 l 1
 214 750 l 1
 224 780 l 1
 368 780 l 1
 60 -220 l 1
 -84 -220 l 1
 -75 -190 l 1
 38 -190 l 1
EndSplineSet
EndChar

StartChar: asciicircum
Encoding: 94 94 89
Width: 479
VWidth: 0
Flags: HMW
LayerCount: 2
Fore
SplineSet
416 669 m 1
 197 462 l 1
 161 462 l 1
 420 708 l 1
 432 708 l 1
 522 460 l 1
 492 460 l 1
 416 669 l 1
EndSplineSet
EndChar

StartChar: underscore
Encoding: 95 95 90
Width: 470
VWidth: 0
Flags: HMW
LayerCount: 2
Fore
SplineSet
-94 -116 m 1
 -86 -92 l 1
 385 -92 l 1
 377 -116 l 1
 -94 -116 l 1
EndSplineSet
EndChar

StartChar: grave
Encoding: 96 96 91
Width: 338
VWidth: 0
Flags: HMW
LayerCount: 2
Fore
SplineSet
262 683 m 1
 292 700 l 1
 400 540 l 1
 382 528 l 1
 262 683 l 1
EndSplineSet
EndChar

StartChar: braceleft
Encoding: 123 123 92
Width: 272
VWidth: 0
Flags: HMW
LayerCount: 2
Fore
SplineSet
313 646 m 2
 252 448 l 2
 229 377 198 312 124 286 c 1
 127 294 l 1
 191 260 172 192 154 132 c 2
 92 -66 l 2
 79 -111 68 -172 128 -172 c 2
 152 -172 l 1
 144 -200 l 1
 114 -200 l 2
 36 -200 49 -116 66 -60 c 2
 130 150 l 2
 144 198 151 239 117 278 c 1
 124 302 l 1
 172 333 198 376 216 430 c 2
 280 640 l 2
 302 706 338 779 414 779 c 2
 446 779 l 1
 438 752 l 1
 414 752 l 2
 354 752 330 698 313 646 c 2
EndSplineSet
EndChar

StartChar: braceright
Encoding: 125 125 93
Width: 272
VWidth: 0
Flags: HMW
LayerCount: 2
Fore
SplineSet
72 -66 m 2
 132 132 l 2
 156 203 187 268 261 294 c 1
 258 286 l 1
 194 320 213 388 231 448 c 2
 292 646 l 2
 305 691 317 752 257 752 c 2
 234 752 l 1
 242 780 l 1
 270 780 l 2
 348 780 337 696 320 640 c 2
 254 430 l 2
 240 382 235 341 269 302 c 1
 262 278 l 1
 214 247 188 204 170 150 c 2
 106 -60 l 2
 84 -126 48 -200 -28 -200 c 2
 -60 -200 l 1
 -52 -172 l 1
 -30 -172 l 2
 30 -172 55 -118 72 -66 c 2
EndSplineSet
EndChar

StartChar: asciitilde
Encoding: 126 126 94
Width: 541
VWidth: 0
Flags: HMW
LayerCount: 2
Fore
SplineSet
118 178 m 1
 92 182 l 1
 93 190 93 198 95 206 c 0
 105 235 122 265 144 286 c 0
 169 310 206 326 240 326 c 0
 285 326 310 292 332 258 c 0
 348 232 368 202 402 202 c 0
 450 201 487 250 501 291 c 0
 505 301 506 311 506 321 c 1
 534 318 l 1
 533 309 533 298 530 289 c 0
 522 261 505 230 484 210 c 0
 462 189 428 172 398 173 c 0
 356 174 333 206 312 236 c 0
 294 264 275 297 236 297 c 0
 178 297 138 246 122 200 c 0
 120 193 119 185 118 178 c 1
EndSplineSet
EndChar

StartChar: exclamdown
Encoding: 161 161 95
Width: 282
VWidth: 0
Flags: HMW
LayerCount: 2
Fore
SplineSet
35 -244 m 1
 -5 -244 l 1
 176 254 l 1
 198 254 l 1
 35 -244 l 1
274 442 m 0
 272 432 254 417 243 418 c 0
 231 419 225 431 227 443 c 0
 229 453 247 467 258 466 c 0
 270 465 276 454 274 442 c 0
EndSplineSet
EndChar

StartChar: cent
Encoding: 162 162 96
Width: 545
VWidth: 0
Flags: HMW
LayerCount: 2
Fore
SplineSet
236 8 m 1
 258 8 l 1
 218 -111 l 1
 190 -111 l 1
 236 8 l 1
133 230 m 0
 99 134 135 22 250 20 c 0
 314 20 372 50 423 86 c 1
 411 48 l 1
 361 16 305 -9 245 -9 c 0
 112 -9 66 118 103 230 c 0
 145 355 268 469 404 469 c 0
 456 469 499 450 534 412 c 1
 522 374 l 1
 494 418 453 440 399 440 c 0
 280 440 171 338 133 230 c 0
428 577 m 1
 456 577 l 1
 408 454 l 1
 386 454 l 1
 428 577 l 1
EndSplineSet
EndChar

StartChar: sterling
Encoding: 163 163 97
Width: 545
VWidth: 0
Flags: HMW
LayerCount: 2
Fore
SplineSet
132 324 m 1
 440 324 l 1
 428 295 l 1
 122 295 l 1
 132 324 l 1
557 492 m 1
 574 566 578 675 476 677 c 0
 392 679 308 608 280 532 c 0
 248 440 327 356 298 264 c 0
 263 154 150 82 64 16 c 1
 68 32 l 1
 430 31 l 1
 420 0 l 1
 26 0 l 1
 110 76 229 146 266 260 c 0
 296 354 218 438 248 532 c 0
 279 627 379 711 481 709 c 0
 598 707 605 589 587 501 c 1
 557 492 l 1
EndSplineSet
EndChar

StartChar: currency
Encoding: 164 164 98
Width: 531
VWidth: 0
Flags: HMW
LayerCount: 2
Fore
SplineSet
169 518 m 1
 197 538 l 1
 242 465 l 1
 216 446 l 1
 169 518 l 1
36 62 m 1
 21 86 l 1
 115 154 l 1
 130 132 l 1
 36 62 l 1
521 446 m 1
 506 468 l 1
 600 538 l 1
 614 514 l 1
 521 446 l 1
392 135 m 1
 420 154 l 1
 465 82 l 1
 439 62 l 1
 392 135 l 1
96 300 m 0
 136 422 260 539 394 539 c 0
 526 539 569 410 533 300 c 0
 493 178 369 61 235 61 c 0
 103 61 60 190 96 300 c 0
126 300 m 0
 94 206 125 91 240 90 c 0
 358 89 466 194 502 300 c 0
 534 394 503 509 388 510 c 0
 270 511 162 406 126 300 c 0
EndSplineSet
EndChar

StartChar: yen
Encoding: 165 165 99
Width: 535
VWidth: 0
Flags: HMW
LayerCount: 2
Fore
SplineSet
72 276 m 1
 82 306 l 1
 534 306 l 1
 524 276 l 1
 72 276 l 1
27 144 m 1
 37 173 l 1
 490 173 l 1
 480 144 l 1
 27 144 l 1
642 698 m 1
 680 698 l 1
 312 275 l 1
 217 0 l 1
 184 0 l 1
 282 280 l 1
 210 700 l 1
 244 700 l 1
 306 311 l 1
 642 698 l 1
EndSplineSet
EndChar

StartChar: brokenbar
Encoding: 166 166 100
Width: 215
VWidth: 0
Flags: HMW
LayerCount: 2
Fore
SplineSet
278 694 m 1
 306 694 l 1
 222 456 l 1
 194 456 l 1
 278 694 l 1
152 244 m 1
 68 6 l 1
 40 6 l 1
 124 244 l 1
 152 244 l 1
EndSplineSet
EndChar

StartChar: section
Encoding: 167 167 101
Width: 376
VWidth: 0
Flags: HMW
LayerCount: 2
Fore
SplineSet
477 605 m 1
 459 653 425 679 373 679 c 0
 321 679 250 650 234 596 c 0
 216 536 288 511 330 490 c 0
 380 464 438 428 420 362 c 0
 394 271 301 248 222 242 c 1
 225 251 l 1
 287 273 369 292 388 362 c 0
 404 420 346 448 304 468 c 0
 252 494 182 524 204 596 c 0
 226 666 308 709 378 709 c 0
 441 709 485 680 503 620 c 1
 477 605 l 1
44 137 m 1
 47 70 81 22 152 20 c 0
 210 18 281 49 302 107 c 0
 325 171 264 203 216 228 c 0
 165 256 102 292 122 360 c 0
 148 450 243 470 321 478 c 1
 319 471 l 1
 258 449 174 431 154 362 c 0
 136 300 198 271 242 248 c 0
 298 219 355 180 333 108 c 0
 309 31 222 -11 146 -9 c 0
 64 -7 18 46 16 124 c 1
 44 137 l 1
EndSplineSet
EndChar

StartChar: dieresis
Encoding: 168 168 102
Width: 410
VWidth: 0
Flags: HMW
LayerCount: 2
Fore
SplineSet
452 681 m 0
 454 691 470 705 481 704 c 0
 493 703 500 692 498 680 c 0
 496 670 479 655 468 656 c 0
 456 657 450 669 452 681 c 0
264 681 m 0
 266 691 282 705 293 704 c 0
 305 703 312 692 310 680 c 0
 308 670 291 655 280 656 c 0
 268 657 262 669 264 681 c 0
EndSplineSet
EndChar

StartChar: copyright
Encoding: 169 169 103
Width: 752
VWidth: 0
Flags: HMW
LayerCount: 2
Fore
SplineSet
272 350 m 0
 244 262 273 158 380 156 c 0
 434 154 482 179 526 207 c 1
 518 181 l 1
 474 155 429 135 377 136 c 0
 259 138 220 250 250 350 c 0
 282 460 386 562 506 564 c 0
 552 565 587 548 621 518 c 1
 613 492 l 1
 583 526 550 544 504 544 c 0
 395 544 303 448 272 350 c 0
134 350 m 0
 84 190 158 13 344 12 c 0
 536 11 710 174 766 350 c 0
 816 510 742 687 556 688 c 0
 364 689 190 526 134 350 c 0
110 350 m 0
 168 540 352 711 558 710 c 0
 756 709 842 524 790 350 c 0
 732 160 548 -11 342 -10 c 0
 144 -9 58 176 110 350 c 0
EndSplineSet
EndChar

StartChar: registered
Encoding: 174 174 104
Width: 752
VWidth: 0
Flags: HMW
LayerCount: 2
Fore
SplineSet
410 346 m 1
 431 346 l 1
 504 150 l 1
 480 150 l 1
 410 346 l 1
417 570 m 1
 437 570 l 1
 306 150 l 1
 286 150 l 1
 417 570 l 1
418 552 m 1
 424 570 l 1
 492 570 l 1
 560 566 614 523 592 450 c 0
 570 376 494 337 422 333 c 1
 351 332 l 1
 356 350 l 1
 424 350 l 1
 486 354 553 387 572 451 c 0
 591 513 548 546 490 550 c 1
 418 552 l 1
134 350 m 0
 84 190 158 13 344 12 c 0
 536 11 710 174 766 350 c 0
 816 510 742 687 556 688 c 0
 364 689 190 526 134 350 c 0
110 350 m 0
 168 540 352 711 558 710 c 0
 756 709 842 524 790 350 c 0
 732 160 548 -11 342 -10 c 0
 144 -9 58 176 110 350 c 0
EndSplineSet
EndChar

StartChar: ordfeminine
Encoding: 170 170 105
Width: 223
VWidth: 0
Flags: HMW
LayerCount: 2
Fore
SplineSet
163 529 m 0
 154 499 171 472 202 470 c 0
 248 468 278 510 302 542 c 1
 305 534 l 1
 281 496 248 454 198 456 c 0
 158 458 135 492 148 530 c 0
 162 573 217 603 260 603 c 0
 284 603 300 592 320 579 c 1
 317 568 l 1
 299 580 282 592 260 592 c 0
 224 593 174 565 163 529 c 0
220 658 m 1
 214 670 l 1
 239 684 271 703 301 701 c 0
 343 697 354 665 346 628 c 1
 288 461 l 1
 272 461 l 1
 332 628 l 1
 336 656 334 682 300 686 c 0
 272 689 242 671 220 658 c 1
EndSplineSet
EndChar

StartChar: ordmasculine
Encoding: 186 186 106
Width: 261
VWidth: 0
Flags: HMW
LayerCount: 2
Fore
SplineSet
162 581 m 0
 182 642 248 700 314 699 c 0
 380 698 406 637 388 579 c 0
 368 518 301 460 235 461 c 0
 169 462 144 523 162 581 c 0
180 580 m 0
 164 534 182 482 237 480 c 0
 293 478 352 530 370 580 c 0
 386 626 367 678 312 680 c 0
 256 682 198 630 180 580 c 0
EndSplineSet
EndChar

StartChar: guillemotleft
Encoding: 171 171 107
Width: 462
VWidth: 0
Flags: HMW
LayerCount: 2
Fore
SplineSet
253 256 m 1
 357 38 l 1
 333 20 l 1
 220 258 l 1
 491 488 l 1
 506 470 l 1
 253 256 l 1
102 256 m 1
 206 38 l 1
 182 20 l 1
 70 258 l 1
 340 488 l 1
 356 470 l 1
 102 256 l 1
EndSplineSet
EndChar

StartChar: guillemotright
Encoding: 187 187 108
Width: 462
VWidth: 0
Flags: HMW
LayerCount: 2
Fore
SplineSet
276 254 m 1
 172 472 l 1
 196 490 l 1
 309 252 l 1
 38 22 l 1
 24 40 l 1
 276 254 l 1
427 254 m 1
 323 472 l 1
 346 490 l 1
 459 252 l 1
 188 22 l 1
 174 40 l 1
 427 254 l 1
EndSplineSet
EndChar

StartChar: uni00AD
Encoding: 173 173 109
Width: 197
VWidth: 0
Flags: HMW
LayerCount: 2
Fore
SplineSet
34 246 m 1
 44 275 l 1
 234 275 l 1
 224 246 l 1
 34 246 l 1
EndSplineSet
EndChar

StartChar: logicalnot
Encoding: 172 172 110
Width: 583
VWidth: 0
Flags: HMW
LayerCount: 2
Fore
SplineSet
124 346 m 1
 134 375 l 1
 598 375 l 1
 526 176 l 1
 498 176 l 1
 558 346 l 1
 124 346 l 1
EndSplineSet
EndChar

StartChar: macron
Encoding: 175 175 111
Width: 479
VWidth: 0
Flags: HMW
LayerCount: 2
Fore
SplineSet
240 646 m 1
 249 675 l 1
 579 675 l 1
 570 646 l 1
 240 646 l 1
EndSplineSet
EndChar

StartChar: degree
Encoding: 176 176 112
Width: 261
VWidth: 0
Flags: HMW
LayerCount: 2
Fore
SplineSet
168 601 m 0
 188 662 255 720 321 719 c 0
 387 718 412 657 394 599 c 0
 374 538 308 480 242 481 c 0
 176 482 150 543 168 601 c 0
186 600 m 0
 170 554 189 502 244 500 c 0
 300 498 358 550 376 600 c 0
 392 646 373 698 318 700 c 0
 262 702 204 650 186 600 c 0
EndSplineSet
EndChar

StartChar: plusminus
Encoding: 177 177 113
Width: 574
VWidth: 0
Flags: HMW
LayerCount: 2
Fore
SplineSet
28 0 m 1
 36 31 l 1
 490 31 l 1
 481 0 l 1
 28 0 l 1
141 370 m 1
 150 400 l 1
 604 400 l 1
 595 370 l 1
 141 370 l 1
429 620 m 1
 462 620 l 1
 314 150 l 1
 284 150 l 1
 429 620 l 1
EndSplineSet
EndChar

StartChar: uni00B2
Encoding: 178 178 114
Width: 315
VWidth: 0
Flags: HMW
LayerCount: 2
Fore
SplineSet
68 284 m 1
 318 486 l 2
 352 514 392 548 407 592 c 0
 423 638 405 688 351 690 c 0
 277 694 228 618 199 560 c 1
 180 560 l 1
 212 628 267 710 353 708 c 0
 419 706 444 648 426 590 c 0
 411 543 371 506 334 475 c 2
 116 302 l 1
 338 300 l 1
 332 282 l 1
 68 284 l 1
EndSplineSet
EndChar

StartChar: uni00B3
Encoding: 179 179 115
Width: 290
VWidth: 0
Flags: HMW
LayerCount: 2
Fore
SplineSet
246 496 m 1
 250 508 l 1
 305 518 367 540 388 598 c 0
 404 642 383 685 335 687 c 0
 277 689 238 642 210 598 c 1
 192 598 l 1
 222 653 268 707 337 705 c 0
 396 703 427 651 408 597 c 0
 384 529 311 505 246 496 c 1
190 275 m 0
 116 275 97 327 106 391 c 1
 125 391 l 1
 119 338 129 296 192 294 c 0
 248 292 311 335 328 389 c 0
 348 453 298 479 244 489 c 1
 248 502 l 1
 312 492 371 461 347 386 c 0
 327 322 256 275 190 275 c 0
EndSplineSet
EndChar

StartChar: acute
Encoding: 180 180 116
Width: 338
VWidth: 0
Flags: HMW
LayerCount: 2
Fore
SplineSet
428 680 m 1
 215 530 l 1
 201 542 l 1
 405 698 l 1
 428 680 l 1
EndSplineSet
EndChar

StartChar: mu
Encoding: 181 181 117
Width: 460
VWidth: 0
Flags: HMW
LayerCount: 2
Fore
SplineSet
212 460 m 1
 101 140 l 1
 86 85 92 20 165 20 c 0
 253 19 330 90 356 167 c 2
 458 460 l 1
 488 460 l 1
 330 0 l 1
 298 0 l 1
 333 96 l 1
 293 40 234 -10 154 -9 c 0
 99 -9 78 24 74 62 c 1
 -58 -320 l 1
 -87 -319 l 1
 180 460 l 1
 212 460 l 1
EndSplineSet
EndChar

StartChar: paragraph
Encoding: 182 182 118
Width: 457
VWidth: 0
Flags: HMW
LayerCount: 2
Fore
SplineSet
308 271 m 1
 189 285 127 367 166 486 c 0
 208 614 324 700 454 700 c 2
 588 700 l 1
 272 -219 l 1
 245 -219 l 1
 551 674 l 1
 475 674 l 1
 168 -219 l 1
 140 -219 l 1
 308 271 l 1
EndSplineSet
EndChar

StartChar: periodcentered
Encoding: 183 183 119
Width: 243
VWidth: 0
Flags: HMW
LayerCount: 2
Fore
SplineSet
122 228 m 0
 124 238 141 251 152 250 c 0
 164 249 171 238 169 226 c 0
 167 216 149 202 138 203 c 0
 126 204 120 216 122 228 c 0
EndSplineSet
EndChar

StartChar: uni00B9
Encoding: 185 185 120
Width: 442
VWidth: 0
Flags: HMW
LayerCount: 2
Fore
SplineSet
305 651 m 1
 311 671 l 1
 436 698 l 1
 288 275 l 1
 268 275 l 1
 405 672 l 1
 305 651 l 1
EndSplineSet
EndChar

StartChar: cedilla
Encoding: 184 184 121
Width: 329
VWidth: 0
Flags: HMW
LayerCount: 2
Fore
SplineSet
123 18 m 1
 150 18 l 1
 63 -68 l 1
 79 -61 98 -50 116 -52 c 0
 155 -57 172 -91 162 -128 c 0
 148 -181 82 -220 30 -219 c 0
 -2 -219 -21 -203 -43 -181 c 1
 -25 -166 l 1
 -8 -182 8 -196 34 -196 c 0
 74 -196 128 -166 140 -126 c 0
 148 -98 132 -74 104 -71 c 0
 78 -67 48 -82 24 -92 c 1
 123 18 l 1
EndSplineSet
EndChar

StartChar: questiondown
Encoding: 191 191 122
Width: 513
VWidth: 0
Flags: HMW
LayerCount: 2
Fore
SplineSet
108 186 m 0
 74 101 122 21 214 20 c 0
 294 19 361 70 417 122 c 1
 438 104 l 1
 374 44 298 -11 206 -9 c 0
 96 -7 44 86 78 186 c 0
 118 302 237 361 351 377 c 1
 408 530 l 1
 430 530 l 1
 382 355 l 1
 374 356 l 1
 216 339 136 258 108 186 c 0
499 686 m 0
 497 676 479 663 468 664 c 0
 456 665 450 676 452 688 c 0
 454 698 472 712 483 711 c 0
 495 710 501 698 499 686 c 0
EndSplineSet
EndChar

StartChar: multiply
Encoding: 215 215 123
Width: 548
VWidth: 0
Flags: HMW
LayerCount: 2
Fore
SplineSet
52 40 m 1
 37 64 l 1
 290 256 l 1
 170 450 l 1
 196 470 l 1
 312 275 l 1
 563 469 l 1
 578 446 l 1
 324 253 l 1
 444 59 l 1
 418 39 l 1
 302 234 l 1
 52 40 l 1
EndSplineSet
EndChar

StartChar: Oslash
Encoding: 216 216 124
Width: 743
VWidth: 0
Flags: HMW
LayerCount: 2
Fore
SplineSet
143 350 m 0
 93 204 137 27 318 25 c 0
 503 23 663 185 720 350 c 0
 770 496 727 673 546 675 c 0
 361 677 200 515 143 350 c 0
108 350 m 0
 169 534 348 709 551 708 c 0
 749 707 809 514 755 350 c 0
 694 166 515 -9 312 -8 c 0
 114 -7 54 186 108 350 c 0
860 737 m 1
 880 720 l 1
 10 -37 l 1
 -10 -20 l 1
 860 737 l 1
EndSplineSet
EndChar

StartChar: Thorn
Encoding: 222 222 125
Width: 497
VWidth: 0
Flags: HMW
LayerCount: 2
Fore
SplineSet
260 699 m 1
 292 700 l 1
 50 0 l 1
 20 0 l 1
 260 699 l 1
216 529 m 1
 228 560 l 1
 369 560 l 0
 488 555 564 468 524 350 c 0
 483 226 358 145 230 140 c 0
 84 140 l 1
 95 171 l 1
 236 171 l 0
 345 177 455 244 492 350 c 0
 528 452 464 522 362 528 c 1
 216 529 l 1
EndSplineSet
EndChar

StartChar: divide
Encoding: 247 247 126
Width: 586
VWidth: 0
Flags: HMW
LayerCount: 2
Fore
SplineSet
368 452 m 0
 370 462 387 475 398 474 c 0
 410 473 416 462 414 450 c 0
 412 440 395 426 384 427 c 0
 372 428 366 440 368 452 c 0
228 44 m 0
 230 54 248 67 259 66 c 0
 271 65 278 54 276 42 c 0
 274 32 256 18 245 19 c 0
 233 20 226 32 228 44 c 0
82 232 m 1
 92 263 l 1
 563 263 l 1
 553 232 l 1
 82 232 l 1
EndSplineSet
EndChar

StartChar: oslash
Encoding: 248 248 127
Width: 513
VWidth: 0
Flags: HMW
LayerCount: 2
Fore
SplineSet
62 230 m 0
 102 354 228 469 364 469 c 0
 497 469 543 342 506 230 c 0
 466 106 341 -9 205 -9 c 0
 72 -9 25 118 62 230 c 0
94 230 m 0
 60 134 94 21 210 20 c 0
 329 19 439 122 476 230 c 0
 510 326 475 439 359 440 c 0
 240 441 131 338 94 230 c 0
540 494 m 1
 558 482 l 1
 10 -38 l 1
 -6 -26 l 1
 540 494 l 1
EndSplineSet
EndChar

StartChar: circumflex
Encoding: 710 710 128
Width: 451
VWidth: 0
Flags: HMW
LayerCount: 2
Fore
SplineSet
412 695 m 1
 236 575 l 1
 221 592 l 1
 419 730 l 1
 524 590 l 1
 502 574 l 1
 412 695 l 1
EndSplineSet
EndChar

StartChar: ogonek
Encoding: 731 731 129
Width: 237
VWidth: 0
Flags: HMW
LayerCount: 2
Fore
SplineSet
109 -161 m 1
 118 -182 l 1
 87 -202 56 -219 18 -219 c 0
 -33 -219 -76 -187 -62 -133 c 0
 -42 -56 58 -16 122 14 c 1
 136 0 l 1
 82 -28 -14 -60 -30 -128 c 0
 -38 -166 -12 -189 24 -191 c 0
 54 -193 83 -176 109 -161 c 1
EndSplineSet
EndChar

StartChar: tilde
Encoding: 732 732 130
Width: 498
VWidth: 0
Flags: HMW
LayerCount: 2
Fore
SplineSet
284 644 m 1
 305 674 332 707 373 706 c 0
 413 706 436 659 476 661 c 0
 504 663 526 689 544 707 c 1
 561 692 l 1
 537 667 508 634 470 635 c 0
 432 636 409 680 370 680 c 0
 338 680 319 655 303 631 c 1
 284 644 l 1
EndSplineSet
EndChar

StartChar: ring
Encoding: 730 730 131
Width: 261
VWidth: 0
Flags: HMW
LayerCount: 2
Fore
SplineSet
248 786 m 0
 264 836 323 885 377 884 c 0
 431 883 458 832 442 784 c 0
 426 734 366 685 312 686 c 0
 258 687 232 738 248 786 c 0
268 784 m 0
 256 748 276 709 316 707 c 0
 358 705 408 748 420 786 c 0
 432 822 414 861 374 863 c 0
 332 865 280 822 268 784 c 0
EndSplineSet
EndChar

StartChar: dotaccent
Encoding: 729 729 132
Width: 243
VWidth: 0
Flags: HMW
LayerCount: 2
Fore
SplineSet
304 764 m 0
 304 776 319 788 331 788 c 0
 343 788 352 776 352 764 c 0
 352 752 339 739 327 739 c 0
 315 739 304 752 304 764 c 0
EndSplineSet
EndChar

StartChar: uni2010
Encoding: 8208 8208 133
Width: 197
VWidth: 0
Flags: HMW
LayerCount: 2
Fore
SplineSet
34 246 m 1
 44 275 l 1
 234 275 l 1
 224 246 l 1
 34 246 l 1
EndSplineSet
EndChar

StartChar: endash
Encoding: 8211 8211 134
Width: 696
VWidth: 0
Flags: HMW
LayerCount: 2
Fore
SplineSet
96 246 m 1
 105 275 l 1
 671 275 l 1
 662 246 l 1
 96 246 l 1
EndSplineSet
EndChar

StartChar: figuredash
Encoding: 8210 8210 135
Width: 555
VWidth: 0
Flags: HMW
LayerCount: 2
Fore
SplineSet
96 246 m 1
 105 275 l 1
 530 275 l 1
 520 246 l 1
 96 246 l 1
EndSplineSet
EndChar

StartChar: emdash
Encoding: 8212 8212 136
Width: 837
VWidth: 0
Flags: HMW
LayerCount: 2
Fore
SplineSet
96 246 m 1
 105 275 l 1
 812 275 l 1
 802 246 l 1
 96 246 l 1
EndSplineSet
EndChar

StartChar: minus
Encoding: 8722 8722 137
Width: 555
VWidth: 0
Flags: HMW
LayerCount: 2
Fore
SplineSet
96 246 m 1
 105 275 l 1
 530 275 l 1
 520 246 l 1
 96 246 l 1
EndSplineSet
EndChar

StartChar: quoteright
Encoding: 8217 8217 138
Width: 238
VWidth: 0
Flags: HMW
LayerCount: 2
Fore
SplineSet
330 698 m 1
 368 698 l 1
 194 472 l 1
 171 472 l 1
 330 698 l 1
EndSplineSet
EndChar

StartChar: quoteleft
Encoding: 8216 8216 139
Width: 225
VWidth: 0
Flags: HMW
LayerCount: 2
Fore
SplineSet
200 472 m 1
 162 472 l 1
 335 698 l 1
 359 698 l 1
 200 472 l 1
EndSplineSet
EndChar

StartChar: quotesinglbase
Encoding: 8218 8218 140
Width: 238
VWidth: 0
Flags: HMW
LayerCount: 2
Fore
SplineSet
108 78 m 1
 146 78 l 1
 -27 -148 l 1
 -50 -148 l 1
 108 78 l 1
EndSplineSet
EndChar

StartChar: quotedblleft
Encoding: 8220 8220 141
Width: 387
VWidth: 0
Flags: HMW
LayerCount: 2
Fore
SplineSet
213 472 m 1
 175 472 l 1
 348 698 l 1
 372 698 l 1
 213 472 l 1
362 472 m 1
 324 472 l 1
 496 698 l 1
 521 698 l 1
 362 472 l 1
EndSplineSet
EndChar

StartChar: quotedblright
Encoding: 8221 8221 142
Width: 387
VWidth: 0
Flags: HMW
LayerCount: 2
Fore
SplineSet
316 698 m 1
 354 698 l 1
 182 472 l 1
 158 472 l 1
 316 698 l 1
466 698 m 1
 504 698 l 1
 330 472 l 1
 306 472 l 1
 466 698 l 1
EndSplineSet
EndChar

StartChar: perthousand
Encoding: 8240 8240 143
Width: 1024
VWidth: 0
Flags: HMW
LayerCount: 2
Fore
SplineSet
701 144 m 0
 727 223 808 295 894 295 c 0
 980 295 1012 216 988 142 c 0
 962 63 880 -9 794 -9 c 0
 708 -9 677 70 701 144 c 0
728 143 m 0
 708 85 728 19 798 17 c 0
 868 15 938 79 960 143 c 0
 980 201 959 266 890 268 c 0
 820 270 750 207 728 143 c 0
168 558 m 0
 194 637 274 709 360 709 c 0
 446 709 478 630 454 556 c 0
 428 477 347 405 261 405 c 0
 175 405 144 484 168 558 c 0
195 557 m 0
 175 499 196 433 266 431 c 0
 336 429 404 493 426 557 c 0
 446 615 425 680 356 682 c 0
 286 684 217 621 195 557 c 0
350 144 m 0
 376 223 457 295 543 295 c 0
 629 295 660 216 636 142 c 0
 610 63 530 -9 444 -9 c 0
 358 -9 326 70 350 144 c 0
378 143 m 0
 358 85 377 19 447 17 c 0
 517 15 587 79 609 143 c 0
 629 201 607 266 538 268 c 0
 468 270 400 207 378 143 c 0
720 698 m 1
 752 698 l 1
 84 0 l 1
 52 0 l 1
 720 698 l 1
EndSplineSet
EndChar

StartChar: guilsinglleft
Encoding: 8249 8249 144
Width: 312
VWidth: 0
Flags: HMW
LayerCount: 2
Fore
SplineSet
102 256 m 1
 206 38 l 1
 182 20 l 1
 70 258 l 1
 340 488 l 1
 356 470 l 1
 102 256 l 1
EndSplineSet
EndChar

StartChar: guilsinglright
Encoding: 8250 8250 145
Width: 329
VWidth: 0
Flags: HMW
LayerCount: 2
Fore
SplineSet
292 254 m 1
 188 472 l 1
 212 490 l 1
 325 252 l 1
 54 22 l 1
 40 40 l 1
 292 254 l 1
EndSplineSet
EndChar

StartChar: uni2031
Encoding: 8241 8241 146
Width: 1374
VWidth: 0
Flags: HMW
LayerCount: 2
Fore
SplineSet
1052 144 m 0
 1078 223 1160 295 1246 295 c 0
 1332 295 1362 216 1338 142 c 0
 1312 63 1232 -9 1146 -9 c 0
 1060 -9 1028 70 1052 144 c 0
1080 143 m 0
 1060 85 1080 19 1150 17 c 0
 1220 15 1290 79 1312 143 c 0
 1332 201 1309 266 1240 268 c 0
 1170 270 1102 207 1080 143 c 0
701 144 m 0
 727 223 808 295 894 295 c 0
 980 295 1012 216 988 142 c 0
 962 63 880 -9 794 -9 c 0
 708 -9 677 70 701 144 c 0
728 143 m 0
 708 85 728 19 798 17 c 0
 868 15 938 79 960 143 c 0
 980 201 959 266 890 268 c 0
 820 270 750 207 728 143 c 0
168 558 m 0
 194 637 274 709 360 709 c 0
 446 709 478 630 454 556 c 0
 428 477 347 405 261 405 c 0
 175 405 144 484 168 558 c 0
195 557 m 0
 175 499 196 433 266 431 c 0
 336 429 404 493 426 557 c 0
 446 615 425 680 356 682 c 0
 286 684 217 621 195 557 c 0
350 144 m 0
 376 223 457 295 543 295 c 0
 629 295 660 216 636 142 c 0
 610 63 530 -9 444 -9 c 0
 358 -9 326 70 350 144 c 0
378 143 m 0
 358 85 377 19 447 17 c 0
 517 15 587 79 609 143 c 0
 629 201 607 266 538 268 c 0
 468 270 400 207 378 143 c 0
720 698 m 1
 752 698 l 1
 84 0 l 1
 52 0 l 1
 720 698 l 1
EndSplineSet
EndChar

StartChar: uni203D
Encoding: 8253 8253 147
Width: 524
VWidth: 0
Flags: HMW
LayerCount: 2
Fore
SplineSet
536 514 m 0
 567 600 525 679 430 680 c 0
 350 681 284 630 228 578 c 1
 206 596 l 1
 270 656 346 711 438 709 c 0
 548 707 601 614 567 514 c 0
 529 402 418 338 306 324 c 1
 292 346 l 1
 394 358 498 412 536 514 c 0
340 510 m 1
 378 509 l 1
 252 171 l 1
 230 171 l 1
 340 510 l 1
165 14 m 0
 167 24 185 37 196 36 c 0
 208 35 214 24 212 12 c 0
 210 2 193 -12 182 -11 c 0
 170 -10 163 2 165 14 c 0
EndSplineSet
EndChar

StartChar: Euro
Encoding: 8364 8364 148
Width: 624
VWidth: 0
Flags: HMW
LayerCount: 2
Fore
SplineSet
147 434 m 1
 154 454 l 1
 626 454 l 1
 620 434 l 1
 147 434 l 1
106 314 m 1
 113 334 l 1
 561 334 l 1
 554 314 l 1
 106 314 l 1
215 350 m 0
 173 230 162 24 338 22 c 0
 396 21 450 44 500 70 c 1
 486 30 l 1
 438 8 386 -9 332 -9 c 0
 137 -7 137 212 183 350 c 0
 238 516 380 709 574 709 c 0
 622 709 664 694 704 670 c 1
 691 629 l 1
 655 661 617 679 568 679 c 0
 392 679 266 500 215 350 c 0
EndSplineSet
EndChar

StartChar: fraction
Encoding: 8260 8260 149
Width: 663
VWidth: 0
Flags: HMW
LayerCount: 2
Fore
SplineSet
764 698 m 1
 792 698 l 1
 29 0 l 1
 1 0 l 1
 764 698 l 1
EndSplineSet
EndChar

StartChar: onequarter
Encoding: 188 188 150
Width: 709
VWidth: 0
Flags: HMW
LayerCount: 2
Fore
SplineSet
800 698 m 1
 828 698 l 1
 65 0 l 1
 37 0 l 1
 800 698 l 1
190 651 m 1
 196 671 l 1
 320 698 l 1
 173 275 l 1
 154 275 l 1
 290 672 l 1
 190 651 l 1
351 84 m 1
 371 101 l 1
 567 102 l 1
 572 102 l 1
 642 102 l 1
 637 84 l 1
 351 84 l 1
371 86 m 1
 350 86 l 1
 682 418 l 1
 688 419 l 1
 546 0 l 1
 526 0 l 1
 558 92 l 1
 558 95 l 1
 654 366 l 1
 371 86 l 1
EndSplineSet
EndChar

StartChar: onehalf
Encoding: 189 189 151
Width: 770
VWidth: 0
Flags: HMW
LayerCount: 2
Fore
SplineSet
800 698 m 1
 828 698 l 1
 65 0 l 1
 37 0 l 1
 800 698 l 1
190 651 m 1
 196 671 l 1
 320 698 l 1
 173 275 l 1
 154 275 l 1
 290 672 l 1
 190 651 l 1
412 4 m 1
 662 206 l 2
 696 234 735 267 750 311 c 0
 766 357 748 405 694 409 c 0
 620 413 571 338 542 280 c 1
 523 280 l 1
 555 348 610 430 696 428 c 0
 762 426 788 368 770 310 c 0
 755 263 714 226 677 195 c 2
 460 22 l 1
 682 20 l 1
 676 2 l 1
 412 4 l 1
EndSplineSet
EndChar

StartChar: threequarters
Encoding: 190 190 152
Width: 771
VWidth: 0
Flags: HMW
LayerCount: 2
Fore
SplineSet
863 698 m 1
 892 698 l 1
 128 0 l 1
 100 0 l 1
 863 698 l 1
250 496 m 1
 255 508 l 1
 310 518 373 540 394 598 c 0
 410 642 388 685 340 687 c 0
 282 689 242 642 214 598 c 1
 196 598 l 1
 226 653 273 707 342 705 c 0
 401 703 431 651 412 597 c 0
 388 529 315 505 250 496 c 1
195 275 m 0
 121 275 101 327 110 391 c 1
 129 391 l 1
 123 338 133 296 196 294 c 0
 252 292 316 335 333 389 c 0
 353 453 303 479 249 489 c 1
 254 502 l 1
 318 492 376 461 352 386 c 0
 332 322 261 275 195 275 c 0
414 84 m 1
 434 101 l 1
 630 102 l 1
 634 102 l 1
 705 102 l 1
 700 84 l 1
 414 84 l 1
434 86 m 1
 412 86 l 1
 745 418 l 1
 752 419 l 1
 608 0 l 1
 589 0 l 1
 621 92 l 1
 622 95 l 1
 716 366 l 1
 434 86 l 1
EndSplineSet
EndChar

StartChar: uni2150
Encoding: 8528 8528 153
Width: 792
VWidth: 0
Flags: HMW
LayerCount: 2
Fore
SplineSet
753 698 m 1
 781 698 l 1
 18 0 l 1
 -10 0 l 1
 753 698 l 1
190 651 m 1
 196 671 l 1
 320 698 l 1
 173 275 l 1
 154 275 l 1
 290 672 l 1
 190 651 l 1
574 402 m 1
 579 420 l 1
 851 419 l 1
 503 0 l 1
 481 0 l 1
 813 400 l 1
 574 402 l 1
EndSplineSet
EndChar

StartChar: uni2151
Encoding: 8529 8529 154
Width: 737
VWidth: 0
Flags: HMW
LayerCount: 2
Fore
SplineSet
753 698 m 1
 781 698 l 1
 18 0 l 1
 -10 0 l 1
 753 698 l 1
190 651 m 1
 196 671 l 1
 320 698 l 1
 173 275 l 1
 154 275 l 1
 290 672 l 1
 190 651 l 1
724 288 m 0
 743 343 725 407 658 409 c 0
 590 411 525 348 505 288 c 0
 488 236 506 175 568 172 c 0
 634 169 703 228 724 288 c 0
486 4 m 1
 460 5 l 1
 662 197 l 1
 665 196 l 1
 634 176 600 154 562 156 c 0
 492 158 470 230 488 289 c 0
 510 361 583 429 660 427 c 0
 738 425 764 355 742 288 c 0
 730 253 706 222 681 196 c 1
 486 4 l 1
EndSplineSet
EndChar

StartChar: uni2152
Encoding: 8530 8530 155
Width: 1016
VWidth: 0
Flags: HMW
LayerCount: 2
Fore
SplineSet
753 698 m 1
 781 698 l 1
 18 0 l 1
 -10 0 l 1
 753 698 l 1
190 651 m 1
 196 671 l 1
 320 698 l 1
 173 275 l 1
 154 275 l 1
 290 672 l 1
 190 651 l 1
498 378 m 1
 504 398 l 1
 628 425 l 1
 480 2 l 1
 461 2 l 1
 598 400 l 1
 498 378 l 1
734 210 m 0
 715 155 682 16 776 14 c 0
 870 12 932 136 958 210 c 0
 977 265 1010 404 916 406 c 0
 822 408 760 284 734 210 c 0
714 210 m 0
 742 294 812 426 918 425 c 0
 1026 423 1000 276 978 210 c 0
 950 126 880 -6 774 -5 c 0
 666 -3 692 144 714 210 c 0
EndSplineSet
EndChar

StartChar: onethird
Encoding: 8531 8531 156
Width: 710
VWidth: 0
Flags: HMW
LayerCount: 2
Fore
SplineSet
753 698 m 1
 781 698 l 1
 18 0 l 1
 -10 0 l 1
 753 698 l 1
190 651 m 1
 196 671 l 1
 320 698 l 1
 173 275 l 1
 154 275 l 1
 290 672 l 1
 190 651 l 1
562 216 m 1
 567 228 l 1
 622 238 685 260 706 318 c 0
 722 362 700 405 652 407 c 0
 594 409 554 362 526 318 c 1
 508 318 l 1
 538 373 584 427 653 425 c 0
 712 423 743 371 724 317 c 0
 700 249 627 225 562 216 c 1
506 -5 m 0
 432 -5 413 47 422 111 c 1
 441 111 l 1
 435 58 445 16 508 14 c 0
 564 12 628 55 645 109 c 0
 665 173 614 199 560 209 c 1
 566 222 l 1
 630 212 688 181 664 106 c 0
 644 42 572 -5 506 -5 c 0
EndSplineSet
EndChar

StartChar: twothirds
Encoding: 8532 8532 157
Width: 829
VWidth: 0
Flags: HMW
LayerCount: 2
Fore
SplineSet
873 698 m 1
 901 698 l 1
 137 0 l 1
 109 0 l 1
 873 698 l 1
72 284 m 1
 322 486 l 2
 356 514 395 548 410 592 c 0
 426 638 408 687 354 689 c 0
 280 693 231 618 202 560 c 1
 183 560 l 1
 215 628 270 710 356 708 c 0
 422 706 448 648 430 590 c 0
 415 543 373 506 336 475 c 2
 120 302 l 1
 342 300 l 1
 336 282 l 1
 72 284 l 1
682 216 m 1
 686 228 l 1
 741 238 803 260 824 318 c 0
 840 362 819 405 771 407 c 0
 713 409 674 362 646 318 c 1
 628 318 l 1
 658 373 704 427 773 425 c 0
 832 423 863 371 844 317 c 0
 820 249 747 225 682 216 c 1
626 -5 m 0
 552 -5 533 47 542 111 c 1
 561 111 l 1
 555 58 565 16 628 14 c 0
 684 12 747 55 764 109 c 0
 784 173 734 199 680 209 c 1
 684 222 l 1
 748 212 807 181 783 106 c 0
 763 42 692 -5 626 -5 c 0
EndSplineSet
EndChar

StartChar: uni2155
Encoding: 8533 8533 158
Width: 700
VWidth: 0
Flags: HMW
LayerCount: 2
Fore
SplineSet
753 698 m 1
 781 698 l 1
 18 0 l 1
 -10 0 l 1
 753 698 l 1
190 651 m 1
 196 671 l 1
 320 698 l 1
 173 275 l 1
 154 275 l 1
 290 672 l 1
 190 651 l 1
645 135 m 0
 621 61 548 -7 466 -7 c 0
 408 -7 383 29 369 80 c 1
 387 91 l 1
 398 47 418 13 468 12 c 0
 539 11 604 72 625 136 c 0
 643 188 627 246 565 250 c 0
 515 254 470 222 432 196 c 1
 454 220 l 1
 484 248 531 270 573 268 c 0
 646 266 665 195 645 135 c 0
572 400 m 1
 466 224 l 1
 428 193 l 1
 561 417 l 1
 748 418 l 1
 742 400 l 1
 572 400 l 1
EndSplineSet
EndChar

StartChar: uni2156
Encoding: 8534 8534 159
Width: 819
VWidth: 0
Flags: HMW
LayerCount: 2
Fore
SplineSet
873 698 m 1
 901 698 l 1
 137 0 l 1
 109 0 l 1
 873 698 l 1
72 284 m 1
 322 486 l 2
 356 514 395 548 410 592 c 0
 426 638 408 687 354 689 c 0
 280 693 231 618 202 560 c 1
 183 560 l 1
 215 628 270 710 356 708 c 0
 422 706 448 648 430 590 c 0
 415 543 373 506 336 475 c 2
 120 302 l 1
 342 300 l 1
 336 282 l 1
 72 284 l 1
764 135 m 0
 740 61 668 -7 586 -7 c 0
 528 -7 502 29 488 80 c 1
 507 91 l 1
 518 47 538 13 588 12 c 0
 659 11 723 72 744 136 c 0
 762 188 747 246 685 250 c 0
 635 254 590 222 552 196 c 1
 574 220 l 1
 604 248 651 270 693 268 c 0
 766 266 784 195 764 135 c 0
690 400 m 1
 586 224 l 1
 546 193 l 1
 680 417 l 1
 866 418 l 1
 861 400 l 1
 690 400 l 1
EndSplineSet
EndChar

StartChar: uni2157
Encoding: 8535 8535 160
Width: 781
VWidth: 0
Flags: HMW
LayerCount: 2
Fore
SplineSet
835 698 m 1
 863 698 l 1
 100 0 l 1
 72 0 l 1
 835 698 l 1
250 496 m 1
 255 508 l 1
 310 518 373 540 394 598 c 0
 410 642 388 685 340 687 c 0
 282 689 242 642 214 598 c 1
 196 598 l 1
 226 653 273 707 342 705 c 0
 401 703 431 651 412 597 c 0
 388 529 315 505 250 496 c 1
195 275 m 0
 121 275 101 327 110 391 c 1
 129 391 l 1
 123 338 133 296 196 294 c 0
 252 292 316 335 333 389 c 0
 353 453 303 479 249 489 c 1
 254 502 l 1
 318 492 376 461 352 386 c 0
 332 322 261 275 195 275 c 0
727 135 m 0
 703 61 630 -7 548 -7 c 0
 490 -7 465 29 451 80 c 1
 469 91 l 1
 480 47 500 13 550 12 c 0
 621 11 686 72 707 136 c 0
 725 188 709 246 647 250 c 0
 597 254 552 222 514 196 c 1
 536 220 l 1
 566 248 613 270 655 268 c 0
 728 266 747 195 727 135 c 0
652 400 m 1
 548 224 l 1
 510 193 l 1
 642 417 l 1
 830 418 l 1
 824 400 l 1
 652 400 l 1
EndSplineSet
EndChar

StartChar: uni2158
Encoding: 8536 8536 161
Width: 814
VWidth: 0
Flags: HMW
LayerCount: 2
Fore
SplineSet
868 698 m 1
 896 698 l 1
 133 0 l 1
 104 0 l 1
 868 698 l 1
102 364 m 1
 122 381 l 1
 318 382 l 1
 322 382 l 1
 394 382 l 1
 388 364 l 1
 102 364 l 1
122 366 m 1
 100 366 l 1
 433 698 l 1
 441 699 l 1
 296 281 l 1
 276 281 l 1
 308 372 l 1
 309 375 l 1
 404 646 l 1
 122 366 l 1
760 135 m 0
 736 61 663 -7 581 -7 c 0
 523 -7 498 29 484 80 c 1
 502 91 l 1
 513 47 532 13 582 12 c 0
 653 11 719 72 740 136 c 0
 758 188 742 246 680 250 c 0
 630 254 584 222 546 196 c 1
 568 220 l 1
 598 248 646 270 688 268 c 0
 761 266 780 195 760 135 c 0
686 400 m 1
 580 224 l 1
 542 193 l 1
 676 417 l 1
 862 418 l 1
 856 400 l 1
 686 400 l 1
EndSplineSet
EndChar

StartChar: uni2159
Encoding: 8537 8537 162
Width: 690
VWidth: 0
Flags: HMW
LayerCount: 2
Fore
SplineSet
753 698 m 1
 781 698 l 1
 18 0 l 1
 -10 0 l 1
 753 698 l 1
190 651 m 1
 196 671 l 1
 320 698 l 1
 173 275 l 1
 154 275 l 1
 290 672 l 1
 190 651 l 1
410 132 m 0
 391 77 408 13 475 11 c 0
 543 9 608 72 628 132 c 0
 645 184 628 245 566 248 c 0
 500 251 431 192 410 132 c 0
648 416 m 1
 674 415 l 1
 472 223 l 1
 469 224 l 1
 500 244 534 266 572 264 c 0
 642 262 664 190 646 131 c 0
 624 59 552 -9 474 -7 c 0
 396 -5 369 65 391 132 c 0
 403 167 428 198 453 224 c 1
 648 416 l 1
EndSplineSet
EndChar

StartChar: uni215A
Encoding: 8538 8538 163
Width: 805
VWidth: 0
Flags: HMW
LayerCount: 2
Fore
SplineSet
868 698 m 1
 896 698 l 1
 133 0 l 1
 104 0 l 1
 868 698 l 1
375 415 m 0
 351 341 278 273 196 273 c 0
 138 273 114 309 100 360 c 1
 118 371 l 1
 129 327 148 293 198 292 c 0
 269 291 334 352 355 416 c 0
 373 468 358 526 296 530 c 0
 246 534 200 502 162 476 c 1
 184 500 l 1
 214 528 262 550 304 548 c 0
 377 546 395 475 375 415 c 0
302 680 m 1
 196 504 l 1
 158 473 l 1
 291 697 l 1
 478 698 l 1
 472 680 l 1
 302 680 l 1
524 132 m 0
 505 77 523 13 590 11 c 0
 658 9 723 72 743 132 c 0
 760 184 742 245 680 248 c 0
 614 251 545 192 524 132 c 0
762 416 m 1
 788 415 l 1
 586 223 l 1
 584 224 l 1
 615 244 649 266 687 264 c 0
 757 262 780 190 762 131 c 0
 740 59 666 -9 588 -7 c 0
 510 -5 484 65 506 132 c 0
 518 167 542 198 567 224 c 1
 762 416 l 1
EndSplineSet
EndChar

StartChar: oneeighth
Encoding: 8539 8539 164
Width: 715
VWidth: 0
Flags: HMW
LayerCount: 2
Fore
SplineSet
753 698 m 1
 781 698 l 1
 18 0 l 1
 -10 0 l 1
 753 698 l 1
190 651 m 1
 196 671 l 1
 320 698 l 1
 173 275 l 1
 154 275 l 1
 290 672 l 1
 190 651 l 1
511 324 m 0
 529 377 590 426 646 425 c 0
 702 424 732 372 716 322 c 0
 699 268 636 218 579 220 c 0
 523 221 495 274 511 324 c 0
528 322 m 0
 514 283 534 234 579 232 c 0
 625 230 682 279 696 321 c 0
 710 362 690 406 644 408 c 0
 597 410 542 366 528 322 c 0
426 113 m 0
 446 173 514 227 578 226 c 0
 641 226 673 169 656 111 c 0
 638 49 568 -7 502 -5 c 0
 436 -3 406 54 426 113 c 0
446 114 m 0
 428 66 448 14 504 12 c 0
 561 10 621 61 638 114 c 0
 653 160 631 210 578 212 c 0
 523 214 464 164 446 114 c 0
EndSplineSet
EndChar

StartChar: threeeighths
Encoding: 8540 8540 165
Width: 796
VWidth: 0
Flags: HMW
LayerCount: 2
Fore
SplineSet
835 698 m 1
 863 698 l 1
 100 0 l 1
 72 0 l 1
 835 698 l 1
250 496 m 1
 255 508 l 1
 310 518 373 540 394 598 c 0
 410 642 388 685 340 687 c 0
 282 689 242 642 214 598 c 1
 196 598 l 1
 226 653 273 707 342 705 c 0
 401 703 431 651 412 597 c 0
 388 529 315 505 250 496 c 1
195 275 m 0
 121 275 101 327 110 391 c 1
 129 391 l 1
 123 338 133 296 196 294 c 0
 252 292 316 335 333 389 c 0
 353 453 303 479 249 489 c 1
 254 502 l 1
 318 492 376 461 352 386 c 0
 332 322 261 275 195 275 c 0
592 324 m 0
 610 377 672 426 728 425 c 0
 784 424 814 372 798 322 c 0
 781 268 718 218 661 220 c 0
 605 221 576 274 592 324 c 0
610 322 m 0
 596 283 616 234 661 232 c 0
 707 230 764 279 778 321 c 0
 792 362 772 406 726 408 c 0
 679 410 624 366 610 322 c 0
508 113 m 0
 528 173 596 227 660 226 c 0
 723 226 755 169 738 111 c 0
 720 49 650 -7 584 -5 c 0
 518 -3 488 54 508 113 c 0
528 114 m 0
 510 66 530 14 586 12 c 0
 643 10 703 61 720 114 c 0
 735 160 713 210 660 212 c 0
 605 214 546 164 528 114 c 0
EndSplineSet
EndChar

StartChar: fiveeighths
Encoding: 8541 8541 166
Width: 829
VWidth: 0
Flags: HMW
LayerCount: 2
Fore
SplineSet
868 698 m 1
 896 698 l 1
 133 0 l 1
 104 0 l 1
 868 698 l 1
375 415 m 0
 351 341 278 273 196 273 c 0
 138 273 114 309 100 360 c 1
 118 371 l 1
 129 327 148 293 198 292 c 0
 269 291 334 352 355 416 c 0
 373 468 358 526 296 530 c 0
 246 534 200 502 162 476 c 1
 184 500 l 1
 214 528 262 550 304 548 c 0
 377 546 395 475 375 415 c 0
302 680 m 1
 196 504 l 1
 158 473 l 1
 291 697 l 1
 478 698 l 1
 472 680 l 1
 302 680 l 1
626 324 m 0
 644 377 706 426 762 425 c 0
 818 424 846 372 830 322 c 0
 813 268 751 218 694 220 c 0
 638 221 610 274 626 324 c 0
644 322 m 0
 630 283 649 234 694 232 c 0
 740 230 798 279 812 321 c 0
 826 362 806 406 760 408 c 0
 713 410 658 366 644 322 c 0
542 113 m 0
 562 173 628 227 692 226 c 0
 755 226 787 169 770 111 c 0
 752 49 683 -7 617 -5 c 0
 551 -3 522 54 542 113 c 0
560 114 m 0
 542 66 563 14 619 12 c 0
 676 10 735 61 752 114 c 0
 767 160 746 210 693 212 c 0
 638 214 578 164 560 114 c 0
EndSplineSet
EndChar

StartChar: seveneighths
Encoding: 8542 8542 167
Width: 726
VWidth: 0
Flags: HMW
LayerCount: 2
Fore
SplineSet
764 698 m 1
 792 698 l 1
 29 0 l 1
 1 0 l 1
 764 698 l 1
210 682 m 1
 215 700 l 1
 487 699 l 1
 139 282 l 1
 118 282 l 1
 449 680 l 1
 210 682 l 1
522 324 m 0
 540 377 602 426 658 425 c 0
 714 424 742 372 726 322 c 0
 709 268 647 218 590 220 c 0
 534 221 506 274 522 324 c 0
540 322 m 0
 526 283 546 234 591 232 c 0
 637 230 694 279 708 321 c 0
 722 362 702 406 656 408 c 0
 609 410 554 366 540 322 c 0
438 113 m 0
 458 173 526 227 590 226 c 0
 653 226 683 169 666 111 c 0
 648 49 580 -7 514 -5 c 0
 448 -3 418 54 438 113 c 0
456 114 m 0
 438 66 460 14 516 12 c 0
 573 10 632 61 649 114 c 0
 664 160 643 210 590 212 c 0
 535 214 474 164 456 114 c 0
EndSplineSet
EndChar

StartChar: uni2074
Encoding: 8308 8308 168
Width: 353
VWidth: 0
Flags: HMW
LayerCount: 2
Fore
SplineSet
102 364 m 1
 122 381 l 1
 318 382 l 1
 322 382 l 1
 394 382 l 1
 388 364 l 1
 102 364 l 1
122 366 m 1
 100 366 l 1
 433 698 l 1
 441 699 l 1
 296 281 l 1
 276 281 l 1
 308 372 l 1
 309 375 l 1
 404 646 l 1
 122 366 l 1
EndSplineSet
EndChar

StartChar: uni2075
Encoding: 8309 8309 169
Width: 324
VWidth: 0
Flags: HMW
LayerCount: 2
Fore
SplineSet
375 415 m 0
 351 341 278 273 196 273 c 0
 138 273 114 309 100 360 c 1
 118 371 l 1
 129 327 148 293 198 292 c 0
 269 291 334 352 355 416 c 0
 373 468 358 526 296 530 c 0
 246 534 200 502 162 476 c 1
 184 500 l 1
 214 528 262 550 304 548 c 0
 377 546 395 475 375 415 c 0
302 680 m 1
 196 504 l 1
 158 473 l 1
 291 697 l 1
 478 698 l 1
 472 680 l 1
 302 680 l 1
EndSplineSet
EndChar

StartChar: uni2076
Encoding: 8310 8310 170
Width: 315
VWidth: 0
Flags: HMW
LayerCount: 2
Fore
SplineSet
140 412 m 0
 121 357 139 293 206 291 c 0
 274 289 339 352 359 412 c 0
 376 464 358 525 296 528 c 0
 230 531 161 472 140 412 c 0
378 696 m 1
 404 695 l 1
 202 503 l 1
 199 504 l 1
 230 524 264 546 302 544 c 0
 372 542 394 470 376 411 c 0
 354 339 282 271 204 273 c 0
 126 275 100 345 122 412 c 0
 134 447 158 478 183 504 c 1
 378 696 l 1
EndSplineSet
EndChar

StartChar: uni2077
Encoding: 8311 8311 171
Width: 331
VWidth: 0
Flags: HMW
LayerCount: 2
Fore
SplineSet
210 682 m 1
 215 700 l 1
 487 699 l 1
 139 282 l 1
 118 282 l 1
 449 680 l 1
 210 682 l 1
EndSplineSet
EndChar

StartChar: uni2078
Encoding: 8312 8312 172
Width: 289
VWidth: 0
Flags: HMW
LayerCount: 2
Fore
SplineSet
194 604 m 0
 212 657 274 706 330 705 c 0
 386 704 414 652 398 602 c 0
 381 548 319 498 262 500 c 0
 206 501 178 554 194 604 c 0
212 602 m 0
 198 563 218 514 263 512 c 0
 309 510 366 559 380 601 c 0
 394 642 374 686 328 688 c 0
 281 690 226 646 212 602 c 0
110 393 m 0
 130 453 198 507 262 506 c 0
 325 506 356 449 339 391 c 0
 321 329 252 273 186 275 c 0
 120 277 90 334 110 393 c 0
129 394 m 0
 111 346 132 294 188 292 c 0
 245 290 304 341 321 394 c 0
 336 440 315 490 262 492 c 0
 207 494 147 444 129 394 c 0
EndSplineSet
EndChar

StartChar: uni2079
Encoding: 8313 8313 173
Width: 315
VWidth: 0
Flags: HMW
LayerCount: 2
Fore
SplineSet
408 568 m 0
 427 623 409 687 342 689 c 0
 274 691 209 628 189 568 c 0
 172 516 190 455 252 452 c 0
 318 449 387 508 408 568 c 0
170 284 m 1
 144 285 l 1
 346 477 l 1
 348 476 l 1
 317 456 284 434 246 436 c 0
 176 438 152 510 170 569 c 0
 192 641 267 709 344 707 c 0
 422 705 448 635 426 568 c 0
 414 533 389 502 364 476 c 1
 170 284 l 1
EndSplineSet
EndChar

StartChar: uni2070
Encoding: 8304 8304 174
Width: 317
VWidth: 0
Flags: HMW
LayerCount: 2
Fore
SplineSet
164 490 m 0
 145 435 112 296 206 294 c 0
 300 292 362 416 388 490 c 0
 407 545 440 684 346 686 c 0
 252 688 190 564 164 490 c 0
143 490 m 0
 171 574 241 706 347 705 c 0
 455 703 430 556 408 490 c 0
 380 406 310 274 204 275 c 0
 96 277 121 424 143 490 c 0
EndSplineSet
EndChar

StartChar: uni2080
Encoding: 8320 8320 175
Width: 324
VWidth: 0
Flags: HMW
LayerCount: 2
Fore
SplineSet
68 210 m 0
 49 155 16 16 110 14 c 0
 204 12 266 136 292 210 c 0
 311 265 344 404 250 406 c 0
 156 408 94 284 68 210 c 0
48 210 m 0
 76 294 145 426 251 425 c 0
 359 423 334 276 312 210 c 0
 284 126 214 -6 108 -5 c 0
 0 -3 26 144 48 210 c 0
EndSplineSet
EndChar

StartChar: uni2084
Encoding: 8324 8324 176
Width: 353
VWidth: 0
Flags: HMW
LayerCount: 2
Fore
SplineSet
6 84 m 1
 26 101 l 1
 222 102 l 1
 226 102 l 1
 298 102 l 1
 292 84 l 1
 6 84 l 1
26 86 m 1
 5 86 l 1
 338 418 l 1
 346 419 l 1
 200 0 l 1
 181 0 l 1
 212 92 l 1
 214 95 l 1
 309 366 l 1
 26 86 l 1
EndSplineSet
EndChar

StartChar: uni2085
Encoding: 8325 8325 177
Width: 324
VWidth: 0
Flags: HMW
LayerCount: 2
Fore
SplineSet
280 135 m 0
 256 61 183 -7 101 -7 c 0
 43 -7 18 29 4 80 c 1
 22 91 l 1
 33 47 52 13 102 12 c 0
 173 11 239 72 260 136 c 0
 278 188 262 246 200 250 c 0
 150 254 104 222 66 196 c 1
 90 220 l 1
 120 248 166 270 208 268 c 0
 281 266 300 195 280 135 c 0
206 400 m 1
 100 224 l 1
 62 193 l 1
 196 417 l 1
 382 418 l 1
 376 400 l 1
 206 400 l 1
EndSplineSet
EndChar

StartChar: uni2086
Encoding: 8326 8326 178
Width: 315
VWidth: 0
Flags: HMW
LayerCount: 2
Fore
SplineSet
44 132 m 0
 25 77 42 13 109 11 c 0
 177 9 242 72 262 132 c 0
 279 184 262 245 200 248 c 0
 134 251 65 192 44 132 c 0
282 416 m 1
 308 415 l 1
 106 223 l 1
 103 224 l 1
 134 244 168 266 206 264 c 0
 276 262 299 190 281 131 c 0
 259 59 186 -9 108 -7 c 0
 30 -5 4 65 26 132 c 0
 38 167 63 198 88 224 c 1
 282 416 l 1
EndSplineSet
EndChar

StartChar: uni2087
Encoding: 8327 8327 179
Width: 331
VWidth: 0
Flags: HMW
LayerCount: 2
Fore
SplineSet
114 402 m 1
 120 420 l 1
 392 419 l 1
 43 0 l 1
 22 0 l 1
 353 400 l 1
 114 402 l 1
EndSplineSet
EndChar

StartChar: uni2088
Encoding: 8328 8328 180
Width: 289
VWidth: 0
Flags: HMW
LayerCount: 2
Fore
SplineSet
98 324 m 0
 116 377 178 426 234 425 c 0
 290 424 320 372 304 322 c 0
 287 268 224 218 167 220 c 0
 111 221 82 274 98 324 c 0
116 322 m 0
 102 283 122 234 167 232 c 0
 213 230 270 279 284 321 c 0
 298 362 278 406 232 408 c 0
 185 410 130 366 116 322 c 0
14 113 m 0
 34 173 102 227 166 226 c 0
 229 226 261 169 244 111 c 0
 226 49 156 -7 90 -5 c 0
 24 -3 -6 54 14 113 c 0
34 114 m 0
 16 66 36 14 92 12 c 0
 149 10 209 61 226 114 c 0
 241 160 219 210 166 212 c 0
 111 214 52 164 34 114 c 0
EndSplineSet
EndChar

StartChar: uni2089
Encoding: 8329 8329 181
Width: 315
VWidth: 0
Flags: HMW
LayerCount: 2
Fore
SplineSet
306 288 m 0
 325 343 309 407 242 409 c 0
 174 411 108 348 88 288 c 0
 71 236 90 175 152 172 c 0
 218 169 285 228 306 288 c 0
69 4 m 1
 44 5 l 1
 246 197 l 1
 248 196 l 1
 217 176 183 154 145 156 c 0
 75 158 52 230 70 289 c 0
 92 361 167 429 244 427 c 0
 322 425 347 355 325 288 c 0
 313 253 289 222 264 196 c 1
 69 4 l 1
EndSplineSet
EndChar

StartChar: uni2081
Encoding: 8321 8321 182
Width: 277
VWidth: 0
Flags: HMW
LayerCount: 2
Fore
SplineSet
163 378 m 1
 169 398 l 1
 293 425 l 1
 146 2 l 1
 126 2 l 1
 263 400 l 1
 163 378 l 1
EndSplineSet
EndChar

StartChar: uni2082
Encoding: 8322 8322 183
Width: 315
VWidth: 0
Flags: HMW
LayerCount: 2
Fore
SplineSet
-27 4 m 1
 224 206 l 2
 258 234 297 268 312 312 c 0
 328 358 310 408 256 410 c 0
 182 414 133 338 104 280 c 1
 84 280 l 1
 116 348 171 430 257 428 c 0
 323 426 348 368 330 310 c 0
 315 263 275 226 238 195 c 2
 22 22 l 1
 242 20 l 1
 236 2 l 1
 -27 4 l 1
EndSplineSet
EndChar

StartChar: uni2083
Encoding: 8323 8323 184
Width: 297
VWidth: 0
Flags: HMW
LayerCount: 2
Fore
SplineSet
150 216 m 1
 154 228 l 1
 209 238 273 260 294 318 c 0
 310 362 288 405 240 407 c 0
 182 409 142 362 114 318 c 1
 96 318 l 1
 126 373 172 427 241 425 c 0
 300 423 331 371 312 317 c 0
 288 249 215 225 150 216 c 1
94 -5 m 0
 20 -5 1 47 10 111 c 1
 29 111 l 1
 23 58 33 16 96 14 c 0
 152 12 216 55 233 109 c 0
 253 173 202 199 148 209 c 1
 154 222 l 1
 218 212 276 181 252 106 c 0
 232 42 160 -5 94 -5 c 0
EndSplineSet
EndChar

StartChar: Agrave
Encoding: 192 192 185
Width: 580
VWidth: 0
Flags: HMW
LayerCount: 2
Fore
SplineSet
158 254 m 1
 176 284 l 1
 492 284 l 1
 490 254 l 1
 158 254 l 1
460 644 m 1
 190 273 l 1
 184 265 l 1
 -8 0 l 1
 -46 0 l 1
 483 722 l 1
 516 0 l 1
 480 0 l 1
 472 263 l 1
 472 271 l 1
 460 644 l 1
428 936 m 1
 460 953 l 1
 563 793 l 1
 544 782 l 1
 428 936 l 1
EndSplineSet
EndChar

StartChar: Aacute
Encoding: 193 193 186
Width: 580
VWidth: 0
Flags: HMW
LayerCount: 2
Fore
SplineSet
158 254 m 1
 176 284 l 1
 492 284 l 1
 490 254 l 1
 158 254 l 1
460 644 m 1
 190 273 l 1
 184 265 l 1
 -8 0 l 1
 -46 0 l 1
 483 722 l 1
 516 0 l 1
 480 0 l 1
 472 263 l 1
 472 271 l 1
 460 644 l 1
684 933 m 1
 464 783 l 1
 452 796 l 1
 661 952 l 1
 684 933 l 1
EndSplineSet
EndChar

StartChar: Acircumflex
Encoding: 194 194 187
Width: 580
VWidth: 0
Flags: HMW
LayerCount: 2
Fore
SplineSet
158 254 m 1
 176 284 l 1
 492 284 l 1
 490 254 l 1
 158 254 l 1
460 644 m 1
 190 273 l 1
 184 265 l 1
 -8 0 l 1
 -46 0 l 1
 483 722 l 1
 516 0 l 1
 480 0 l 1
 472 263 l 1
 472 271 l 1
 460 644 l 1
544 891 m 1
 368 770 l 1
 352 788 l 1
 551 925 l 1
 656 786 l 1
 633 770 l 1
 544 891 l 1
EndSplineSet
EndChar

StartChar: Atilde
Encoding: 195 195 188
Width: 580
VWidth: 0
Flags: HMW
LayerCount: 2
Fore
SplineSet
158 254 m 1
 176 284 l 1
 492 284 l 1
 490 254 l 1
 158 254 l 1
460 644 m 1
 190 273 l 1
 184 265 l 1
 -8 0 l 1
 -46 0 l 1
 483 722 l 1
 516 0 l 1
 480 0 l 1
 472 263 l 1
 472 271 l 1
 460 644 l 1
379 802 m 1
 401 832 428 866 470 865 c 0
 516 865 531 818 571 820 c 0
 599 822 623 848 642 866 c 1
 658 850 l 1
 634 826 604 793 566 794 c 0
 520 795 506 841 467 839 c 0
 435 837 416 812 398 790 c 1
 379 802 l 1
EndSplineSet
EndChar

StartChar: Adieresis
Encoding: 196 196 189
Width: 580
VWidth: 0
Flags: HMW
LayerCount: 2
Fore
SplineSet
158 254 m 1
 176 284 l 1
 492 284 l 1
 490 254 l 1
 158 254 l 1
460 644 m 1
 190 273 l 1
 184 265 l 1
 -8 0 l 1
 -46 0 l 1
 483 722 l 1
 516 0 l 1
 480 0 l 1
 472 263 l 1
 472 271 l 1
 460 644 l 1
588 820 m 0
 590 830 607 844 618 843 c 0
 630 842 636 830 634 818 c 0
 632 808 614 795 603 796 c 0
 591 797 586 808 588 820 c 0
398 820 m 0
 400 830 418 844 429 843 c 0
 441 842 448 830 446 818 c 0
 444 808 426 795 415 796 c 0
 403 797 396 808 398 820 c 0
EndSplineSet
EndChar

StartChar: Aring
Encoding: 197 197 190
Width: 580
VWidth: 0
Flags: HMW
LayerCount: 2
Fore
SplineSet
158 254 m 1
 176 284 l 1
 492 284 l 1
 490 254 l 1
 158 254 l 1
460 644 m 1
 190 273 l 1
 184 265 l 1
 -8 0 l 1
 -46 0 l 1
 483 722 l 1
 516 0 l 1
 480 0 l 1
 472 263 l 1
 472 271 l 1
 460 644 l 1
414 806 m 0
 430 856 490 905 544 904 c 0
 598 903 624 852 608 804 c 0
 592 754 532 705 478 706 c 0
 424 707 398 758 414 806 c 0
436 804 m 0
 424 768 442 729 482 727 c 0
 524 725 575 768 587 806 c 0
 599 842 580 881 540 883 c 0
 498 885 448 842 436 804 c 0
EndSplineSet
EndChar

StartChar: AE
Encoding: 198 198 191
Width: 861
VWidth: 0
Flags: HMW
LayerCount: 2
Fore
SplineSet
232 260 m 1
 242 290 l 1
 520 290 l 1
 508 259 l 1
 232 260 l 1
628 700 m 1
 652 685 l 1
 -14 0 l 1
 -50 0 l 1
 628 700 l 1
424 0 m 1
 436 31 l 1
 746 31 l 1
 736 0 l 1
 424 0 l 1
660 669 m 1
 628 700 l 1
 974 700 l 1
 964 669 l 1
 660 669 l 1
551 371 m 1
 562 402 l 1
 854 402 l 1
 844 371 l 1
 551 371 l 1
646 699 m 1
 680 700 l 1
 438 0 l 1
 406 0 l 1
 646 699 l 1
EndSplineSet
EndChar

StartChar: Ccedilla
Encoding: 199 199 192
Width: 644
VWidth: 0
Flags: HMW
LayerCount: 2
Fore
SplineSet
144 350 m 0
 94 206 134 29 312 26 c 0
 402 24 485 65 558 114 c 1
 543 70 l 1
 471 24 392 -9 306 -8 c 0
 108 -6 54 188 108 350 c 0
 169 534 344 706 546 708 c 0
 622 709 682 684 734 630 c 1
 719 586 l 1
 675 647 614 674 539 674 c 0
 355 672 201 514 144 350 c 0
304 16 m 1
 332 16 l 1
 244 -69 l 1
 260 -62 280 -52 298 -54 c 0
 336 -59 354 -92 344 -128 c 0
 330 -180 264 -220 212 -220 c 0
 180 -220 161 -204 139 -182 c 1
 157 -167 l 1
 174 -183 190 -197 216 -197 c 0
 256 -197 308 -166 320 -126 c 0
 328 -98 314 -75 286 -72 c 0
 260 -68 230 -84 206 -94 c 1
 304 16 l 1
EndSplineSet
EndChar

StartChar: Egrave
Encoding: 200 200 193
Width: 490
VWidth: 0
Flags: HMW
LayerCount: 2
Fore
SplineSet
42 0 m 1
 52 31 l 1
 376 31 l 1
 366 0 l 1
 42 0 l 1
271 670 m 1
 281 700 l 1
 604 700 l 1
 594 669 l 1
 271 670 l 1
168 371 m 1
 180 402 l 1
 484 402 l 1
 474 371 l 1
 168 371 l 1
266 699 m 1
 300 700 l 1
 58 0 l 1
 27 0 l 1
 266 699 l 1
371 924 m 1
 402 940 l 1
 505 780 l 1
 487 770 l 1
 371 924 l 1
EndSplineSet
EndChar

StartChar: Eacute
Encoding: 201 201 194
Width: 490
VWidth: 0
Flags: HMW
LayerCount: 2
Fore
SplineSet
42 0 m 1
 52 31 l 1
 376 31 l 1
 366 0 l 1
 42 0 l 1
271 670 m 1
 281 700 l 1
 604 700 l 1
 594 669 l 1
 271 670 l 1
168 371 m 1
 180 402 l 1
 484 402 l 1
 474 371 l 1
 168 371 l 1
266 699 m 1
 300 700 l 1
 58 0 l 1
 27 0 l 1
 266 699 l 1
652 920 m 1
 433 770 l 1
 420 784 l 1
 630 940 l 1
 652 920 l 1
EndSplineSet
EndChar

StartChar: Ecircumflex
Encoding: 202 202 195
Width: 490
VWidth: 0
Flags: HMW
LayerCount: 2
Fore
SplineSet
42 0 m 1
 52 31 l 1
 376 31 l 1
 366 0 l 1
 42 0 l 1
271 670 m 1
 281 700 l 1
 604 700 l 1
 594 669 l 1
 271 670 l 1
168 371 m 1
 180 402 l 1
 484 402 l 1
 474 371 l 1
 168 371 l 1
266 699 m 1
 300 700 l 1
 58 0 l 1
 27 0 l 1
 266 699 l 1
506 890 m 1
 330 770 l 1
 315 788 l 1
 513 925 l 1
 618 785 l 1
 596 769 l 1
 506 890 l 1
EndSplineSet
EndChar

StartChar: Edieresis
Encoding: 203 203 196
Width: 490
VWidth: 0
Flags: HMW
LayerCount: 2
Fore
SplineSet
42 0 m 1
 52 31 l 1
 376 31 l 1
 366 0 l 1
 42 0 l 1
271 670 m 1
 281 700 l 1
 604 700 l 1
 594 669 l 1
 271 670 l 1
168 371 m 1
 180 402 l 1
 484 402 l 1
 474 371 l 1
 168 371 l 1
266 699 m 1
 300 700 l 1
 58 0 l 1
 27 0 l 1
 266 699 l 1
548 814 m 0
 550 824 567 837 578 836 c 0
 590 835 596 824 594 812 c 0
 592 802 575 788 564 789 c 0
 552 790 546 802 548 814 c 0
358 814 m 0
 360 824 378 837 389 836 c 0
 401 835 408 824 406 812 c 0
 404 802 387 788 376 789 c 0
 364 790 356 802 358 814 c 0
EndSplineSet
EndChar

StartChar: Igrave
Encoding: 204 204 197
Width: 187
VWidth: 0
Flags: HMW
LayerCount: 2
Fore
SplineSet
264 699 m 1
 296 700 l 1
 54 0 l 1
 24 0 l 1
 264 699 l 1
214 924 m 1
 246 940 l 1
 348 780 l 1
 330 770 l 1
 214 924 l 1
EndSplineSet
EndChar

StartChar: Iacute
Encoding: 205 205 198
Width: 187
VWidth: 0
Flags: HMW
LayerCount: 2
Fore
SplineSet
264 699 m 1
 296 700 l 1
 54 0 l 1
 24 0 l 1
 264 699 l 1
495 920 m 1
 276 770 l 1
 264 784 l 1
 474 940 l 1
 495 920 l 1
EndSplineSet
EndChar

StartChar: Icircumflex
Encoding: 206 206 199
Width: 187
VWidth: 0
Flags: HMW
LayerCount: 2
Fore
SplineSet
264 699 m 1
 296 700 l 1
 54 0 l 1
 24 0 l 1
 264 699 l 1
346 890 m 1
 170 770 l 1
 156 788 l 1
 354 925 l 1
 459 785 l 1
 436 769 l 1
 346 890 l 1
EndSplineSet
EndChar

StartChar: Idieresis
Encoding: 207 207 200
Width: 187
VWidth: 0
Flags: HMW
LayerCount: 2
Fore
SplineSet
264 699 m 1
 296 700 l 1
 54 0 l 1
 24 0 l 1
 264 699 l 1
366 808 m 0
 368 818 385 831 396 830 c 0
 408 829 415 818 413 806 c 0
 411 796 393 782 382 783 c 0
 370 784 364 797 366 808 c 0
218 808 m 0
 220 818 237 831 248 830 c 0
 260 829 266 818 264 806 c 0
 262 796 245 782 234 783 c 0
 222 784 216 797 218 808 c 0
EndSplineSet
EndChar

StartChar: Ntilde
Encoding: 209 209 201
Width: 656
VWidth: 0
Flags: HMW
LayerCount: 2
Fore
SplineSet
742 700 m 1
 774 700 l 1
 526 -20 l 1
 250 631 l 1
 32 0 l 1
 -1 0 l 1
 247 720 l 1
 524 66 l 1
 742 700 l 1
402 768 m 1
 424 798 451 832 493 831 c 0
 533 831 554 784 594 786 c 0
 622 788 645 814 664 832 c 1
 680 816 l 1
 656 792 626 759 588 760 c 0
 550 761 529 805 490 805 c 0
 458 805 437 779 420 756 c 1
 402 768 l 1
EndSplineSet
EndChar

StartChar: Eth
Encoding: 208 208 202
Width: 639
VWidth: 0
Flags: HMW
LayerCount: 2
Fore
SplineSet
64 335 m 1
 74 364 l 1
 358 364 l 1
 348 334 l 1
 64 335 l 1
266 699 m 1
 300 700 l 1
 58 0 l 1
 27 0 l 1
 266 699 l 1
195 0 m 0
 44 0 l 1
 55 33 l 1
 202 33 l 0
 387 39 541 180 600 350 c 0
 654 502 602 659 422 667 c 0
 271 667 l 1
 282 700 l 1
 428 700 l 0
 626 693 689 520 632 350 c 0
 570 162 399 6 195 0 c 0
EndSplineSet
EndChar

StartChar: Ograve
Encoding: 210 210 203
Width: 732
VWidth: 0
Flags: HMW
LayerCount: 2
Fore
SplineSet
143 350 m 0
 93 204 137 27 318 25 c 0
 503 23 663 185 720 350 c 0
 770 496 727 673 546 675 c 0
 361 677 200 515 143 350 c 0
108 350 m 0
 169 534 348 709 551 708 c 0
 749 707 809 514 755 350 c 0
 694 166 515 -9 312 -8 c 0
 114 -7 54 186 108 350 c 0
504 924 m 1
 536 940 l 1
 638 780 l 1
 618 770 l 1
 504 924 l 1
EndSplineSet
EndChar

StartChar: Oacute
Encoding: 211 211 204
Width: 732
VWidth: 0
Flags: HMW
LayerCount: 2
Fore
SplineSet
143 350 m 0
 93 204 137 27 318 25 c 0
 503 23 663 185 720 350 c 0
 770 496 727 673 546 675 c 0
 361 677 200 515 143 350 c 0
108 350 m 0
 169 534 348 709 551 708 c 0
 749 707 809 514 755 350 c 0
 694 166 515 -9 312 -8 c 0
 114 -7 54 186 108 350 c 0
752 920 m 1
 534 770 l 1
 520 784 l 1
 728 940 l 1
 752 920 l 1
EndSplineSet
EndChar

StartChar: Ocircumflex
Encoding: 212 212 205
Width: 732
VWidth: 0
Flags: HMW
LayerCount: 2
Fore
SplineSet
143 350 m 0
 93 204 137 27 318 25 c 0
 503 23 663 185 720 350 c 0
 770 496 727 673 546 675 c 0
 361 677 200 515 143 350 c 0
108 350 m 0
 169 534 348 709 551 708 c 0
 749 707 809 514 755 350 c 0
 694 166 515 -9 312 -8 c 0
 114 -7 54 186 108 350 c 0
618 890 m 1
 444 770 l 1
 428 788 l 1
 627 925 l 1
 732 785 l 1
 708 769 l 1
 618 890 l 1
EndSplineSet
EndChar

StartChar: Otilde
Encoding: 213 213 206
Width: 732
VWidth: 0
Flags: HMW
LayerCount: 2
Fore
SplineSet
143 350 m 0
 93 204 137 27 318 25 c 0
 503 23 663 185 720 350 c 0
 770 496 727 673 546 675 c 0
 361 677 200 515 143 350 c 0
108 350 m 0
 169 534 348 709 551 708 c 0
 749 707 809 514 755 350 c 0
 694 166 515 -9 312 -8 c 0
 114 -7 54 186 108 350 c 0
453 796 m 1
 463 826 509 858 544 858 c 0
 584 858 605 812 645 814 c 0
 673 816 697 842 716 860 c 1
 731 844 l 1
 707 820 677 787 639 788 c 0
 601 789 580 832 542 832 c 0
 509 832 489 807 471 784 c 1
 453 796 l 1
EndSplineSet
EndChar

StartChar: Odieresis
Encoding: 214 214 207
Width: 732
VWidth: 0
Flags: HMW
LayerCount: 2
Fore
SplineSet
143 350 m 0
 93 204 137 27 318 25 c 0
 503 23 663 185 720 350 c 0
 770 496 727 673 546 675 c 0
 361 677 200 515 143 350 c 0
108 350 m 0
 169 534 348 709 551 708 c 0
 749 707 809 514 755 350 c 0
 694 166 515 -9 312 -8 c 0
 114 -7 54 186 108 350 c 0
668 814 m 0
 670 824 687 839 698 838 c 0
 710 837 716 825 714 813 c 0
 712 803 695 789 684 790 c 0
 672 791 666 802 668 814 c 0
466 814 m 0
 468 824 485 839 496 838 c 0
 508 837 514 825 512 813 c 0
 510 803 493 789 482 790 c 0
 470 791 464 802 466 814 c 0
EndSplineSet
EndChar

StartChar: Ugrave
Encoding: 217 217 208
Width: 555
VWidth: 0
Flags: HMW
LayerCount: 2
Fore
SplineSet
262 700 m 1
 294 700 l 1
 130 223 l 2
 102 133 113 24 229 22 c 0
 346 20 430 123 468 223 c 1
 633 700 l 1
 666 700 l 1
 502 223 l 2
 459 104 360 -9 224 -9 c 0
 89 -9 66 115 99 223 c 1
 262 700 l 1
412 924 m 1
 443 940 l 1
 546 780 l 1
 528 770 l 1
 412 924 l 1
EndSplineSet
EndChar

StartChar: Uacute
Encoding: 218 218 209
Width: 555
VWidth: 0
Flags: HMW
LayerCount: 2
Fore
SplineSet
262 700 m 1
 294 700 l 1
 130 223 l 2
 102 133 113 24 229 22 c 0
 346 20 430 123 468 223 c 1
 633 700 l 1
 666 700 l 1
 502 223 l 2
 459 104 360 -9 224 -9 c 0
 89 -9 66 115 99 223 c 1
 262 700 l 1
667 920 m 1
 448 770 l 1
 434 784 l 1
 644 940 l 1
 667 920 l 1
EndSplineSet
EndChar

StartChar: Ucircumflex
Encoding: 219 219 210
Width: 555
VWidth: 0
Flags: HMW
LayerCount: 2
Fore
SplineSet
262 700 m 1
 294 700 l 1
 130 223 l 2
 102 133 113 24 229 22 c 0
 346 20 430 123 468 223 c 1
 633 700 l 1
 666 700 l 1
 502 223 l 2
 459 104 360 -9 224 -9 c 0
 89 -9 66 115 99 223 c 1
 262 700 l 1
530 890 m 1
 354 770 l 1
 340 788 l 1
 538 925 l 1
 644 785 l 1
 620 769 l 1
 530 890 l 1
EndSplineSet
EndChar

StartChar: Udieresis
Encoding: 220 220 211
Width: 555
VWidth: 0
Flags: HMW
LayerCount: 2
Fore
SplineSet
262 700 m 1
 294 700 l 1
 130 223 l 2
 102 133 113 24 229 22 c 0
 346 20 430 123 468 223 c 1
 633 700 l 1
 666 700 l 1
 502 223 l 2
 459 104 360 -9 224 -9 c 0
 89 -9 66 115 99 223 c 1
 262 700 l 1
559 794 m 0
 561 804 579 817 590 816 c 0
 602 815 608 804 606 792 c 0
 604 782 586 768 575 769 c 0
 563 770 557 782 559 794 c 0
384 794 m 0
 386 804 403 817 414 816 c 0
 426 815 432 804 430 792 c 0
 428 782 411 768 400 769 c 0
 388 770 382 782 384 794 c 0
EndSplineSet
EndChar

StartChar: Yacute
Encoding: 221 221 212
Width: 492
VWidth: 0
Flags: HMW
LayerCount: 2
Fore
SplineSet
648 920 m 1
 429 770 l 1
 416 784 l 1
 625 940 l 1
 648 920 l 1
630 698 m 1
 668 698 l 1
 299 276 l 1
 204 0 l 1
 171 0 l 1
 268 279 l 1
 196 700 l 1
 231 700 l 1
 292 311 l 1
 630 698 l 1
EndSplineSet
EndChar

StartChar: agrave
Encoding: 224 224 213
Width: 423
VWidth: 0
Flags: HMW
LayerCount: 2
Fore
SplineSet
56 135 m 0
 34 71 69 20 136 20 c 0
 228 19 294 89 335 164 c 1
 338 149 l 1
 297 66 225 -9 125 -9 c 0
 43 -9 -1 56 25 133 c 0
 55 225 156 282 250 282 c 0
 298 282 335 266 369 232 c 1
 362 212 l 1
 329 242 292 256 246 256 c 0
 169 256 83 211 56 135 c 0
163 383 m 1
 154 408 l 1
 206 440 265 471 327 469 c 0
 413 467 438 398 417 323 c 1
 306 0 l 1
 274 0 l 1
 388 323 l 1
 402 381 393 438 322 440 c 0
 264 442 210 411 163 383 c 1
272 700 m 1
 304 716 l 1
 407 556 l 1
 387 544 l 1
 272 700 l 1
EndSplineSet
Substitution2: "alt a" agrave.alt
EndChar

StartChar: aacute
Encoding: 225 225 214
Width: 423
VWidth: 0
Flags: HMW
LayerCount: 2
Fore
SplineSet
56 135 m 0
 34 71 69 20 136 20 c 0
 228 19 294 89 335 164 c 1
 338 149 l 1
 297 66 225 -9 125 -9 c 0
 43 -9 -1 56 25 133 c 0
 55 225 156 282 250 282 c 0
 298 282 335 266 369 232 c 1
 362 212 l 1
 329 242 292 256 246 256 c 0
 169 256 83 211 56 135 c 0
163 383 m 1
 154 408 l 1
 206 440 265 471 327 469 c 0
 413 467 438 398 417 323 c 1
 306 0 l 1
 274 0 l 1
 388 323 l 1
 402 381 393 438 322 440 c 0
 264 442 210 411 163 383 c 1
530 696 m 1
 313 546 l 1
 298 559 l 1
 508 715 l 1
 530 696 l 1
EndSplineSet
Substitution2: "alt a" aacute.alt
EndChar

StartChar: acircumflex
Encoding: 226 226 215
Width: 423
VWidth: 0
Flags: HMW
LayerCount: 2
Fore
SplineSet
56 135 m 0
 34 71 69 20 136 20 c 0
 228 19 294 89 335 164 c 1
 338 149 l 1
 297 66 225 -9 125 -9 c 0
 43 -9 -1 56 25 133 c 0
 55 225 156 282 250 282 c 0
 298 282 335 266 369 232 c 1
 362 212 l 1
 329 242 292 256 246 256 c 0
 169 256 83 211 56 135 c 0
163 383 m 1
 154 408 l 1
 206 440 265 471 327 469 c 0
 413 467 438 398 417 323 c 1
 306 0 l 1
 274 0 l 1
 388 323 l 1
 402 381 393 438 322 440 c 0
 264 442 210 411 163 383 c 1
398 659 m 1
 222 538 l 1
 206 556 l 1
 404 693 l 1
 510 554 l 1
 487 538 l 1
 398 659 l 1
EndSplineSet
Substitution2: "alt a" acircumflex.alt
EndChar

StartChar: atilde
Encoding: 227 227 216
Width: 423
VWidth: 0
Flags: HMW
LayerCount: 2
Fore
SplineSet
56 135 m 0
 34 71 69 20 136 20 c 0
 228 19 294 89 335 164 c 1
 338 149 l 1
 297 66 225 -9 125 -9 c 0
 43 -9 -1 56 25 133 c 0
 55 225 156 282 250 282 c 0
 298 282 335 266 369 232 c 1
 362 212 l 1
 329 242 292 256 246 256 c 0
 169 256 83 211 56 135 c 0
163 383 m 1
 154 408 l 1
 206 440 265 471 327 469 c 0
 413 467 438 398 417 323 c 1
 306 0 l 1
 274 0 l 1
 388 323 l 1
 402 381 393 438 322 440 c 0
 264 442 210 411 163 383 c 1
230 578 m 1
 252 608 278 642 320 641 c 0
 360 641 382 594 422 596 c 0
 450 598 473 624 492 642 c 1
 508 626 l 1
 484 602 453 569 415 570 c 0
 377 571 356 615 318 615 c 0
 285 615 266 589 248 566 c 1
 230 578 l 1
EndSplineSet
Substitution2: "alt a" atilde.alt
EndChar

StartChar: adieresis
Encoding: 228 228 217
Width: 423
VWidth: 0
Flags: HMW
LayerCount: 2
Fore
SplineSet
56 135 m 0
 34 71 69 20 136 20 c 0
 228 19 294 89 335 164 c 1
 338 149 l 1
 297 66 225 -9 125 -9 c 0
 43 -9 -1 56 25 133 c 0
 55 225 156 282 250 282 c 0
 298 282 335 266 369 232 c 1
 362 212 l 1
 329 242 292 256 246 256 c 0
 169 256 83 211 56 135 c 0
163 383 m 1
 154 408 l 1
 206 440 265 471 327 469 c 0
 413 467 438 398 417 323 c 1
 306 0 l 1
 274 0 l 1
 388 323 l 1
 402 381 393 438 322 440 c 0
 264 442 210 411 163 383 c 1
414 569 m 0
 416 579 434 593 445 592 c 0
 457 591 463 580 461 568 c 0
 459 558 441 543 430 544 c 0
 418 545 412 557 414 569 c 0
252 569 m 0
 254 579 272 593 283 592 c 0
 295 591 300 580 298 568 c 0
 296 558 279 543 268 544 c 0
 256 545 250 557 252 569 c 0
EndSplineSet
Substitution2: "alt a" adieresis.alt
EndChar

StartChar: aring
Encoding: 229 229 218
Width: 423
VWidth: 0
Flags: HMW
LayerCount: 2
Fore
SplineSet
56 135 m 0
 34 71 69 20 136 20 c 0
 228 19 294 89 335 164 c 1
 338 149 l 1
 297 66 225 -9 125 -9 c 0
 43 -9 -1 56 25 133 c 0
 55 225 156 282 250 282 c 0
 298 282 335 266 369 232 c 1
 362 212 l 1
 329 242 292 256 246 256 c 0
 169 256 83 211 56 135 c 0
163 383 m 1
 154 408 l 1
 206 440 265 471 327 469 c 0
 413 467 438 398 417 323 c 1
 306 0 l 1
 274 0 l 1
 388 323 l 1
 402 381 393 438 322 440 c 0
 264 442 210 411 163 383 c 1
287 632 m 0
 303 682 363 730 417 729 c 0
 471 728 498 676 482 628 c 0
 466 578 406 530 352 531 c 0
 298 532 271 584 287 632 c 0
309 630 m 0
 297 594 315 554 355 552 c 0
 397 550 448 592 460 630 c 0
 472 666 453 706 413 708 c 0
 371 710 321 668 309 630 c 0
EndSplineSet
Substitution2: "alt a" aring.alt
EndChar

StartChar: germandbls
Encoding: 223 223 219
Width: 540
VWidth: 0
Flags: HMW
LayerCount: 2
Fore
SplineSet
292 -10 m 0
 234 -10 186 13 153 49 c 1
 172 71 l 1
 204 39 244 19 294 19 c 0
 393 19 476 123 476 234 c 0
 476 362 362 330 362 426 c 0
 362 512 561 514 561 664 c 0
 561 728 517 765 453 765 c 0
 363 765 285 680 252 582 c 2
 52 -0 l 1
 20 -0 l 1
 219 588 l 2
 255 695 345 794 457 794 c 0
 537 794 594 745 594 666 c 0
 594 493 396 498 396 424 c 0
 396 350 508 378 508 238 c 0
 508 105 410 -10 292 -10 c 0
EndSplineSet
EndChar

StartChar: ae
Encoding: 230 230 220
Width: 810
VWidth: 0
Flags: HMW
LayerCount: 2
Fore
SplineSet
132 -10 m 0
 36 -10 -6 51 13 127 c 0
 34 216 126 282 242 282 c 0
 298 282 341 266 374 233 c 1
 360 232 l 1
 388 320 l 2
 414 400 390 442 323 442 c 0
 271 442 207 420 156 382 c 1
 142 406 l 1
 198 446 263 470 323 470 c 0
 415 470 445 414 405 304 c 1
 393 295 l 1
 443 393 548 470 658 470 c 0
 762 470 824 386 796 268 c 0
 794 248 790 238 782 222 c 1
 378 222 l 1
 389 230 l 1
 347 110 384 20 496 20 c 0
 574 20 654 57 714 124 c 1
 738 107 l 1
 674 32 583 -10 498 -10 c 0
 392 -10 338 49 348 158 c 1
 357 158 l 1
 308 52 229 -10 132 -10 c 0
141 18 m 0
 228 18 307 82 356 196 c 1
 346 160 l 1
 358 228 l 1
 360 215 l 1
 338 241 295 257 242 257 c 0
 149 257 63 205 44 130 c 0
 26 62 63 18 141 18 c 0
390 237 m 1
 381 250 l 1
 772 250 l 1
 758 239 l 1
 760 243 762 248 764 256 c 0
 792 362 752 442 650 442 c 0
 541 442 434 353 390 237 c 1
EndSplineSet
EndChar

StartChar: ccedilla
Encoding: 231 231 221
Width: 456
VWidth: 0
Flags: HMW
LayerCount: 2
Fore
SplineSet
88 230 m 0
 54 134 90 22 206 20 c 0
 270 20 327 50 378 86 c 1
 366 48 l 1
 316 16 260 -9 200 -9 c 0
 67 -9 21 118 58 230 c 0
 98 355 224 469 360 469 c 0
 412 469 455 450 490 412 c 1
 478 374 l 1
 450 418 408 440 354 440 c 0
 235 440 126 338 88 230 c 0
199 14 m 1
 226 14 l 1
 140 -70 l 1
 156 -63 175 -53 193 -55 c 0
 231 -60 249 -94 239 -130 c 0
 225 -182 159 -222 107 -222 c 0
 75 -222 56 -206 34 -184 c 1
 52 -168 l 1
 69 -184 86 -198 112 -198 c 0
 152 -198 204 -168 216 -128 c 0
 224 -100 208 -77 180 -74 c 0
 154 -70 125 -85 101 -95 c 1
 199 14 l 1
EndSplineSet
EndChar

StartChar: egrave
Encoding: 232 232 222
Width: 475
VWidth: 0
Flags: HMW
LayerCount: 2
Fore
SplineSet
89 223 m 1
 98 250 l 1
 442 250 l 1
 470 326 454 438 345 440 c 0
 229 442 142 336 106 242 c 1
 102 232 l 1
 78 143 89 23 203 20 c 0
 280 18 349 70 404 122 c 1
 424 104 l 1
 361 42 287 -10 195 -9 c 0
 66 -7 42 130 72 232 c 0
 79 256 89 278 101 300 c 0
 149 388 242 470 348 469 c 0
 470 467 505 348 476 248 c 0
 474 240 469 231 466 223 c 1
 89 223 l 1
256 687 m 1
 287 704 l 1
 394 544 l 1
 376 533 l 1
 256 687 l 1
EndSplineSet
EndChar

StartChar: eacute
Encoding: 233 233 223
Width: 475
VWidth: 0
Flags: HMW
LayerCount: 2
Fore
SplineSet
89 223 m 1
 98 250 l 1
 442 250 l 1
 470 326 454 438 345 440 c 0
 229 442 142 336 106 242 c 1
 102 232 l 1
 78 143 89 23 203 20 c 0
 280 18 349 70 404 122 c 1
 424 104 l 1
 361 42 287 -10 195 -9 c 0
 66 -7 42 130 72 232 c 0
 79 256 89 278 101 300 c 0
 149 388 242 470 348 469 c 0
 470 467 505 348 476 248 c 0
 474 240 469 231 466 223 c 1
 89 223 l 1
576 683 m 1
 362 533 l 1
 348 546 l 1
 553 702 l 1
 576 683 l 1
EndSplineSet
EndChar

StartChar: ecircumflex
Encoding: 234 234 224
Width: 475
VWidth: 0
Flags: HMW
LayerCount: 2
Fore
SplineSet
89 223 m 1
 98 250 l 1
 442 250 l 1
 470 326 454 438 345 440 c 0
 229 442 142 336 106 242 c 1
 102 232 l 1
 78 143 89 23 203 20 c 0
 280 18 349 70 404 122 c 1
 424 104 l 1
 361 42 287 -10 195 -9 c 0
 66 -7 42 130 72 232 c 0
 79 256 89 278 101 300 c 0
 149 388 242 470 348 469 c 0
 470 467 505 348 476 248 c 0
 474 240 469 231 466 223 c 1
 89 223 l 1
407 652 m 1
 232 531 l 1
 217 549 l 1
 415 686 l 1
 520 546 l 1
 497 530 l 1
 407 652 l 1
EndSplineSet
EndChar

StartChar: edieresis
Encoding: 235 235 225
Width: 475
VWidth: 0
Flags: HMW
LayerCount: 2
Fore
SplineSet
89 223 m 1
 98 250 l 1
 442 250 l 1
 470 326 454 438 345 440 c 0
 229 442 142 336 106 242 c 1
 102 232 l 1
 78 143 89 23 203 20 c 0
 280 18 349 70 404 122 c 1
 424 104 l 1
 361 42 287 -10 195 -9 c 0
 66 -7 42 130 72 232 c 0
 79 256 89 278 101 300 c 0
 149 388 242 470 348 469 c 0
 470 467 505 348 476 248 c 0
 474 240 469 231 466 223 c 1
 89 223 l 1
441 554 m 0
 443 564 460 579 471 578 c 0
 483 577 490 565 488 553 c 0
 486 543 468 529 457 530 c 0
 445 531 439 542 441 554 c 0
253 554 m 0
 255 564 272 579 283 578 c 0
 295 577 302 565 300 553 c 0
 298 543 280 529 269 530 c 0
 257 531 251 542 253 554 c 0
EndSplineSet
EndChar

StartChar: igrave
Encoding: 236 236 226
Width: 197
VWidth: 0
Flags: HMW
LayerCount: 2
Fore
SplineSet
188 459 m 1
 218 460 l 1
 59 0 l 1
 30 0 l 1
 188 459 l 1
132 692 m 1
 164 708 l 1
 266 548 l 1
 247 536 l 1
 132 692 l 1
EndSplineSet
EndChar

StartChar: dotlessi
Encoding: 305 305 227
Width: 197
VWidth: 0
Flags: HMW
LayerCount: 2
Fore
SplineSet
188 459 m 1
 218 460 l 1
 59 0 l 1
 30 0 l 1
 188 459 l 1
EndSplineSet
EndChar

StartChar: kgreenlandic
Encoding: 312 312 228
Width: 368
VWidth: 0
Flags: HMW
LayerCount: 2
Fore
SplineSet
175 459 m 1
 206 460 l 1
 46 0 l 1
 17 0 l 1
 175 459 l 1
408 458 m 1
 450 458 l 1
 166 269 l 1
 308 0 l 1
 272 0 l 1
 130 272 l 1
 408 458 l 1
EndSplineSet
EndChar

StartChar: iacute
Encoding: 237 237 229
Width: 197
VWidth: 0
Flags: HMW
LayerCount: 2
Fore
SplineSet
188 459 m 1
 218 460 l 1
 59 0 l 1
 30 0 l 1
 188 459 l 1
430 688 m 1
 212 538 l 1
 198 551 l 1
 407 707 l 1
 430 688 l 1
EndSplineSet
EndChar

StartChar: icircumflex
Encoding: 238 238 230
Width: 197
VWidth: 0
Flags: HMW
LayerCount: 2
Fore
SplineSet
188 459 m 1
 218 460 l 1
 59 0 l 1
 30 0 l 1
 188 459 l 1
271 655 m 1
 96 534 l 1
 81 552 l 1
 279 689 l 1
 384 550 l 1
 361 534 l 1
 271 655 l 1
EndSplineSet
EndChar

StartChar: idieresis
Encoding: 239 239 231
Width: 197
VWidth: 0
Flags: HMW
LayerCount: 2
Fore
SplineSet
188 459 m 1
 218 460 l 1
 59 0 l 1
 30 0 l 1
 188 459 l 1
295 564 m 0
 297 574 314 588 325 587 c 0
 337 586 344 574 342 562 c 0
 340 552 322 539 311 540 c 0
 299 541 293 552 295 564 c 0
133 564 m 0
 135 574 153 588 164 587 c 0
 176 586 182 574 180 562 c 0
 178 552 160 539 149 540 c 0
 137 541 131 552 133 564 c 0
EndSplineSet
EndChar

StartChar: ntilde
Encoding: 241 241 232
Width: 460
VWidth: 0
Flags: HMW
LayerCount: 2
Fore
SplineSet
211 460 m 1
 52 0 l 1
 20 0 l 1
 180 460 l 1
 211 460 l 1
406 308 m 2
 424 368 423 438 345 440 c 0
 253 442 184 355 146 282 c 1
 132 282 l 1
 172 370 248 469 356 469 c 0
 450 469 459 384 437 311 c 1
 328 0 l 1
 300 0 l 1
 406 308 l 2
236 558 m 1
 258 588 285 621 327 620 c 0
 367 620 388 573 428 575 c 0
 456 577 479 603 498 621 c 1
 514 606 l 1
 490 582 460 548 422 549 c 0
 384 550 363 594 324 594 c 0
 292 594 271 568 254 545 c 1
 236 558 l 1
EndSplineSet
EndChar

StartChar: ograve
Encoding: 242 242 233
Width: 520
VWidth: 0
Flags: HMW
LayerCount: 2
Fore
SplineSet
62 230 m 0
 102 354 228 469 364 469 c 0
 497 469 543 342 506 230 c 0
 466 106 341 -9 205 -9 c 0
 72 -9 25 118 62 230 c 0
94 230 m 0
 60 134 94 21 210 20 c 0
 329 19 439 122 476 230 c 0
 510 326 475 439 359 440 c 0
 240 441 131 338 94 230 c 0
306 692 m 1
 338 708 l 1
 440 548 l 1
 422 536 l 1
 306 692 l 1
EndSplineSet
EndChar

StartChar: oacute
Encoding: 243 243 234
Width: 520
VWidth: 0
Flags: HMW
LayerCount: 2
Fore
SplineSet
62 230 m 0
 102 354 228 469 364 469 c 0
 497 469 543 342 506 230 c 0
 466 106 341 -9 205 -9 c 0
 72 -9 25 118 62 230 c 0
94 230 m 0
 60 134 94 21 210 20 c 0
 329 19 439 122 476 230 c 0
 510 326 475 439 359 440 c 0
 240 441 131 338 94 230 c 0
578 688 m 1
 359 538 l 1
 346 551 l 1
 556 707 l 1
 578 688 l 1
EndSplineSet
EndChar

StartChar: ocircumflex
Encoding: 244 244 235
Width: 520
VWidth: 0
Flags: HMW
LayerCount: 2
Fore
SplineSet
62 230 m 0
 102 354 228 469 364 469 c 0
 497 469 543 342 506 230 c 0
 466 106 341 -9 205 -9 c 0
 72 -9 25 118 62 230 c 0
94 230 m 0
 60 134 94 21 210 20 c 0
 329 19 439 122 476 230 c 0
 510 326 475 439 359 440 c 0
 240 441 131 338 94 230 c 0
438 672 m 1
 262 552 l 1
 248 569 l 1
 446 706 l 1
 551 566 l 1
 528 550 l 1
 438 672 l 1
EndSplineSet
EndChar

StartChar: otilde
Encoding: 245 245 236
Width: 520
VWidth: 0
Flags: HMW
LayerCount: 2
Fore
SplineSet
62 230 m 0
 102 354 228 469 364 469 c 0
 497 469 543 342 506 230 c 0
 466 106 341 -9 205 -9 c 0
 72 -9 25 118 62 230 c 0
94 230 m 0
 60 134 94 21 210 20 c 0
 329 19 439 122 476 230 c 0
 510 326 475 439 359 440 c 0
 240 441 131 338 94 230 c 0
264 558 m 1
 252 587 336 620 356 620 c 0
 396 620 417 573 457 575 c 0
 485 577 509 603 528 621 c 1
 544 606 l 1
 520 582 490 548 452 549 c 0
 414 550 392 596 353 594 c 0
 321 592 302 567 284 545 c 1
 264 558 l 1
EndSplineSet
EndChar

StartChar: odieresis
Encoding: 246 246 237
Width: 520
VWidth: 0
Flags: HMW
LayerCount: 2
Fore
SplineSet
62 230 m 0
 102 354 228 469 364 469 c 0
 497 469 543 342 506 230 c 0
 466 106 341 -9 205 -9 c 0
 72 -9 25 118 62 230 c 0
94 230 m 0
 60 134 94 21 210 20 c 0
 329 19 439 122 476 230 c 0
 510 326 475 439 359 440 c 0
 240 441 131 338 94 230 c 0
474 578 m 0
 476 588 493 602 504 601 c 0
 516 600 522 588 520 576 c 0
 518 566 501 553 490 554 c 0
 478 555 472 566 474 578 c 0
286 578 m 0
 288 588 305 602 316 601 c 0
 328 600 334 588 332 576 c 0
 330 566 313 553 302 554 c 0
 290 555 284 566 286 578 c 0
EndSplineSet
EndChar

StartChar: ugrave
Encoding: 249 249 238
Width: 460
VWidth: 0
Flags: HMW
LayerCount: 2
Fore
SplineSet
298 0 m 1
 458 460 l 1
 488 460 l 1
 330 0 l 1
 298 0 l 1
106 159 m 2
 88 99 83 22 165 20 c 0
 257 18 324 104 362 178 c 1
 378 178 l 1
 338 90 262 -11 154 -9 c 0
 56 -9 53 82 75 156 c 1
 181 460 l 1
 210 459 l 1
 106 159 l 2
277 698 m 1
 309 715 l 1
 411 555 l 1
 392 544 l 1
 277 698 l 1
EndSplineSet
EndChar

StartChar: uacute
Encoding: 250 250 239
Width: 460
VWidth: 0
Flags: HMW
LayerCount: 2
Fore
SplineSet
298 0 m 1
 458 460 l 1
 488 460 l 1
 330 0 l 1
 298 0 l 1
106 159 m 2
 88 99 83 22 165 20 c 0
 257 18 324 104 362 178 c 1
 378 178 l 1
 338 90 262 -11 154 -9 c 0
 56 -9 53 82 75 156 c 1
 181 460 l 1
 210 459 l 1
 106 159 l 2
552 695 m 1
 334 544 l 1
 320 558 l 1
 530 714 l 1
 552 695 l 1
EndSplineSet
EndChar

StartChar: ucircumflex
Encoding: 251 251 240
Width: 460
VWidth: 0
Flags: HMW
LayerCount: 2
Fore
SplineSet
298 0 m 1
 458 460 l 1
 488 460 l 1
 330 0 l 1
 298 0 l 1
106 159 m 2
 88 99 83 22 165 20 c 0
 257 18 324 104 362 178 c 1
 378 178 l 1
 338 90 262 -11 154 -9 c 0
 56 -9 53 82 75 156 c 1
 181 460 l 1
 210 459 l 1
 106 159 l 2
406 665 m 1
 230 544 l 1
 216 562 l 1
 414 699 l 1
 520 560 l 1
 495 544 l 1
 406 665 l 1
EndSplineSet
EndChar

StartChar: udieresis
Encoding: 252 252 241
Width: 460
VWidth: 0
Flags: HMW
LayerCount: 2
Fore
SplineSet
298 0 m 1
 458 460 l 1
 488 460 l 1
 330 0 l 1
 298 0 l 1
106 159 m 2
 88 99 83 22 165 20 c 0
 257 18 324 104 362 178 c 1
 378 178 l 1
 338 90 262 -11 154 -9 c 0
 56 -9 53 82 75 156 c 1
 181 460 l 1
 210 459 l 1
 106 159 l 2
430 576 m 0
 432 586 449 599 460 598 c 0
 472 596 478 586 476 574 c 0
 474 564 457 549 446 550 c 0
 434 551 428 565 430 576 c 0
268 576 m 0
 270 586 287 599 298 598 c 0
 310 596 316 586 314 574 c 0
 312 564 295 549 284 550 c 0
 272 551 266 565 268 576 c 0
EndSplineSet
EndChar

StartChar: yacute
Encoding: 253 253 242
Width: 403
VWidth: 0
Flags: HMW
LayerCount: 2
Fore
SplineSet
503 459 m 1
 -14 -219 l 1
 -49 -218 l 1
 146 36 l 1
 110 460 l 1
 144 460 l 1
 174 44 l 1
 157 46 l 1
 468 459 l 1
 503 459 l 1
524 688 m 1
 306 538 l 1
 292 551 l 1
 502 707 l 1
 524 688 l 1
EndSplineSet
EndChar

StartChar: thorn
Encoding: 254 254 243
Width: 517
VWidth: 0
Flags: HMW
LayerCount: 2
Fore
SplineSet
-28 -219 m 1
 -58 -220 l 1
 285 780 l 1
 314 779 l 1
 -28 -219 l 1
503 230 m 0
 464 112 352 -12 218 -10 c 0
 90 -8 80 135 112 230 c 0
 148 341 248 468 376 469 c 0
 510 470 537 334 503 230 c 0
472 230 m 0
 503 320 483 442 366 440 c 0
 255 438 160 327 126 230 c 0
 98 148 110 24 218 20 c 0
 335 16 436 128 472 230 c 0
EndSplineSet
EndChar

StartChar: ydieresis
Encoding: 255 255 244
Width: 403
VWidth: 0
Flags: HMW
LayerCount: 2
Fore
SplineSet
503 459 m 1
 -14 -219 l 1
 -49 -218 l 1
 146 36 l 1
 110 460 l 1
 144 460 l 1
 174 44 l 1
 157 46 l 1
 468 459 l 1
 503 459 l 1
400 569 m 0
 402 579 419 593 430 592 c 0
 442 591 448 579 446 567 c 0
 444 557 427 543 416 544 c 0
 404 546 398 557 400 569 c 0
238 569 m 0
 240 579 257 593 268 592 c 0
 280 591 286 579 284 567 c 0
 282 557 264 543 253 544 c 0
 241 546 236 557 238 569 c 0
EndSplineSet
EndChar

StartChar: Amacron
Encoding: 256 256 245
Width: 580
VWidth: 0
Flags: HMW
LayerCount: 2
Fore
SplineSet
158 254 m 1
 176 284 l 1
 492 284 l 1
 490 254 l 1
 158 254 l 1
460 644 m 1
 190 273 l 1
 184 265 l 1
 -8 0 l 1
 -46 0 l 1
 483 722 l 1
 516 0 l 1
 480 0 l 1
 472 263 l 1
 472 271 l 1
 460 644 l 1
344 796 m 1
 353 824 l 1
 684 824 l 1
 674 795 l 1
 344 796 l 1
EndSplineSet
EndChar

StartChar: amacron
Encoding: 257 257 246
Width: 423
VWidth: 0
Flags: HMW
LayerCount: 2
Fore
SplineSet
56 135 m 0
 34 71 69 20 136 20 c 0
 228 19 294 89 335 164 c 1
 338 149 l 1
 297 66 225 -9 125 -9 c 0
 43 -9 -1 56 25 133 c 0
 55 225 156 282 250 282 c 0
 298 282 335 266 369 232 c 1
 362 212 l 1
 329 242 292 256 246 256 c 0
 169 256 83 211 56 135 c 0
163 383 m 1
 154 408 l 1
 206 440 265 471 327 469 c 0
 413 467 438 398 417 323 c 1
 306 0 l 1
 274 0 l 1
 388 323 l 1
 402 381 393 438 322 440 c 0
 264 442 210 411 163 383 c 1
192 550 m 1
 202 580 l 1
 532 580 l 1
 523 550 l 1
 192 550 l 1
EndSplineSet
Substitution2: "alt a" amacron.alt
EndChar

StartChar: breve
Encoding: 728 728 247
Width: 513
VWidth: 0
Flags: HMW
LayerCount: 2
Fore
SplineSet
336 850 m 1
 362 850 l 1
 355 788 377 739 447 738 c 0
 521 737 572 789 606 849 c 1
 634 848 l 1
 597 772 533 711 443 711 c 0
 357 711 326 772 336 850 c 1
EndSplineSet
EndChar

StartChar: Abreve
Encoding: 258 258 248
Width: 580
VWidth: 0
Flags: HMW
LayerCount: 2
Fore
SplineSet
158 254 m 1
 176 284 l 1
 492 284 l 1
 490 254 l 1
 158 254 l 1
460 644 m 1
 190 273 l 1
 184 265 l 1
 -8 0 l 1
 -46 0 l 1
 483 722 l 1
 516 0 l 1
 480 0 l 1
 472 263 l 1
 472 271 l 1
 460 644 l 1
404 928 m 1
 431 928 l 1
 421 867 442 817 512 816 c 0
 586 815 640 867 676 926 c 1
 704 926 l 1
 664 850 598 789 508 789 c 0
 422 789 391 850 404 928 c 1
EndSplineSet
EndChar

StartChar: abreve
Encoding: 259 259 249
Width: 423
VWidth: 0
Flags: HMW
LayerCount: 2
Fore
SplineSet
56 135 m 0
 34 71 69 20 136 20 c 0
 228 19 294 89 335 164 c 1
 338 149 l 1
 297 66 225 -9 125 -9 c 0
 43 -9 -1 56 25 133 c 0
 55 225 156 282 250 282 c 0
 298 282 335 266 369 232 c 1
 362 212 l 1
 329 242 292 256 246 256 c 0
 169 256 83 211 56 135 c 0
163 383 m 1
 154 408 l 1
 206 440 265 471 327 469 c 0
 413 467 438 398 417 323 c 1
 306 0 l 1
 274 0 l 1
 388 323 l 1
 402 381 393 438 322 440 c 0
 264 442 210 411 163 383 c 1
244 677 m 1
 272 676 l 1
 262 615 282 565 352 564 c 0
 426 563 480 617 516 676 c 1
 544 675 l 1
 504 600 438 538 348 538 c 0
 262 538 231 599 244 677 c 1
EndSplineSet
Substitution2: "alt a" abreve.alt
EndChar

StartChar: Aogonek
Encoding: 260 260 250
Width: 580
VWidth: 0
Flags: HMW
LayerCount: 2
Fore
SplineSet
159 254 m 1
 177 284 l 1
 492 284 l 1
 490 254 l 1
 159 254 l 1
460 644 m 1
 190 273 l 1
 184 265 l 1
 -8 0 l 1
 -46 0 l 1
 483 722 l 1
 516 0 l 1
 480 0 l 1
 472 263 l 1
 472 271 l 1
 460 644 l 1
484 -161 m 1
 493 -182 l 1
 462 -202 429 -219 391 -219 c 0
 340 -219 300 -187 315 -133 c 0
 337 -55 438 -16 504 14 c 1
 517 0 l 1
 461 -28 365 -60 347 -128 c 0
 337 -166 362 -189 398 -191 c 0
 428 -193 458 -175 484 -161 c 1
EndSplineSet
EndChar

StartChar: aogonek
Encoding: 261 261 251
Width: 423
VWidth: 0
Flags: HMW
LayerCount: 2
Fore
SplineSet
56 135 m 0
 34 72 70 20 136 20 c 0
 228 19 294 89 335 164 c 1
 338 149 l 1
 297 66 225 -9 125 -9 c 0
 43 -9 0 58 26 135 c 0
 56 227 157 282 250 282 c 0
 298 282 335 266 369 232 c 1
 362 212 l 1
 329 242 292 256 246 256 c 0
 169 256 82 211 56 135 c 0
163 383 m 1
 154 408 l 1
 206 440 265 471 327 469 c 0
 413 467 438 398 417 323 c 1
 306 0 l 1
 274 0 l 1
 388 323 l 1
 402 381 393 438 322 440 c 0
 264 442 210 411 163 383 c 1
274 -161 m 1
 283 -182 l 1
 252 -202 219 -219 181 -219 c 0
 130 -219 90 -187 105 -133 c 0
 127 -55 228 -16 294 14 c 1
 307 0 l 1
 251 -28 155 -60 137 -128 c 0
 127 -166 153 -189 189 -191 c 0
 219 -193 248 -175 274 -161 c 1
EndSplineSet
Substitution2: "alt a" aogonek.alt
EndChar

StartChar: Cacute
Encoding: 262 262 252
Width: 644
VWidth: 0
Flags: HMW
LayerCount: 2
Fore
SplineSet
144 350 m 0
 94 206 134 29 312 26 c 0
 402 24 485 65 558 114 c 1
 543 70 l 1
 471 24 392 -9 306 -8 c 0
 108 -6 54 188 108 350 c 0
 169 534 344 706 546 708 c 0
 622 709 682 684 734 630 c 1
 719 586 l 1
 675 647 614 674 539 674 c 0
 355 672 201 514 144 350 c 0
748 920 m 1
 530 770 l 1
 516 784 l 1
 726 940 l 1
 748 920 l 1
EndSplineSet
EndChar

StartChar: cacute
Encoding: 263 263 253
Width: 456
VWidth: 0
Flags: HMW
LayerCount: 2
Fore
SplineSet
88 230 m 0
 54 134 90 22 206 20 c 0
 270 20 327 50 378 86 c 1
 366 48 l 1
 316 16 260 -9 200 -9 c 0
 67 -9 21 118 58 230 c 0
 98 355 224 469 360 469 c 0
 412 469 455 450 490 412 c 1
 478 374 l 1
 450 418 408 440 354 440 c 0
 235 440 126 338 88 230 c 0
571 689 m 1
 354 539 l 1
 338 552 l 1
 548 708 l 1
 571 689 l 1
EndSplineSet
EndChar

StartChar: Ccircumflex
Encoding: 264 264 254
Width: 644
VWidth: 0
Flags: HMW
LayerCount: 2
Fore
SplineSet
144 350 m 0
 94 206 134 29 312 26 c 0
 402 24 485 65 558 114 c 1
 543 70 l 1
 471 24 392 -9 306 -8 c 0
 108 -6 54 188 108 350 c 0
 169 534 344 706 546 708 c 0
 622 709 682 684 734 630 c 1
 719 586 l 1
 675 647 614 674 539 674 c 0
 355 672 201 514 144 350 c 0
613 890 m 1
 438 770 l 1
 422 788 l 1
 620 925 l 1
 726 785 l 1
 703 769 l 1
 613 890 l 1
EndSplineSet
EndChar

StartChar: ccircumflex
Encoding: 265 265 255
Width: 456
VWidth: 0
Flags: HMW
LayerCount: 2
Fore
SplineSet
88 230 m 0
 54 134 90 22 206 20 c 0
 270 20 327 50 378 86 c 1
 366 48 l 1
 316 16 260 -9 200 -9 c 0
 67 -9 21 118 58 230 c 0
 98 355 224 469 360 469 c 0
 412 469 455 450 490 412 c 1
 478 374 l 1
 450 418 408 440 354 440 c 0
 235 440 126 338 88 230 c 0
427 652 m 1
 251 532 l 1
 236 549 l 1
 434 686 l 1
 540 546 l 1
 516 530 l 1
 427 652 l 1
EndSplineSet
EndChar

StartChar: Cdotaccent
Encoding: 266 266 256
Width: 644
VWidth: 0
Flags: HMW
LayerCount: 2
Fore
SplineSet
144 350 m 0
 94 206 134 29 312 26 c 0
 402 24 485 65 558 114 c 1
 543 70 l 1
 471 24 392 -9 306 -8 c 0
 108 -6 54 188 108 350 c 0
 169 534 344 706 546 708 c 0
 622 709 682 684 734 630 c 1
 719 586 l 1
 675 647 614 674 539 674 c 0
 355 672 201 514 144 350 c 0
556 800 m 0
 558 810 575 825 586 824 c 0
 598 823 604 811 602 799 c 0
 600 789 583 775 572 776 c 0
 560 777 554 788 556 800 c 0
EndSplineSet
EndChar

StartChar: cdotaccent
Encoding: 267 267 257
Width: 456
VWidth: 0
Flags: HMW
LayerCount: 2
Fore
SplineSet
88 230 m 0
 54 134 90 22 206 20 c 0
 270 20 327 50 378 86 c 1
 366 48 l 1
 316 16 260 -9 200 -9 c 0
 67 -9 21 118 58 230 c 0
 98 355 224 469 360 469 c 0
 412 469 455 450 490 412 c 1
 478 374 l 1
 450 418 408 440 354 440 c 0
 235 440 126 338 88 230 c 0
370 562 m 0
 372 572 389 586 400 585 c 0
 412 584 418 572 416 560 c 0
 414 550 396 537 385 538 c 0
 373 539 368 550 370 562 c 0
EndSplineSet
EndChar

StartChar: Ccaron
Encoding: 268 268 258
Width: 644
VWidth: 0
Flags: HMW
LayerCount: 2
Fore
SplineSet
144 350 m 0
 94 206 134 29 312 26 c 0
 402 24 485 65 558 114 c 1
 543 70 l 1
 471 24 392 -9 306 -8 c 0
 108 -6 54 188 108 350 c 0
 169 534 344 706 546 708 c 0
 622 709 682 684 734 630 c 1
 719 586 l 1
 675 647 614 674 539 674 c 0
 355 672 201 514 144 350 c 0
580 810 m 1
 755 932 l 1
 770 914 l 1
 572 776 l 1
 467 916 l 1
 491 933 l 1
 580 810 l 1
EndSplineSet
EndChar

StartChar: ccaron
Encoding: 269 269 259
Width: 456
VWidth: 0
Flags: HMW
LayerCount: 2
Fore
SplineSet
88 230 m 0
 54 134 90 22 206 20 c 0
 270 20 327 50 378 86 c 1
 366 48 l 1
 316 16 260 -9 200 -9 c 0
 67 -9 21 118 58 230 c 0
 98 355 224 469 360 469 c 0
 412 469 455 450 490 412 c 1
 478 374 l 1
 450 418 408 440 354 440 c 0
 235 440 126 338 88 230 c 0
396 579 m 1
 571 700 l 1
 586 682 l 1
 388 544 l 1
 283 684 l 1
 307 702 l 1
 396 579 l 1
EndSplineSet
EndChar

StartChar: Dcaron
Encoding: 270 270 260
Width: 609
VWidth: 0
Flags: HMW
LayerCount: 2
Fore
SplineSet
266 699 m 1
 300 700 l 1
 58 0 l 1
 27 0 l 1
 266 699 l 1
195 0 m 0
 44 0 l 1
 55 33 l 1
 202 33 l 0
 388 39 541 179 600 350 c 0
 654 504 602 659 422 667 c 0
 271 667 l 1
 282 700 l 1
 428 700 l 0
 626 693 689 520 632 350 c 0
 570 162 399 6 195 0 c 0
527 824 m 1
 702 946 l 1
 718 928 l 1
 520 790 l 1
 414 930 l 1
 438 947 l 1
 527 824 l 1
EndSplineSet
EndChar

StartChar: dcaron
Encoding: 271 271 261
Width: 536
VWidth: 0
Flags: HMW
LayerCount: 2
Fore
SplineSet
627 779 m 1
 658 780 l 1
 390 0 l 1
 360 0 l 1
 627 779 l 1
62 230 m 0
 101 348 214 472 348 470 c 0
 476 468 486 325 454 230 c 0
 418 119 317 -8 189 -9 c 0
 55 -10 28 126 62 230 c 0
94 230 m 0
 63 140 81 18 198 20 c 0
 309 22 406 133 440 230 c 0
 468 312 455 436 347 440 c 0
 230 444 130 332 94 230 c 0
814 767 m 1
 842 754 l 1
 650 508 l 1
 630 516 l 1
 814 767 l 1
EndSplineSet
EndChar

StartChar: Dcroat
Encoding: 272 272 262
Width: 639
VWidth: 0
Flags: HMW
LayerCount: 2
Fore
SplineSet
64 335 m 1
 74 364 l 1
 358 364 l 1
 348 334 l 1
 64 335 l 1
266 699 m 1
 300 700 l 1
 58 0 l 1
 27 0 l 1
 266 699 l 1
195 0 m 0
 44 0 l 1
 55 33 l 1
 202 33 l 0
 387 39 541 180 600 350 c 0
 654 502 602 659 422 667 c 0
 271 667 l 1
 282 700 l 1
 428 700 l 0
 626 693 689 520 632 350 c 0
 570 162 399 6 195 0 c 0
EndSplineSet
EndChar

StartChar: dcroat
Encoding: 273 273 263
Width: 517
VWidth: 0
Flags: HMW
LayerCount: 2
Fore
SplineSet
440 636 m 1
 450 665 l 1
 734 665 l 1
 724 636 l 1
 440 636 l 1
627 779 m 1
 658 780 l 1
 390 0 l 1
 360 0 l 1
 627 779 l 1
62 230 m 0
 101 348 214 472 348 470 c 0
 476 468 486 325 454 230 c 0
 418 119 317 -8 189 -9 c 0
 55 -10 26 124 62 230 c 0
94 230 m 0
 63 140 82 18 198 20 c 0
 308 22 406 133 440 230 c 0
 468 312 455 436 347 440 c 0
 230 444 130 332 94 230 c 0
EndSplineSet
EndChar

StartChar: Emacron
Encoding: 274 274 264
Width: 490
VWidth: 0
Flags: HMW
LayerCount: 2
Fore
SplineSet
42 0 m 1
 52 31 l 1
 376 31 l 1
 366 0 l 1
 42 0 l 1
271 670 m 1
 281 700 l 1
 604 700 l 1
 594 669 l 1
 271 670 l 1
168 371 m 1
 180 402 l 1
 484 402 l 1
 474 371 l 1
 168 371 l 1
266 699 m 1
 300 700 l 1
 58 0 l 1
 27 0 l 1
 266 699 l 1
322 816 m 1
 333 845 l 1
 663 845 l 1
 654 816 l 1
 322 816 l 1
EndSplineSet
EndChar

StartChar: emacron
Encoding: 275 275 265
Width: 475
VWidth: 0
Flags: HMW
LayerCount: 2
Fore
SplineSet
89 223 m 1
 98 250 l 1
 442 250 l 1
 470 326 454 438 345 440 c 0
 229 442 142 336 106 242 c 1
 102 232 l 1
 78 143 89 22 203 20 c 0
 281 18 349 70 404 122 c 1
 424 104 l 1
 361 42 287 -11 195 -9 c 0
 66 -7 42 130 72 232 c 0
 79 256 89 278 101 300 c 0
 149 388 242 470 348 469 c 0
 470 467 505 348 476 248 c 0
 474 240 469 231 466 223 c 1
 89 223 l 1
199 530 m 1
 208 559 l 1
 538 559 l 1
 528 530 l 1
 199 530 l 1
EndSplineSet
EndChar

StartChar: Ebreve
Encoding: 276 276 266
Width: 490
VWidth: 0
Flags: HMW
LayerCount: 2
Fore
SplineSet
42 0 m 1
 52 31 l 1
 376 31 l 1
 366 0 l 1
 42 0 l 1
271 670 m 1
 281 700 l 1
 604 700 l 1
 594 669 l 1
 271 670 l 1
168 371 m 1
 180 402 l 1
 484 402 l 1
 474 371 l 1
 168 371 l 1
266 699 m 1
 300 700 l 1
 58 0 l 1
 27 0 l 1
 266 699 l 1
364 908 m 1
 390 908 l 1
 380 847 401 797 471 796 c 0
 545 795 598 848 634 907 c 1
 663 906 l 1
 623 830 557 770 467 770 c 0
 381 770 351 830 364 908 c 1
EndSplineSet
EndChar

StartChar: ebreve
Encoding: 277 277 267
Width: 475
VWidth: 0
Flags: HMW
LayerCount: 2
Fore
SplineSet
89 223 m 1
 98 250 l 1
 442 250 l 1
 470 326 454 438 345 440 c 0
 229 442 142 336 106 242 c 1
 102 232 l 1
 78 143 89 23 203 20 c 0
 280 18 349 70 404 122 c 1
 424 104 l 1
 361 42 287 -10 195 -9 c 0
 66 -7 42 130 72 232 c 0
 79 256 89 278 101 300 c 0
 149 388 242 470 348 469 c 0
 470 467 505 348 476 248 c 0
 474 240 469 231 466 223 c 1
 89 223 l 1
245 669 m 1
 271 669 l 1
 264 607 286 557 356 556 c 0
 430 555 482 608 516 668 c 1
 544 667 l 1
 506 591 441 530 351 530 c 0
 265 530 234 591 245 669 c 1
EndSplineSet
EndChar

StartChar: Edotaccent
Encoding: 278 278 268
Width: 490
VWidth: 0
Flags: HMW
LayerCount: 2
Fore
SplineSet
42 0 m 1
 52 31 l 1
 376 31 l 1
 366 0 l 1
 42 0 l 1
271 670 m 1
 281 700 l 1
 604 700 l 1
 594 669 l 1
 271 670 l 1
168 371 m 1
 180 402 l 1
 484 402 l 1
 474 371 l 1
 168 371 l 1
266 699 m 1
 300 700 l 1
 58 0 l 1
 27 0 l 1
 266 699 l 1
444 794 m 0
 446 804 463 817 474 816 c 0
 486 815 492 804 490 792 c 0
 488 782 471 768 460 769 c 0
 448 770 442 782 444 794 c 0
EndSplineSet
EndChar

StartChar: edotaccent
Encoding: 279 279 269
Width: 475
VWidth: 0
Flags: HMW
LayerCount: 2
Fore
SplineSet
89 223 m 1
 98 250 l 1
 442 250 l 1
 470 326 454 438 345 440 c 0
 229 442 142 336 106 242 c 1
 102 232 l 1
 78 143 89 23 203 20 c 0
 280 18 349 70 404 122 c 1
 424 104 l 1
 361 42 287 -10 195 -9 c 0
 66 -7 42 130 72 232 c 0
 79 256 89 278 101 300 c 0
 149 388 242 470 348 469 c 0
 470 467 505 348 476 248 c 0
 474 240 469 231 466 223 c 1
 89 223 l 1
347 554 m 0
 349 564 367 579 378 578 c 0
 390 577 396 565 394 553 c 0
 392 543 375 529 364 530 c 0
 352 531 345 542 347 554 c 0
EndSplineSet
EndChar

StartChar: Eogonek
Encoding: 280 280 270
Width: 490
VWidth: 0
Flags: HMW
LayerCount: 2
Fore
SplineSet
42 0 m 1
 52 31 l 1
 376 31 l 1
 366 0 l 1
 42 0 l 1
271 670 m 1
 281 700 l 1
 604 700 l 1
 594 669 l 1
 271 670 l 1
168 371 m 1
 180 402 l 1
 484 402 l 1
 474 371 l 1
 168 371 l 1
266 699 m 1
 300 700 l 1
 58 0 l 1
 27 0 l 1
 266 699 l 1
299 -161 m 1
 308 -182 l 1
 277 -202 243 -219 205 -219 c 0
 154 -219 115 -187 130 -133 c 0
 152 -55 252 -16 318 14 c 1
 332 0 l 1
 276 -28 180 -60 162 -128 c 0
 152 -166 177 -189 213 -191 c 0
 243 -193 273 -175 299 -161 c 1
EndSplineSet
EndChar

StartChar: eogonek
Encoding: 281 281 271
Width: 475
VWidth: 0
Flags: HMW
LayerCount: 2
Fore
SplineSet
89 223 m 1
 98 250 l 1
 442 250 l 1
 470 326 454 438 345 440 c 0
 229 442 142 336 106 242 c 1
 102 232 l 1
 78 143 89 23 203 20 c 0
 280 18 349 70 404 122 c 1
 424 104 l 1
 361 42 287 -10 195 -9 c 0
 66 -7 42 130 72 232 c 0
 79 256 89 278 101 300 c 0
 149 388 242 470 348 469 c 0
 470 467 505 348 476 248 c 0
 474 240 469 231 466 223 c 1
 89 223 l 1
185 -166 m 1
 194 -188 l 1
 163 -208 131 -225 93 -225 c 0
 42 -225 1 -193 15 -139 c 0
 35 -62 134 -23 198 7 c 1
 213 -7 l 1
 157 -33 63 -66 46 -134 c 0
 37 -172 64 -195 100 -197 c 0
 130 -199 159 -181 185 -166 c 1
EndSplineSet
EndChar

StartChar: Ecaron
Encoding: 282 282 272
Width: 490
VWidth: 0
Flags: HMW
LayerCount: 2
Fore
SplineSet
42 0 m 1
 52 31 l 1
 376 31 l 1
 366 0 l 1
 42 0 l 1
271 670 m 1
 281 700 l 1
 604 700 l 1
 594 669 l 1
 271 670 l 1
168 371 m 1
 180 402 l 1
 484 402 l 1
 474 371 l 1
 168 371 l 1
266 699 m 1
 300 700 l 1
 58 0 l 1
 27 0 l 1
 266 699 l 1
468 804 m 1
 642 924 l 1
 658 906 l 1
 460 770 l 1
 354 909 l 1
 379 926 l 1
 468 804 l 1
EndSplineSet
EndChar

StartChar: ecaron
Encoding: 283 283 273
Width: 475
VWidth: 0
Flags: HMW
LayerCount: 2
Fore
SplineSet
89 223 m 1
 98 250 l 1
 442 250 l 1
 470 326 454 438 345 440 c 0
 229 442 142 336 106 242 c 1
 102 232 l 1
 78 143 89 23 203 20 c 0
 280 18 349 70 404 122 c 1
 424 104 l 1
 361 42 287 -10 195 -9 c 0
 66 -7 42 130 72 232 c 0
 79 256 89 278 101 300 c 0
 149 388 242 470 348 469 c 0
 470 467 505 348 476 248 c 0
 474 240 469 231 466 223 c 1
 89 223 l 1
356 564 m 1
 531 685 l 1
 547 667 l 1
 349 530 l 1
 243 669 l 1
 267 686 l 1
 356 564 l 1
EndSplineSet
EndChar

StartChar: Gcircumflex
Encoding: 284 284 274
Width: 722
VWidth: 0
Flags: HMW
LayerCount: 2
Fore
SplineSet
443 314 m 1
 454 344 l 1
 737 344 l 1
 668 170 517 -8 314 -8 c 0
 116 -8 54 186 108 350 c 0
 170 535 350 708 554 708 c 0
 658 708 732 652 770 557 c 1
 741 537 l 1
 711 625 642 675 548 675 c 0
 362 675 201 517 143 350 c 0
 93 204 139 26 320 26 c 0
 494 26 624 171 694 313 c 1
 443 314 l 1
621 890 m 1
 445 770 l 1
 430 788 l 1
 628 925 l 1
 734 785 l 1
 710 769 l 1
 621 890 l 1
EndSplineSet
EndChar

StartChar: gcircumflex
Encoding: 285 285 275
Width: 517
VWidth: 0
Flags: HMW
LayerCount: 2
Fore
SplineSet
-12 -30 m 1
 18 -30 l 1
 -1 -114 16 -198 118 -200 c 0
 237 -202 326 -92 364 10 c 1
 518 460 l 1
 550 460 l 1
 396 10 l 2
 352 -109 250 -229 113 -229 c 0
 -6 -229 -36 -130 -12 -30 c 1
62 230 m 0
 101 348 214 472 348 470 c 0
 476 468 486 325 454 230 c 0
 418 119 317 -8 189 -9 c 0
 55 -10 28 126 62 230 c 0
94 230 m 0
 62 140 81 20 198 20 c 0
 310 20 407 136 440 234 c 0
 468 316 453 436 347 440 c 0
 230 444 130 332 94 230 c 0
416 652 m 1
 240 532 l 1
 225 549 l 1
 423 686 l 1
 528 546 l 1
 505 530 l 1
 416 652 l 1
EndSplineSet
EndChar

StartChar: Gbreve
Encoding: 286 286 276
Width: 722
VWidth: 0
Flags: HMW
LayerCount: 2
Fore
SplineSet
443 314 m 1
 454 344 l 1
 737 344 l 1
 668 170 517 -8 314 -8 c 0
 116 -8 54 186 108 350 c 0
 170 535 350 708 554 708 c 0
 658 708 732 652 770 557 c 1
 741 537 l 1
 711 625 642 675 548 675 c 0
 362 675 201 517 143 350 c 0
 93 204 139 26 320 26 c 0
 494 26 624 171 694 313 c 1
 443 314 l 1
475 908 m 1
 502 908 l 1
 492 847 513 797 583 796 c 0
 657 795 710 848 746 907 c 1
 774 906 l 1
 734 830 668 770 578 770 c 0
 492 770 462 830 475 908 c 1
EndSplineSet
EndChar

StartChar: gbreve
Encoding: 287 287 277
Width: 517
VWidth: 0
Flags: HMW
LayerCount: 2
Fore
SplineSet
-12 -30 m 1
 18 -30 l 1
 -1 -114 16 -198 118 -200 c 0
 237 -202 326 -92 364 10 c 1
 518 460 l 1
 550 460 l 1
 396 10 l 2
 352 -109 250 -229 113 -229 c 0
 -6 -229 -36 -130 -12 -30 c 1
62 230 m 0
 101 348 214 472 348 470 c 0
 476 468 486 325 454 230 c 0
 418 119 317 -8 189 -9 c 0
 55 -10 28 126 62 230 c 0
94 230 m 0
 62 140 81 20 198 20 c 0
 310 20 407 136 440 234 c 0
 468 316 453 436 347 440 c 0
 230 444 130 332 94 230 c 0
270 670 m 1
 296 670 l 1
 286 609 307 559 377 558 c 0
 451 557 505 609 541 668 c 1
 569 668 l 1
 529 593 462 531 372 531 c 0
 286 531 257 592 270 670 c 1
EndSplineSet
EndChar

StartChar: Gdotaccent
Encoding: 288 288 278
Width: 722
VWidth: 0
Flags: HMW
LayerCount: 2
Fore
SplineSet
443 314 m 1
 454 344 l 1
 737 344 l 1
 668 170 517 -8 314 -8 c 0
 116 -8 54 186 108 350 c 0
 170 535 350 708 554 708 c 0
 658 708 732 652 770 557 c 1
 741 537 l 1
 711 625 642 675 548 675 c 0
 362 675 201 517 143 350 c 0
 93 204 139 26 320 26 c 0
 494 26 624 171 694 313 c 1
 443 314 l 1
562 794 m 0
 564 804 581 817 592 816 c 0
 604 815 610 804 608 792 c 0
 606 782 589 768 578 769 c 0
 566 770 560 782 562 794 c 0
EndSplineSet
EndChar

StartChar: gdotaccent
Encoding: 289 289 279
Width: 517
VWidth: 0
Flags: HMW
LayerCount: 2
Fore
SplineSet
-12 -30 m 1
 18 -30 l 1
 -1 -114 16 -198 118 -200 c 0
 237 -202 326 -92 364 10 c 1
 518 460 l 1
 550 460 l 1
 396 10 l 2
 352 -109 250 -229 113 -229 c 0
 -6 -229 -36 -130 -12 -30 c 1
62 230 m 0
 101 348 214 472 348 470 c 0
 476 468 486 325 454 230 c 0
 418 119 317 -8 189 -9 c 0
 55 -10 28 126 62 230 c 0
94 230 m 0
 62 140 81 20 198 20 c 0
 310 20 407 136 440 234 c 0
 468 316 453 436 347 440 c 0
 230 444 130 332 94 230 c 0
366 567 m 0
 368 577 385 591 396 590 c 0
 408 589 414 578 412 566 c 0
 410 556 393 541 382 542 c 0
 370 543 364 555 366 567 c 0
EndSplineSet
EndChar

StartChar: uni0122
Encoding: 290 290 280
Width: 722
VWidth: 0
Flags: HMW
LayerCount: 2
Fore
SplineSet
443 314 m 1
 454 344 l 1
 737 344 l 1
 668 170 517 -8 314 -8 c 0
 116 -8 54 186 108 350 c 0
 170 535 350 708 554 708 c 0
 658 708 732 652 770 557 c 1
 741 537 l 1
 711 625 642 675 548 675 c 0
 362 675 201 517 143 350 c 0
 93 204 139 26 320 26 c 0
 494 26 624 171 694 313 c 1
 443 314 l 1
322 -70 m 1
 352 -84 l 1
 159 -329 l 1
 140 -322 l 1
 322 -70 l 1
EndSplineSet
EndChar

StartChar: Hcircumflex
Encoding: 292 292 281
Width: 627
VWidth: 0
Flags: HMW
LayerCount: 2
Fore
SplineSet
168 366 m 1
 178 397 l 1
 618 397 l 1
 608 366 l 1
 168 366 l 1
699 699 m 1
 733 700 l 1
 491 0 l 1
 460 0 l 1
 699 699 l 1
266 699 m 1
 300 700 l 1
 58 0 l 1
 27 0 l 1
 266 699 l 1
567 890 m 1
 390 770 l 1
 376 788 l 1
 574 925 l 1
 680 785 l 1
 656 769 l 1
 567 890 l 1
EndSplineSet
EndChar

StartChar: hcircumflex
Encoding: 293 293 282
Width: 460
VWidth: 0
Flags: HMW
LayerCount: 2
Fore
SplineSet
320 780 m 1
 52 0 l 1
 21 0 l 1
 290 780 l 1
 320 780 l 1
406 308 m 2
 424 368 423 438 345 440 c 0
 253 442 184 355 146 282 c 1
 132 282 l 1
 172 370 248 469 356 469 c 0
 450 469 459 384 437 311 c 1
 328 0 l 1
 300 0 l 1
 406 308 l 2
376 962 m 1
 200 842 l 1
 185 859 l 1
 384 996 l 1
 489 856 l 1
 465 840 l 1
 376 962 l 1
EndSplineSet
EndChar

StartChar: Itilde
Encoding: 296 296 283
Width: 187
VWidth: 0
Flags: HMW
LayerCount: 2
Fore
SplineSet
264 699 m 1
 296 700 l 1
 54 0 l 1
 24 0 l 1
 264 699 l 1
197 826 m 1
 219 856 246 889 288 888 c 0
 328 888 350 841 390 843 c 0
 418 845 441 871 460 889 c 1
 476 874 l 1
 452 850 422 816 384 817 c 0
 346 818 325 862 286 862 c 0
 254 862 233 836 216 813 c 1
 197 826 l 1
EndSplineSet
EndChar

StartChar: itilde
Encoding: 297 297 284
Width: 197
VWidth: 0
Flags: HMW
LayerCount: 2
Fore
SplineSet
188 459 m 1
 218 460 l 1
 59 0 l 1
 30 0 l 1
 188 459 l 1
122 586 m 1
 144 616 172 649 214 648 c 0
 254 648 274 601 314 603 c 0
 342 605 366 631 385 649 c 1
 400 634 l 1
 376 610 346 576 308 577 c 0
 270 578 249 622 210 622 c 0
 178 622 157 596 140 573 c 1
 122 586 l 1
EndSplineSet
EndChar

StartChar: Imacron
Encoding: 298 298 285
Width: 187
VWidth: 0
Flags: HMW
LayerCount: 2
Fore
SplineSet
264 699 m 1
 296 700 l 1
 54 0 l 1
 24 0 l 1
 264 699 l 1
176 816 m 1
 185 845 l 1
 516 845 l 1
 506 816 l 1
 176 816 l 1
EndSplineSet
EndChar

StartChar: imacron
Encoding: 299 299 286
Width: 197
VWidth: 0
Flags: HMW
LayerCount: 2
Fore
SplineSet
188 459 m 1
 218 460 l 1
 59 0 l 1
 30 0 l 1
 188 459 l 1
100 576 m 1
 110 605 l 1
 440 605 l 1
 430 576 l 1
 100 576 l 1
EndSplineSet
EndChar

StartChar: Ibreve
Encoding: 300 300 287
Width: 187
VWidth: 0
Flags: HMW
LayerCount: 2
Fore
SplineSet
264 699 m 1
 296 700 l 1
 54 0 l 1
 24 0 l 1
 264 699 l 1
200 910 m 1
 226 910 l 1
 216 849 238 799 308 798 c 0
 382 797 436 849 472 908 c 1
 500 908 l 1
 460 833 394 771 304 771 c 0
 218 771 187 832 200 910 c 1
EndSplineSet
EndChar

StartChar: ibreve
Encoding: 301 301 288
Width: 197
VWidth: 0
Flags: HMW
LayerCount: 2
Fore
SplineSet
188 459 m 1
 218 460 l 1
 59 0 l 1
 30 0 l 1
 188 459 l 1
124 670 m 1
 152 670 l 1
 142 609 162 559 232 558 c 0
 306 557 360 609 396 668 c 1
 424 668 l 1
 384 593 318 531 228 531 c 0
 142 531 111 592 124 670 c 1
EndSplineSet
EndChar

StartChar: Iogonek
Encoding: 302 302 289
Width: 187
VWidth: 0
Flags: HMW
LayerCount: 2
Fore
SplineSet
264 699 m 1
 296 700 l 1
 54 0 l 1
 24 0 l 1
 264 699 l 1
24 -161 m 1
 32 -182 l 1
 1 -202 -32 -219 -70 -219 c 0
 -121 -219 -161 -187 -146 -133 c 0
 -124 -55 -24 -16 42 14 c 1
 56 0 l 1
 0 -28 -97 -60 -115 -128 c 0
 -125 -166 -98 -189 -62 -191 c 0
 -32 -193 -2 -175 24 -161 c 1
EndSplineSet
EndChar

StartChar: iogonek
Encoding: 303 303 290
Width: 197
VWidth: 0
Flags: HMW
LayerCount: 2
Fore
SplineSet
255 682 m 0
 257 692 273 705 284 704 c 0
 296 703 302 693 300 681 c 0
 298 671 281 657 270 658 c 0
 258 659 253 670 255 682 c 0
188 459 m 1
 218 460 l 1
 59 0 l 1
 30 0 l 1
 188 459 l 1
28 -161 m 1
 37 -182 l 1
 6 -202 -27 -219 -65 -219 c 0
 -116 -219 -157 -187 -142 -133 c 0
 -120 -55 -18 -16 48 14 c 1
 61 0 l 1
 5 -28 -92 -60 -110 -128 c 0
 -120 -166 -94 -189 -58 -191 c 0
 -28 -193 2 -175 28 -161 c 1
EndSplineSet
EndChar

StartChar: Idotaccent
Encoding: 304 304 291
Width: 187
VWidth: 0
Flags: HMW
LayerCount: 2
Fore
SplineSet
264 699 m 1
 296 700 l 1
 54 0 l 1
 24 0 l 1
 264 699 l 1
288 798 m 0
 290 808 308 823 319 822 c 0
 331 821 337 809 335 797 c 0
 333 787 315 773 304 774 c 0
 292 775 286 786 288 798 c 0
EndSplineSet
EndChar

StartChar: uni0136
Encoding: 310 310 292
Width: 458
VWidth: 0
Flags: HMW
LayerCount: 2
Fore
SplineSet
264 699 m 1
 296 700 l 1
 55 0 l 1
 24 0 l 1
 264 699 l 1
576 698 m 1
 620 698 l 1
 212 370 l 1
 392 0 l 1
 354 0 l 1
 174 374 l 1
 576 698 l 1
220 -62 m 1
 248 -75 l 1
 57 -320 l 1
 38 -313 l 1
 220 -62 l 1
EndSplineSet
EndChar

StartChar: uni0137
Encoding: 311 311 293
Width: 368
VWidth: 0
Flags: HMW
LayerCount: 2
Fore
SplineSet
284 779 m 1
 316 780 l 1
 46 0 l 1
 18 0 l 1
 284 779 l 1
408 458 m 1
 450 458 l 1
 166 269 l 1
 308 0 l 1
 272 0 l 1
 130 272 l 1
 408 458 l 1
175 -62 m 1
 203 -75 l 1
 12 -320 l 1
 -8 -313 l 1
 175 -62 l 1
EndSplineSet
EndChar

StartChar: Lacute
Encoding: 313 313 294
Width: 409
VWidth: 0
Flags: HMW
LayerCount: 2
Fore
SplineSet
266 700 m 1
 299 700 l 1
 69 31 l 1
 351 31 l 1
 340 0 l 1
 26 0 l 1
 266 700 l 1
653 920 m 1
 434 770 l 1
 421 784 l 1
 630 940 l 1
 653 920 l 1
EndSplineSet
EndChar

StartChar: lacute
Encoding: 314 314 295
Width: 183
VWidth: 0
Flags: HMW
LayerCount: 2
Fore
SplineSet
289 779 m 1
 320 780 l 1
 51 0 l 1
 22 0 l 1
 289 779 l 1
532 992 m 1
 312 842 l 1
 299 855 l 1
 508 1011 l 1
 532 992 l 1
EndSplineSet
EndChar

StartChar: uni013B
Encoding: 315 315 296
Width: 409
VWidth: 0
Flags: HMW
LayerCount: 2
Fore
SplineSet
266 700 m 1
 299 700 l 1
 69 31 l 1
 351 31 l 1
 340 0 l 1
 26 0 l 1
 266 700 l 1
168 -62 m 1
 197 -75 l 1
 6 -320 l 1
 -14 -313 l 1
 168 -62 l 1
EndSplineSet
EndChar

StartChar: uni013C
Encoding: 316 316 297
Width: 183
VWidth: 0
Flags: HMW
LayerCount: 2
Fore
SplineSet
289 779 m 1
 320 780 l 1
 51 0 l 1
 22 0 l 1
 289 779 l 1
36 -62 m 1
 64 -75 l 1
 -128 -320 l 1
 -147 -313 l 1
 36 -62 l 1
EndSplineSet
EndChar

StartChar: Lcaron
Encoding: 317 317 298
Width: 409
VWidth: 0
Flags: HMW
LayerCount: 2
Fore
SplineSet
266 700 m 1
 299 700 l 1
 69 31 l 1
 351 31 l 1
 340 0 l 1
 26 0 l 1
 266 700 l 1
507 706 m 1
 536 694 l 1
 344 448 l 1
 324 456 l 1
 507 706 l 1
EndSplineSet
EndChar

StartChar: lcaron
Encoding: 318 318 299
Width: 216
VWidth: 0
Flags: HMW
LayerCount: 2
Fore
SplineSet
289 779 m 1
 320 780 l 1
 51 0 l 1
 22 0 l 1
 289 779 l 1
502 767 m 1
 530 754 l 1
 338 508 l 1
 318 516 l 1
 502 767 l 1
EndSplineSet
EndChar

StartChar: Ldot
Encoding: 319 319 300
Width: 409
VWidth: 0
Flags: HMW
LayerCount: 2
Fore
SplineSet
266 700 m 1
 299 700 l 1
 69 31 l 1
 351 31 l 1
 340 0 l 1
 26 0 l 1
 266 700 l 1
336 415 m 0
 338 425 355 439 366 438 c 0
 378 437 384 426 382 414 c 0
 380 404 363 389 352 390 c 0
 340 391 334 403 336 415 c 0
EndSplineSet
EndChar

StartChar: ldot
Encoding: 320 320 301
Width: 348
VWidth: 0
Flags: HMW
LayerCount: 2
Fore
SplineSet
289 779 m 1
 320 780 l 1
 51 0 l 1
 22 0 l 1
 289 779 l 1
294 402 m 0
 296 412 314 427 325 426 c 0
 337 425 343 413 341 401 c 0
 339 391 321 377 310 378 c 0
 298 379 292 390 294 402 c 0
EndSplineSet
EndChar

StartChar: eth
Encoding: 240 240 302
Width: 548
VWidth: 0
Flags: HMW
LayerCount: 2
Fore
SplineSet
215 -10 m 0
 109 -10 53 48 53 152 c 0
 53 302 211 443 341 443 c 0
 411 443 458 416 490 364 c 1
 478 364 l 1
 444 478 422 530 336 686 c 1
 356 708 l 1
 498 431 516 374 516 300 c 0
 518 154 363 -10 215 -10 c 0
217 20 m 0
 339 20 482 165 482 287 c 0
 482 354 446 418 340 418 c 0
 224 418 84 283 84 152 c 0
 84 68 134 20 217 20 c 0
284 515 m 1
 278 536 l 1
 561 645 l 1
 567 624 l 1
 284 515 l 1
EndSplineSet
EndChar

StartChar: racute
Encoding: 341 341 303
Width: 287
VWidth: 0
Flags: HMW
LayerCount: 2
Fore
SplineSet
211 460 m 1
 52 0 l 1
 20 0 l 1
 180 460 l 1
 211 460 l 1
352 420 m 1
 337 430 322 439 304 440 c 0
 222 444 174 344 146 282 c 1
 132 282 l 1
 164 356 219 473 315 469 c 0
 339 469 356 457 375 444 c 1
 352 420 l 1
484 682 m 1
 265 532 l 1
 252 545 l 1
 462 701 l 1
 484 682 l 1
EndSplineSet
EndChar

StartChar: rcaron
Encoding: 345 345 304
Width: 287
VWidth: 0
Flags: HMW
LayerCount: 2
Fore
SplineSet
211 460 m 1
 52 0 l 1
 20 0 l 1
 180 460 l 1
 211 460 l 1
352 420 m 1
 337 430 322 439 304 440 c 0
 222 444 174 344 146 282 c 1
 132 282 l 1
 164 356 219 473 315 469 c 0
 339 469 356 457 375 444 c 1
 352 420 l 1
312 565 m 1
 488 686 l 1
 503 668 l 1
 305 530 l 1
 199 670 l 1
 224 688 l 1
 312 565 l 1
EndSplineSet
EndChar

StartChar: Rcaron
Encoding: 344 344 305
Width: 465
VWidth: 0
Flags: HMW
LayerCount: 2
Fore
SplineSet
246 326 m 1
 280 326 l 1
 386 0 l 1
 349 0 l 1
 246 326 l 1
266 699 m 1
 300 700 l 1
 58 0 l 1
 27 0 l 1
 266 699 l 1
270 670 m 1
 280 700 l 1
 394 700 l 0
 509 696 592 622 552 502 c 0
 512 378 388 308 263 304 c 0
 144 304 l 1
 156 334 l 1
 268 334 l 1
 376 338 483 396 520 502 c 0
 556 604 486 665 388 670 c 1
 270 670 l 1
439 804 m 1
 614 924 l 1
 630 906 l 1
 432 770 l 1
 326 909 l 1
 350 926 l 1
 439 804 l 1
EndSplineSet
EndChar

StartChar: uni0213
Encoding: 531 531 306
Width: 287
VWidth: 0
Flags: HMW
LayerCount: 2
Fore
SplineSet
211 460 m 1
 52 0 l 1
 20 0 l 1
 180 460 l 1
 211 460 l 1
352 420 m 1
 337 430 322 439 304 440 c 0
 222 444 174 344 146 282 c 1
 132 282 l 1
 164 356 219 473 315 469 c 0
 339 469 356 457 375 444 c 1
 352 420 l 1
158 544 m 1
 186 545 l 1
 221 605 274 656 348 656 c 0
 418 656 440 606 432 544 c 1
 455 544 l 1
 471 620 445 681 359 683 c 0
 267 685 200 619 158 544 c 1
EndSplineSet
EndChar

StartChar: uni0212
Encoding: 530 530 307
Width: 465
VWidth: 0
Flags: HMW
LayerCount: 2
Fore
SplineSet
246 326 m 1
 280 326 l 1
 386 0 l 1
 349 0 l 1
 246 326 l 1
266 699 m 1
 300 700 l 1
 58 0 l 1
 27 0 l 1
 266 699 l 1
270 670 m 1
 280 700 l 1
 394 700 l 0
 509 696 592 622 552 502 c 0
 512 378 388 308 263 304 c 0
 144 304 l 1
 156 334 l 1
 268 334 l 1
 376 338 483 396 520 502 c 0
 556 604 486 665 388 670 c 1
 270 670 l 1
305 770 m 1
 334 770 l 1
 369 830 422 881 496 881 c 0
 566 881 588 830 580 768 c 1
 602 768 l 1
 618 844 592 906 506 908 c 0
 414 910 347 845 305 770 c 1
EndSplineSet
EndChar

StartChar: OE
Encoding: 338 338 308
Width: 903
VWidth: 0
Flags: HMW
LayerCount: 2
Fore
SplineSet
572 372 m 1
 582 402 l 1
 896 402 l 1
 886 372 l 1
 572 372 l 1
665 686 m 1
 698 687 l 1
 464 13 l 1
 434 14 l 1
 665 686 l 1
788 30 m 1
 778 0 l 1
 316 0 l 0
 120 7 44 176 102 350 c 0
 166 541 344 694 548 700 c 0
 1016 700 l 1
 1006 669 l 1
 682 669 l 1
 666 669 l 1
 544 669 l 0
 358 663 194 522 134 350 c 0
 80 196 143 38 320 31 c 0
 440 31 l 1
 462 31 l 1
 788 30 l 1
EndSplineSet
EndChar

StartChar: oe
Encoding: 339 339 309
Width: 863
VWidth: 0
Flags: HMW
LayerCount: 2
Fore
SplineSet
824 250 m 1
 854 334 827 438 722 440 c 0
 604 442 517 338 471 242 c 1
 468 232 l 1
 439 139 450 22 572 20 c 0
 654 18 723 70 780 122 c 1
 800 104 l 1
 736 46 659 -11 568 -9 c 0
 436 -7 408 124 442 230 c 0
 447 247 454 263 462 279 c 0
 512 377 613 471 729 469 c 0
 850 467 887 348 855 248 c 0
 853 240 849 232 845 224 c 1
 816 230 l 1
 824 250 l 1
458 223 m 1
 466 250 l 1
 848 250 l 1
 846 222 l 1
 458 223 l 1
62 230 m 0
 101 347 212 471 344 469 c 0
 474 467 491 329 458 230 c 0
 420 116 316 -9 186 -9 c 0
 54 -9 28 126 62 230 c 0
94 230 m 0
 63 141 79 20 195 20 c 0
 307 20 403 132 437 230 c 0
 465 313 455 436 344 440 c 0
 227 444 130 332 94 230 c 0
EndSplineSet
EndChar

StartChar: a.alt
Encoding: 65536 -1 310
Width: 517
VWidth: 0
Flags: HMW
LayerCount: 2
Fore
SplineSet
520 459 m 1
 550 460 l 1
 390 0 l 1
 362 0 l 1
 520 459 l 1
62 230 m 0
 101 348 214 472 348 470 c 0
 476 468 486 325 454 230 c 0
 418 119 317 -8 189 -9 c 0
 55 -10 28 126 62 230 c 0
94 230 m 0
 63 140 81 18 198 20 c 0
 309 22 406 133 440 230 c 0
 468 312 455 436 347 440 c 0
 230 444 130 332 94 230 c 0
EndSplineSet
EndChar

StartChar: Jcircumflex
Encoding: 308 308 312
Width: 197
VWidth: 0
Flags: HMW
LayerCount: 2
Fore
SplineSet
-208 -143 m 1
 -187 -168 -165 -188 -129 -188 c 0
 -51 -189 -10 -114 14 -50 c 1
 271 700 l 1
 302 700 l 1
 42 -60 l 2
 13 -139 -42 -221 -136 -219 c 0
 -178 -218 -207 -197 -232 -166 c 1
 -208 -143 l 1
354 890 m 1
 177 770 l 1
 164 788 l 1
 362 925 l 1
 466 785 l 1
 442 769 l 1
 354 890 l 1
EndSplineSet
EndChar

StartChar: jcircumflex
Encoding: 309 309 313
Width: 188
VWidth: 0
Flags: HMW
LayerCount: 2
Fore
SplineSet
-176 -150 m 1
 -164 -169 -150 -186 -124 -188 c 0
 -62 -190 -24 -121 -4 -72 c 2
 178 460 l 1
 209 460 l 1
 26 -76 l 2
 2 -142 -51 -223 -132 -219 c 0
 -164 -217 -182 -198 -200 -174 c 1
 -176 -150 l 1
261 652 m 1
 86 532 l 1
 70 549 l 1
 268 686 l 1
 374 546 l 1
 351 530 l 1
 261 652 l 1
EndSplineSet
EndChar

StartChar: Nacute
Encoding: 323 323 314
Width: 656
VWidth: 0
Flags: HMW
LayerCount: 2
Fore
SplineSet
742 700 m 1
 774 700 l 1
 526 -20 l 1
 250 631 l 1
 32 0 l 1
 -1 0 l 1
 247 720 l 1
 524 66 l 1
 742 700 l 1
729 907 m 1
 510 757 l 1
 497 770 l 1
 707 926 l 1
 729 907 l 1
EndSplineSet
EndChar

StartChar: nacute
Encoding: 324 324 315
Width: 460
VWidth: 0
Flags: HMW
LayerCount: 2
Fore
SplineSet
211 460 m 1
 52 0 l 1
 20 0 l 1
 180 460 l 1
 211 460 l 1
406 308 m 2
 424 368 423 438 345 440 c 0
 253 442 184 355 146 282 c 1
 135 282 l 1
 175 370 248 469 356 469 c 0
 450 469 459 384 437 311 c 1
 328 0 l 1
 300 0 l 1
 406 308 l 2
548 689 m 1
 331 538 l 1
 317 552 l 1
 527 708 l 1
 548 689 l 1
EndSplineSet
EndChar

StartChar: uni0145
Encoding: 325 325 316
Width: 656
VWidth: 0
Flags: HMW
LayerCount: 2
Fore
SplineSet
270 -44 m 1
 298 -57 l 1
 106 -302 l 1
 86 -295 l 1
 270 -44 l 1
742 700 m 1
 774 700 l 1
 526 -20 l 1
 250 631 l 1
 32 0 l 1
 -1 0 l 1
 247 720 l 1
 524 66 l 1
 742 700 l 1
EndSplineSet
EndChar

StartChar: uni0146
Encoding: 326 326 317
Width: 460
VWidth: 0
Flags: HMW
LayerCount: 2
Fore
SplineSet
211 460 m 1
 52 0 l 1
 20 0 l 1
 180 460 l 1
 211 460 l 1
406 308 m 2
 424 368 423 438 345 440 c 0
 253 442 184 355 146 282 c 1
 132 282 l 1
 172 370 248 469 356 469 c 0
 450 469 459 384 437 311 c 1
 328 0 l 1
 300 0 l 1
 406 308 l 2
172 -48 m 1
 202 -61 l 1
 10 -306 l 1
 -10 -299 l 1
 172 -48 l 1
EndSplineSet
EndChar

StartChar: Ncaron
Encoding: 327 327 318
Width: 656
VWidth: 0
Flags: HMW
LayerCount: 2
Fore
SplineSet
556 809 m 1
 731 930 l 1
 746 912 l 1
 548 774 l 1
 443 914 l 1
 467 932 l 1
 556 809 l 1
742 700 m 1
 774 700 l 1
 526 -20 l 1
 250 631 l 1
 32 0 l 1
 -1 0 l 1
 247 720 l 1
 524 66 l 1
 742 700 l 1
EndSplineSet
EndChar

StartChar: ncaron
Encoding: 328 328 319
Width: 460
VWidth: 0
Flags: HMW
LayerCount: 2
Fore
SplineSet
211 460 m 1
 52 0 l 1
 20 0 l 1
 180 460 l 1
 211 460 l 1
406 308 m 2
 424 368 423 438 345 440 c 0
 253 442 184 355 146 282 c 1
 132 282 l 1
 172 370 248 469 356 469 c 0
 450 469 459 384 437 311 c 1
 328 0 l 1
 300 0 l 1
 406 308 l 2
367 565 m 1
 542 686 l 1
 557 668 l 1
 359 530 l 1
 254 670 l 1
 278 688 l 1
 367 565 l 1
EndSplineSet
EndChar

StartChar: Omacron
Encoding: 332 332 320
Width: 732
VWidth: 0
Flags: HMW
LayerCount: 2
Fore
SplineSet
143 350 m 0
 93 204 137 27 318 25 c 0
 503 23 663 185 720 350 c 0
 770 496 727 673 546 675 c 0
 361 677 200 515 143 350 c 0
108 350 m 0
 169 534 348 709 551 708 c 0
 749 707 809 514 755 350 c 0
 694 166 515 -9 312 -8 c 0
 114 -7 54 186 108 350 c 0
414 783 m 1
 424 812 l 1
 755 812 l 1
 745 782 l 1
 414 783 l 1
EndSplineSet
EndChar

StartChar: omacron
Encoding: 333 333 321
Width: 520
VWidth: 0
Flags: HMW
LayerCount: 2
Fore
SplineSet
62 230 m 0
 102 354 228 469 364 469 c 0
 497 469 543 342 506 230 c 0
 466 106 341 -9 205 -9 c 0
 72 -9 25 118 62 230 c 0
94 230 m 0
 60 134 94 21 210 20 c 0
 329 19 439 122 476 230 c 0
 510 326 475 439 359 440 c 0
 240 441 131 338 94 230 c 0
227 544 m 1
 237 574 l 1
 567 574 l 1
 558 544 l 1
 227 544 l 1
EndSplineSet
EndChar

StartChar: Obreve
Encoding: 334 334 322
Width: 732
VWidth: 0
Flags: HMW
LayerCount: 2
Fore
SplineSet
143 350 m 0
 93 204 137 27 318 25 c 0
 503 23 663 185 720 350 c 0
 770 496 727 673 546 675 c 0
 361 677 200 515 143 350 c 0
108 350 m 0
 169 534 348 709 551 708 c 0
 749 707 809 514 755 350 c 0
 694 166 515 -9 312 -8 c 0
 114 -7 54 186 108 350 c 0
473 908 m 1
 500 908 l 1
 490 847 511 797 581 796 c 0
 655 795 708 848 744 907 c 1
 772 906 l 1
 732 831 666 770 576 770 c 0
 490 770 460 830 473 908 c 1
EndSplineSet
EndChar

StartChar: obreve
Encoding: 335 335 323
Width: 520
VWidth: 0
Flags: HMW
LayerCount: 2
Fore
SplineSet
62 230 m 0
 102 354 228 469 364 469 c 0
 497 469 543 342 506 230 c 0
 466 106 341 -9 205 -9 c 0
 72 -9 25 118 62 230 c 0
94 230 m 0
 60 134 94 21 210 20 c 0
 329 19 439 122 476 230 c 0
 510 326 475 439 359 440 c 0
 240 441 131 338 94 230 c 0
286 670 m 1
 312 670 l 1
 302 609 323 559 393 558 c 0
 467 557 521 609 557 668 c 1
 585 668 l 1
 545 593 479 531 389 531 c 0
 303 531 273 592 286 670 c 1
EndSplineSet
EndChar

StartChar: Racute
Encoding: 340 340 324
Width: 465
VWidth: 0
Flags: HMW
LayerCount: 2
Fore
SplineSet
246 326 m 1
 280 326 l 1
 386 0 l 1
 349 0 l 1
 246 326 l 1
266 699 m 1
 300 700 l 1
 58 0 l 1
 27 0 l 1
 266 699 l 1
270 670 m 1
 280 700 l 1
 394 700 l 0
 509 696 592 622 552 502 c 0
 512 378 388 308 263 304 c 0
 144 304 l 1
 156 334 l 1
 268 334 l 1
 376 338 483 396 520 502 c 0
 556 604 486 665 388 670 c 1
 270 670 l 1
616 920 m 1
 398 770 l 1
 383 784 l 1
 594 940 l 1
 616 920 l 1
EndSplineSet
EndChar

StartChar: uni0156
Encoding: 342 342 325
Width: 465
VWidth: 0
Flags: HMW
LayerCount: 2
Fore
SplineSet
246 326 m 1
 280 326 l 1
 386 0 l 1
 349 0 l 1
 246 326 l 1
266 699 m 1
 300 700 l 1
 58 0 l 1
 27 0 l 1
 266 699 l 1
270 670 m 1
 280 700 l 1
 394 700 l 0
 509 696 592 622 552 502 c 0
 512 378 388 308 263 304 c 0
 144 304 l 1
 156 334 l 1
 268 334 l 1
 376 338 483 396 520 502 c 0
 556 604 486 665 388 670 c 1
 270 670 l 1
184 -62 m 1
 214 -75 l 1
 23 -320 l 1
 3 -313 l 1
 184 -62 l 1
EndSplineSet
EndChar

StartChar: uni0157
Encoding: 343 343 326
Width: 287
VWidth: 0
Flags: HMW
LayerCount: 2
Fore
SplineSet
211 460 m 1
 52 0 l 1
 20 0 l 1
 180 460 l 1
 211 460 l 1
352 420 m 1
 337 430 322 439 304 440 c 0
 222 444 174 344 146 282 c 1
 132 282 l 1
 164 356 219 473 315 469 c 0
 339 469 356 457 375 444 c 1
 352 420 l 1
22 -62 m 1
 50 -75 l 1
 -140 -320 l 1
 -160 -313 l 1
 22 -62 l 1
EndSplineSet
EndChar

StartChar: Scedilla
Encoding: 350 350 327
Width: 475
VWidth: 0
Flags: HMW
LayerCount: 2
Fore
SplineSet
80 206 m 1
 82 124 100 26 202 24 c 0
 296 22 379 91 408 178 c 0
 436 262 384 316 314 352 c 0
 236 392 174 448 204 544 c 0
 234 636 333 708 430 708 c 0
 524 708 557 634 563 552 c 1
 532 538 l 1
 528 608 503 675 422 676 c 0
 344 677 264 618 238 544 c 0
 208 458 278 410 344 376 c 0
 423 336 470 271 442 179 c 0
 410 74 307 -10 195 -8 c 0
 81 -6 51 94 48 190 c 1
 80 206 l 1
200 16 m 1
 226 16 l 1
 140 -69 l 1
 156 -62 176 -52 194 -54 c 0
 232 -59 250 -92 240 -128 c 0
 226 -180 160 -220 108 -220 c 0
 76 -220 56 -204 34 -182 c 1
 52 -167 l 1
 69 -183 86 -197 112 -197 c 0
 152 -197 204 -166 216 -126 c 0
 224 -98 209 -75 181 -72 c 0
 155 -68 124 -84 100 -94 c 1
 200 16 l 1
EndSplineSet
EndChar

StartChar: scedilla
Encoding: 351 351 328
Width: 379
VWidth: 0
Flags: HMW
LayerCount: 2
Fore
SplineSet
54 152 m 1
 54 92 67 22 142 20 c 0
 200 18 262 63 280 119 c 0
 299 177 253 206 207 226 c 0
 149 252 102 285 126 356 c 0
 149 423 220 468 290 468 c 0
 354 468 384 428 396 372 c 1
 367 358 l 1
 357 402 338 438 286 439 c 0
 234 440 173 406 155 356 c 0
 133 294 184 270 232 250 c 0
 288 226 332 187 312 121 c 0
 290 47 212 -9 136 -8 c 0
 48 -7 26 64 26 138 c 1
 54 152 l 1
140 14 m 1
 168 14 l 1
 80 -70 l 1
 96 -63 116 -53 134 -55 c 0
 173 -60 190 -93 180 -130 c 0
 166 -183 100 -222 48 -221 c 0
 16 -221 -3 -205 -25 -183 c 1
 -7 -168 l 1
 10 -184 26 -198 52 -198 c 0
 92 -198 145 -168 157 -128 c 0
 165 -100 150 -76 122 -73 c 0
 96 -69 66 -85 42 -95 c 1
 140 14 l 1
EndSplineSet
EndChar

StartChar: Zcaron
Encoding: 381 381 329
Width: 505
VWidth: 0
Flags: HMW
LayerCount: 2
Fore
SplineSet
209 668 m 1
 220 700 l 1
 678 699 l 1
 30 32 l 1
 436 32 l 1
 425 0 l 1
 -40 0 l 1
 608 668 l 1
 209 668 l 1
480 804 m 1
 656 924 l 1
 672 906 l 1
 473 770 l 1
 368 909 l 1
 392 926 l 1
 480 804 l 1
EndSplineSet
EndChar

StartChar: zcaron
Encoding: 382 382 330
Width: 412
VWidth: 0
Flags: HMW
LayerCount: 2
Fore
SplineSet
350 565 m 1
 526 686 l 1
 540 668 l 1
 342 530 l 1
 237 670 l 1
 261 688 l 1
 350 565 l 1
426 430 m 1
 131 430 l 1
 141 460 l 1
 494 459 l 1
 28 30 l 1
 346 30 l 1
 336 0 l 1
 -40 0 l 1
 426 430 l 1
EndSplineSet
EndChar

StartChar: Ydieresis
Encoding: 376 376 331
Width: 492
VWidth: 0
Flags: HMW
LayerCount: 2
Fore
SplineSet
352 794 m 0
 354 804 371 817 382 816 c 0
 394 815 401 804 399 792 c 0
 397 782 379 768 368 769 c 0
 356 770 350 783 352 794 c 0
526 794 m 0
 528 804 547 817 558 816 c 0
 570 815 576 804 574 792 c 0
 572 782 554 768 543 769 c 0
 531 770 524 783 526 794 c 0
630 698 m 1
 668 698 l 1
 299 276 l 1
 204 0 l 1
 171 0 l 1
 268 279 l 1
 196 700 l 1
 231 700 l 1
 292 311 l 1
 630 698 l 1
EndSplineSet
EndChar

StartChar: Scaron
Encoding: 352 352 332
Width: 475
VWidth: 0
Flags: HMW
LayerCount: 2
Fore
SplineSet
80 206 m 1
 82 124 100 26 202 24 c 0
 296 22 379 91 408 178 c 0
 436 262 384 315 314 352 c 0
 237 392 174 452 204 546 c 0
 234 638 334 709 430 708 c 0
 523 707 559 634 563 552 c 1
 532 538 l 1
 528 607 505 674 425 676 c 0
 347 677 264 618 238 544 c 0
 208 458 278 410 344 376 c 0
 423 336 470 271 442 179 c 0
 410 73 308 -10 195 -8 c 0
 81 -6 51 94 48 190 c 1
 80 206 l 1
464 810 m 1
 640 932 l 1
 656 914 l 1
 457 776 l 1
 352 916 l 1
 376 933 l 1
 464 810 l 1
EndSplineSet
EndChar

StartChar: scaron
Encoding: 353 353 333
Width: 379
VWidth: 0
Flags: HMW
LayerCount: 2
Fore
SplineSet
56 151 m 1
 52 89 64 21 140 20 c 0
 198 19 262 63 280 119 c 0
 300 177 253 206 207 226 c 0
 150 252 102 286 126 356 c 0
 148 422 222 468 290 468 c 0
 354 468 385 429 396 371 c 1
 367 358 l 1
 357 402 338 438 286 438 c 0
 234 438 172 404 154 354 c 0
 132 294 185 268 232 248 c 0
 286 224 331 185 312 120 c 0
 290 45 211 -11 134 -9 c 0
 46 -8 22 63 26 138 c 1
 56 151 l 1
323 565 m 1
 498 686 l 1
 514 668 l 1
 316 530 l 1
 210 670 l 1
 234 688 l 1
 323 565 l 1
EndSplineSet
EndChar

StartChar: Lslash
Encoding: 321 321 334
Width: 373
VWidth: 0
Flags: HMW
LayerCount: 2
Fore
SplineSet
68 374 m 1
 66 397 l 1
 378 564 l 1
 382 541 l 1
 68 374 l 1
260 700 m 1
 294 700 l 1
 64 31 l 1
 322 31 l 1
 310 0 l 1
 20 0 l 1
 260 700 l 1
EndSplineSet
EndChar

StartChar: lslash
Encoding: 322 322 335
Width: 169
VWidth: 0
Flags: HMW
LayerCount: 2
Fore
SplineSet
70 374 m 1
 66 397 l 1
 306 544 l 1
 310 521 l 1
 70 374 l 1
283 779 m 1
 314 780 l 1
 45 0 l 1
 16 0 l 1
 283 779 l 1
EndSplineSet
EndChar

StartChar: uni0218
Encoding: 536 536 336
Width: 475
VWidth: 0
Flags: HMW
LayerCount: 2
Fore
SplineSet
80 206 m 1
 82 124 100 26 202 24 c 0
 296 22 379 91 408 178 c 0
 436 262 384 315 314 352 c 0
 237 392 174 452 204 546 c 0
 234 638 334 709 430 708 c 0
 523 707 559 634 563 552 c 1
 532 538 l 1
 528 607 505 674 425 676 c 0
 347 677 264 618 238 544 c 0
 208 458 278 410 344 376 c 0
 423 336 470 271 442 179 c 0
 410 73 308 -10 195 -8 c 0
 81 -6 51 94 48 190 c 1
 80 206 l 1
204 -70 m 1
 232 -84 l 1
 41 -329 l 1
 21 -322 l 1
 204 -70 l 1
EndSplineSet
EndChar

StartChar: uni0219
Encoding: 537 537 337
Width: 379
VWidth: 0
Flags: HMW
LayerCount: 2
Fore
SplineSet
56 151 m 1
 52 89 64 21 140 20 c 0
 198 19 262 63 280 119 c 0
 300 177 253 206 207 226 c 0
 150 252 102 286 126 356 c 0
 148 422 222 468 290 468 c 0
 354 468 385 429 396 371 c 1
 367 358 l 1
 357 402 338 438 286 438 c 0
 234 438 172 404 154 354 c 0
 132 294 185 268 232 248 c 0
 286 224 331 185 312 120 c 0
 290 45 211 -11 134 -9 c 0
 46 -8 22 63 26 138 c 1
 56 151 l 1
142 -72 m 1
 170 -85 l 1
 -21 -330 l 1
 -41 -323 l 1
 142 -72 l 1
EndSplineSet
EndChar

StartChar: pi
Encoding: 960 960 338
Width: 461
VWidth: 0
Flags: HMW
LayerCount: 2
Fore
SplineSet
182 443 m 1
 214 444 l 1
 59 0 l 1
 30 0 l 1
 182 443 l 1
130 460 m 1
 528 460 l 1
 518 430 l 1
 120 430 l 1
 130 460 l 1
418 444 m 1
 448 444 l 1
 338 127 l 1
 323 81 304 46 352 22 c 1
 342 -8 l 1
 273 12 286 61 306 121 c 1
 418 444 l 1
EndSplineSet
EndChar

StartChar: trademark
Encoding: 8482 8482 339
Width: 625
VWidth: 0
Flags: HMW
LayerCount: 2
Fore
SplineSet
214 684 m 1
 218 700 l 1
 411 700 l 1
 406 684 l 1
 317 684 l 1
 202 351 l 1
 186 351 l 1
 300 684 l 1
 214 684 l 1
720 662 m 1
 750 714 l 1
 660 350 l 1
 644 350 l 1
 720 662 l 1
486 710 m 1
 478 660 l 1
 339 351 l 1
 322 352 l 1
 486 710 l 1
751 712 m 1
 732 668 l 1
 508 396 l 1
 472 673 l 1
 484 710 l 1
 518 432 l 1
 751 712 l 1
EndSplineSet
EndChar

StartChar: uni2219
Encoding: 8729 8729 340
Width: 255
VWidth: 0
Flags: HMW
LayerCount: 2
Fore
SplineSet
200 440 m 0
 202 450 220 463 231 462 c 0
 243 461 248 450 246 438 c 0
 244 428 227 414 216 415 c 0
 204 416 198 428 200 440 c 0
EndSplineSet
EndChar

StartChar: agrave.alt
Encoding: 65537 -1 341
Width: 517
VWidth: 0
Flags: HMW
LayerCount: 2
Fore
SplineSet
520 459 m 1
 550 460 l 1
 390 0 l 1
 362 0 l 1
 520 459 l 1
62 230 m 0
 101 348 214 472 348 470 c 0
 476 468 486 325 454 230 c 0
 418 119 317 -8 189 -9 c 0
 55 -10 28 126 62 230 c 0
94 230 m 0
 63 140 81 18 198 20 c 0
 309 22 406 133 440 230 c 0
 468 312 455 436 347 440 c 0
 230 444 130 332 94 230 c 0
320 692 m 1
 351 709 l 1
 453 549 l 1
 436 538 l 1
 320 692 l 1
EndSplineSet
EndChar

StartChar: aacute.alt
Encoding: 65538 -1 342
Width: 517
VWidth: 0
Flags: HMW
LayerCount: 2
Fore
SplineSet
520 459 m 1
 550 460 l 1
 390 0 l 1
 362 0 l 1
 520 459 l 1
62 230 m 0
 101 348 214 472 348 470 c 0
 476 468 486 325 454 230 c 0
 418 119 317 -8 189 -9 c 0
 55 -10 28 126 62 230 c 0
94 230 m 0
 63 140 81 18 198 20 c 0
 309 22 406 133 440 230 c 0
 468 312 455 436 347 440 c 0
 230 444 130 332 94 230 c 0
528 689 m 1
 308 539 l 1
 295 552 l 1
 504 708 l 1
 528 689 l 1
EndSplineSet
EndChar

StartChar: acircumflex.alt
Encoding: 65539 -1 343
Width: 517
VWidth: 0
Flags: HMW
LayerCount: 2
Fore
SplineSet
520 459 m 1
 550 460 l 1
 390 0 l 1
 362 0 l 1
 520 459 l 1
62 230 m 0
 101 348 214 472 348 470 c 0
 476 468 486 325 454 230 c 0
 418 119 317 -8 189 -9 c 0
 55 -10 28 126 62 230 c 0
94 230 m 0
 63 140 81 18 198 20 c 0
 309 22 406 133 440 230 c 0
 468 312 455 436 347 440 c 0
 230 444 130 332 94 230 c 0
426 666 m 1
 250 546 l 1
 235 563 l 1
 434 700 l 1
 538 560 l 1
 516 544 l 1
 426 666 l 1
EndSplineSet
EndChar

StartChar: atilde.alt
Encoding: 65540 -1 344
Width: 517
VWidth: 0
Flags: HMW
LayerCount: 2
Fore
SplineSet
520 459 m 1
 550 460 l 1
 390 0 l 1
 362 0 l 1
 520 459 l 1
62 230 m 0
 101 348 214 472 348 470 c 0
 476 468 486 325 454 230 c 0
 418 119 317 -8 189 -9 c 0
 55 -10 28 126 62 230 c 0
94 230 m 0
 63 140 81 18 198 20 c 0
 309 22 406 133 440 230 c 0
 468 312 455 436 347 440 c 0
 230 444 130 332 94 230 c 0
254 558 m 1
 254 587 320 620 346 620 c 0
 386 620 407 573 447 575 c 0
 475 577 498 603 517 621 c 1
 534 606 l 1
 510 582 479 548 441 549 c 0
 403 550 381 596 342 594 c 0
 310 592 292 567 274 545 c 1
 254 558 l 1
EndSplineSet
EndChar

StartChar: adieresis.alt
Encoding: 65541 -1 345
Width: 517
VWidth: 0
Flags: HMW
LayerCount: 2
Fore
SplineSet
520 459 m 1
 550 460 l 1
 390 0 l 1
 362 0 l 1
 520 459 l 1
62 230 m 0
 101 348 214 472 348 470 c 0
 476 468 486 325 454 230 c 0
 418 119 317 -8 189 -9 c 0
 55 -10 28 126 62 230 c 0
94 230 m 0
 63 140 81 18 198 20 c 0
 309 22 406 133 440 230 c 0
 468 312 455 436 347 440 c 0
 230 444 130 332 94 230 c 0
474 590 m 0
 476 600 493 614 504 613 c 0
 516 612 522 600 520 588 c 0
 518 578 501 565 490 566 c 0
 478 567 472 578 474 590 c 0
286 590 m 0
 288 600 305 614 316 613 c 0
 328 612 334 600 332 588 c 0
 330 578 313 565 302 566 c 0
 290 567 284 578 286 590 c 0
EndSplineSet
EndChar

StartChar: aring.alt
Encoding: 65542 -1 346
Width: 517
VWidth: 0
Flags: HMW
LayerCount: 2
Fore
SplineSet
520 459 m 1
 550 460 l 1
 390 0 l 1
 362 0 l 1
 520 459 l 1
62 230 m 0
 101 348 214 472 348 470 c 0
 476 468 486 325 454 230 c 0
 418 119 317 -8 189 -9 c 0
 55 -10 28 126 62 230 c 0
94 230 m 0
 63 140 81 18 198 20 c 0
 309 22 406 133 440 230 c 0
 468 312 455 436 347 440 c 0
 230 444 130 332 94 230 c 0
298 630 m 0
 314 680 373 729 427 728 c 0
 481 727 508 676 492 628 c 0
 476 578 416 529 362 530 c 0
 308 531 282 582 298 630 c 0
319 630 m 0
 307 594 326 554 366 552 c 0
 408 550 458 592 470 630 c 0
 482 666 464 706 424 708 c 0
 382 710 331 668 319 630 c 0
EndSplineSet
EndChar

StartChar: amacron.alt
Encoding: 65543 -1 347
Width: 517
VWidth: 0
Flags: HMW
LayerCount: 2
Fore
SplineSet
520 459 m 1
 550 460 l 1
 390 0 l 1
 362 0 l 1
 520 459 l 1
62 230 m 0
 101 348 214 472 348 470 c 0
 476 468 486 325 454 230 c 0
 418 119 317 -8 189 -9 c 0
 55 -10 28 126 62 230 c 0
94 230 m 0
 63 140 81 18 198 20 c 0
 309 22 406 133 440 230 c 0
 468 312 455 436 347 440 c 0
 230 444 130 332 94 230 c 0
214 550 m 1
 224 580 l 1
 554 580 l 1
 544 550 l 1
 214 550 l 1
EndSplineSet
EndChar

StartChar: abreve.alt
Encoding: 65544 -1 348
Width: 517
VWidth: 0
Flags: HMW
LayerCount: 2
Fore
SplineSet
520 459 m 1
 550 460 l 1
 390 0 l 1
 362 0 l 1
 520 459 l 1
62 230 m 0
 101 348 214 472 348 470 c 0
 476 468 486 325 454 230 c 0
 418 119 317 -8 189 -9 c 0
 55 -10 28 126 62 230 c 0
94 230 m 0
 63 140 81 18 198 20 c 0
 309 22 406 133 440 230 c 0
 468 312 455 436 347 440 c 0
 230 444 130 332 94 230 c 0
262 684 m 1
 289 684 l 1
 280 623 300 572 370 571 c 0
 444 570 499 622 534 682 c 1
 562 682 l 1
 524 606 457 544 367 544 c 0
 281 544 250 606 262 684 c 1
EndSplineSet
EndChar

StartChar: aogonek.alt
Encoding: 65545 -1 349
Width: 517
VWidth: 0
Flags: HMW
LayerCount: 2
Fore
SplineSet
520 459 m 1
 550 460 l 1
 390 0 l 1
 362 0 l 1
 520 459 l 1
62 230 m 0
 101 348 214 472 348 470 c 0
 476 468 486 325 454 230 c 0
 418 119 317 -8 189 -9 c 0
 55 -10 28 126 62 230 c 0
94 230 m 0
 63 140 81 18 198 20 c 0
 309 22 406 133 440 230 c 0
 468 312 455 436 347 440 c 0
 230 444 130 332 94 230 c 0
359 -161 m 1
 367 -182 l 1
 336 -202 303 -219 265 -219 c 0
 214 -219 175 -187 190 -133 c 0
 212 -55 312 -16 378 14 c 1
 392 0 l 1
 336 -28 240 -60 222 -128 c 0
 212 -166 237 -189 273 -191 c 0
 303 -193 333 -175 359 -161 c 1
EndSplineSet
EndChar

StartChar: dagger
Encoding: 8224 8224 350
Width: 489
VWidth: 0
Flags: HMW
LayerCount: 2
Fore
SplineSet
216 540 m 1
 538 540 l 1
 529 510 l 1
 206 510 l 1
 216 540 l 1
412 700 m 1
 442 700 l 1
 179 -150 l 1
 150 -150 l 1
 412 700 l 1
EndSplineSet
EndChar

StartChar: daggerdbl
Encoding: 8225 8225 351
Width: 489
VWidth: 0
Flags: HMW
LayerCount: 2
Fore
SplineSet
86 120 m 1
 410 120 l 1
 400 90 l 1
 78 90 l 1
 86 120 l 1
216 540 m 1
 538 540 l 1
 529 510 l 1
 206 510 l 1
 216 540 l 1
412 700 m 1
 442 700 l 1
 179 -150 l 1
 150 -150 l 1
 412 700 l 1
EndSplineSet
EndChar

StartChar: ellipsis
Encoding: 8230 8230 352
Width: 788
VWidth: 0
Flags: HMW
LayerCount: 2
Fore
SplineSet
56 14 m 0
 58 24 75 37 86 36 c 0
 98 35 104 24 102 12 c 0
 100 2 83 -12 72 -11 c 0
 60 -10 54 2 56 14 c 0
322 14 m 0
 324 24 341 37 352 36 c 0
 364 35 370 24 368 12 c 0
 366 2 349 -12 338 -11 c 0
 326 -10 320 2 322 14 c 0
587 14 m 0
 589 24 607 37 618 36 c 0
 630 35 636 24 634 12 c 0
 632 2 615 -12 604 -11 c 0
 592 -10 585 2 587 14 c 0
EndSplineSet
EndChar

StartChar: uniFF10
Encoding: 65296 65296 353
Width: 525
VWidth: 0
Flags: HMW
LayerCount: 2
Fore
SplineSet
142 350 m 0
 110 259 53 24 213 22 c 0
 371 20 471 224 514 350 c 0
 546 441 604 676 444 678 c 0
 286 680 185 476 142 350 c 0
110 350 m 0
 158 494 270 711 448 709 c 0
 630 707 584 460 547 350 c 0
 499 206 386 -11 208 -9 c 0
 26 -7 73 240 110 350 c 0
EndSplineSet
EndChar

StartChar: uniFF11
Encoding: 65297 65297 354
Width: 525
VWidth: 0
Flags: HMW
LayerCount: 2
Fore
SplineSet
300 627 m 1
 312 662 l 1
 516 707 l 1
 272 0 l 1
 240 0 l 1
 470 664 l 1
 300 627 l 1
EndSplineSet
EndChar

StartChar: uniFF12
Encoding: 65298 65298 355
Width: 525
VWidth: 0
Flags: HMW
LayerCount: 2
Fore
SplineSet
-19 0 m 1
 399 340 l 2
 457 388 518 441 544 515 c 0
 572 593 542 677 450 679 c 0
 326 681 245 561 199 461 c 1
 168 462 l 1
 218 580 312 712 456 710 c 0
 566 708 608 609 576 513 c 0
 550 433 484 374 422 322 c 2
 60 32 l 1
 432 31 l 1
 421 0 l 1
 -19 0 l 1
EndSplineSet
EndChar

StartChar: uniFF13
Encoding: 65299 65299 356
Width: 525
VWidth: 0
Flags: HMW
LayerCount: 2
Fore
SplineSet
306 358 m 1
 314 380 l 1
 407 392 509 435 543 530 c 0
 569 604 536 677 452 679 c 0
 356 681 288 606 247 528 c 1
 216 528 l 1
 262 624 343 711 457 709 c 0
 557 708 607 621 576 530 c 0
 538 416 416 368 306 358 c 1
213 -9 m 0
 95 -9 48 79 72 185 c 1
 104 184 l 1
 84 94 116 22 218 22 c 0
 314 22 413 89 443 181 c 0
 478 285 396 338 304 350 c 1
 311 370 l 1
 419 360 513 298 474 178 c 0
 438 70 327 -9 213 -9 c 0
EndSplineSet
EndChar

StartChar: uniFF14
Encoding: 65300 65300 357
Width: 525
VWidth: 0
Flags: HMW
LayerCount: 2
Fore
SplineSet
12 141 m 1
 49 168 l 1
 374 170 l 1
 382 170 l 1
 500 170 l 1
 490 140 l 1
 12 141 l 1
48 142 m 1
 12 141 l 1
 566 698 l 1
 579 699 l 1
 338 0 l 1
 306 0 l 1
 360 152 l 1
 361 159 l 1
 518 614 l 1
 48 142 l 1
EndSplineSet
EndChar

StartChar: uniFF15
Encoding: 65301 65301 358
Width: 525
VWidth: 0
Flags: HMW
LayerCount: 2
Fore
SplineSet
496 230 m 0
 456 103 335 -9 197 -9 c 0
 102 -9 53 50 37 138 c 1
 68 155 l 1
 81 79 118 23 202 22 c 0
 322 21 424 121 462 230 c 0
 492 316 467 417 362 421 c 0
 279 425 205 376 141 330 c 1
 180 370 l 1
 231 418 306 453 377 451 c 0
 499 449 528 329 496 230 c 0
371 670 m 1
 200 376 l 1
 138 326 l 1
 355 699 l 1
 667 700 l 1
 658 671 l 1
 371 670 l 1
EndSplineSet
EndChar

StartChar: uniFF16
Encoding: 65302 65302 359
Width: 525
VWidth: 0
Flags: HMW
LayerCount: 2
Fore
SplineSet
104 223 m 0
 72 131 101 23 213 21 c 0
 327 19 431 119 466 223 c 0
 495 309 466 414 361 416 c 0
 249 418 140 325 104 223 c 0
500 698 m 1
 542 698 l 1
 205 374 l 1
 202 376 l 1
 252 412 310 444 374 442 c 0
 492 438 527 320 496 222 c 0
 458 100 341 -9 208 -9 c 0
 76 -9 37 113 74 223 c 0
 94 282 132 334 174 378 c 2
 500 698 l 1
EndSplineSet
EndChar

StartChar: uniFF17
Encoding: 65303 65303 360
Width: 525
VWidth: 0
Flags: HMW
LayerCount: 2
Fore
SplineSet
224 669 m 1
 234 700 l 1
 686 699 l 1
 106 0 l 1
 72 0 l 1
 624 668 l 1
 224 669 l 1
EndSplineSet
EndChar

StartChar: uniFF18
Encoding: 65304 65304 361
Width: 525
VWidth: 0
Flags: HMW
LayerCount: 2
Fore
SplineSet
224 538 m 0
 254 628 350 710 448 709 c 0
 542 708 590 621 562 537 c 0
 532 446 434 365 336 365 c 0
 241 365 196 453 224 538 c 0
252 535 m 0
 230 469 260 388 338 386 c 0
 419 384 504 462 530 535 c 0
 554 603 524 678 444 680 c 0
 362 682 278 611 252 535 c 0
82 187 m 0
 116 289 225 377 335 376 c 0
 441 376 492 282 462 186 c 0
 428 80 321 -10 208 -9 c 0
 98 -8 50 89 82 187 c 0
114 190 m 0
 84 108 116 22 212 20 c 0
 309 18 403 100 433 190 c 0
 459 267 422 353 332 355 c 0
 239 357 144 274 114 190 c 0
EndSplineSet
EndChar

StartChar: uniFF19
Encoding: 65305 65305 362
Width: 525
VWidth: 0
Flags: HMW
LayerCount: 2
Fore
SplineSet
552 477 m 0
 584 569 556 677 444 679 c 0
 330 681 225 581 190 477 c 0
 161 391 191 286 296 284 c 0
 408 282 516 375 552 477 c 0
156 0 m 1
 115 0 l 1
 450 326 l 1
 454 324 l 1
 404 288 347 256 283 258 c 0
 165 262 129 380 160 478 c 0
 198 600 315 709 448 709 c 0
 580 709 621 587 584 477 c 0
 564 418 524 366 482 322 c 2
 156 0 l 1
EndSplineSet
EndChar

StartChar: caron
Encoding: 711 711 363
Width: 451
VWidth: 0
Flags: HMW
LayerCount: 2
Fore
SplineSet
376 605 m 1
 550 726 l 1
 566 708 l 1
 368 570 l 1
 262 710 l 1
 286 728 l 1
 376 605 l 1
EndSplineSet
EndChar

StartChar: napostrophe
Encoding: 329 329 364
Width: 583
VWidth: 0
Flags: HMW
LayerCount: 2
Fore
SplineSet
301 460 m 1
 142 0 l 1
 112 0 l 1
 271 460 l 1
 301 460 l 1
496 308 m 2
 514 368 514 438 436 440 c 0
 344 442 276 355 238 282 c 1
 223 282 l 1
 263 370 338 469 446 469 c 0
 540 469 549 384 527 311 c 1
 419 0 l 1
 390 0 l 1
 496 308 l 2
336 698 m 1
 374 698 l 1
 200 472 l 1
 176 472 l 1
 336 698 l 1
EndSplineSet
EndChar

StartChar: IJ
Encoding: 306 306 365
Width: 461
VWidth: 0
Flags: HMW
LayerCount: 2
Fore
SplineSet
28 -143 m 1
 49 -168 71 -188 107 -188 c 0
 185 -189 225 -114 249 -50 c 1
 506 700 l 1
 538 700 l 1
 278 -60 l 2
 249 -139 194 -221 100 -219 c 0
 58 -218 29 -197 4 -166 c 1
 28 -143 l 1
264 699 m 1
 296 700 l 1
 54 0 l 1
 24 0 l 1
 264 699 l 1
EndSplineSet
EndChar

StartChar: ij
Encoding: 307 307 366
Width: 479
VWidth: 0
Flags: HMW
LayerCount: 2
Fore
SplineSet
490 682 m 0
 492 692 509 705 520 704 c 0
 532 703 538 693 536 681 c 0
 534 671 517 657 506 658 c 0
 494 659 488 670 490 682 c 0
68 -150 m 1
 84 -150 101 -186 121 -188 c 0
 181 -196 222 -118 240 -72 c 2
 424 460 l 1
 454 460 l 1
 270 -76 l 2
 246 -142 194 -223 113 -219 c 0
 81 -217 63 -198 45 -174 c 1
 68 -150 l 1
255 682 m 0
 257 692 273 705 284 704 c 0
 296 703 302 693 300 681 c 0
 298 671 281 657 270 658 c 0
 258 659 253 670 255 682 c 0
188 459 m 1
 218 460 l 1
 59 0 l 1
 30 0 l 1
 188 459 l 1
EndSplineSet
EndChar

StartChar: uni0237
Encoding: 567 567 367
Width: 188
VWidth: 0
Flags: HMW
LayerCount: 2
Fore
SplineSet
-176 -150 m 1
 -164 -169 -150 -186 -124 -188 c 0
 -62 -190 -24 -121 -4 -72 c 2
 178 460 l 1
 209 460 l 1
 26 -76 l 2
 2 -142 -51 -223 -132 -219 c 0
 -164 -217 -182 -198 -200 -174 c 1
 -176 -150 l 1
EndSplineSet
EndChar

StartChar: Sacute
Encoding: 346 346 368
Width: 475
VWidth: 0
Flags: HMW
LayerCount: 2
Fore
SplineSet
80 206 m 1
 82 124 100 26 202 24 c 0
 296 22 379 91 408 178 c 0
 436 262 384 315 314 352 c 0
 237 392 174 452 204 546 c 0
 234 638 334 709 430 708 c 0
 523 707 559 634 563 552 c 1
 532 538 l 1
 528 607 505 674 425 676 c 0
 347 677 264 618 238 544 c 0
 208 458 278 410 344 376 c 0
 423 336 470 271 442 179 c 0
 410 73 308 -10 195 -8 c 0
 81 -6 51 94 48 190 c 1
 80 206 l 1
660 920 m 1
 442 770 l 1
 428 784 l 1
 638 940 l 1
 660 920 l 1
EndSplineSet
EndChar

StartChar: sacute
Encoding: 347 347 369
Width: 379
VWidth: 0
Flags: HMW
LayerCount: 2
Fore
SplineSet
56 151 m 1
 52 89 64 21 140 20 c 0
 198 19 262 63 280 119 c 0
 300 177 253 206 207 226 c 0
 150 252 102 286 126 356 c 0
 148 422 222 468 290 468 c 0
 354 468 385 429 396 371 c 1
 367 358 l 1
 357 402 338 438 286 438 c 0
 234 438 172 404 154 354 c 0
 132 294 185 268 232 248 c 0
 286 224 331 185 312 120 c 0
 290 45 211 -11 134 -9 c 0
 46 -8 22 63 26 138 c 1
 56 151 l 1
521 682 m 1
 304 532 l 1
 289 545 l 1
 498 701 l 1
 521 682 l 1
EndSplineSet
EndChar

StartChar: Scircumflex
Encoding: 348 348 370
Width: 475
VWidth: 0
Flags: HMW
LayerCount: 2
Fore
SplineSet
80 206 m 1
 82 124 100 26 202 24 c 0
 296 22 379 91 408 178 c 0
 436 262 384 315 314 352 c 0
 237 392 174 452 204 546 c 0
 234 638 334 709 430 708 c 0
 523 707 559 634 563 552 c 1
 532 538 l 1
 528 607 505 674 425 676 c 0
 347 677 264 618 238 544 c 0
 208 458 278 410 344 376 c 0
 423 336 470 271 442 179 c 0
 410 73 308 -10 195 -8 c 0
 81 -6 51 94 48 190 c 1
 80 206 l 1
498 890 m 1
 322 770 l 1
 308 788 l 1
 506 925 l 1
 611 785 l 1
 588 769 l 1
 498 890 l 1
EndSplineSet
EndChar

StartChar: scircumflex
Encoding: 349 349 371
Width: 379
VWidth: 0
Flags: HMW
LayerCount: 2
Fore
SplineSet
56 151 m 1
 52 89 64 21 140 20 c 0
 198 19 262 63 280 119 c 0
 300 177 253 206 207 226 c 0
 150 252 102 286 126 356 c 0
 148 422 222 468 290 468 c 0
 354 468 385 429 396 371 c 1
 367 358 l 1
 357 402 338 438 286 438 c 0
 234 438 172 404 154 354 c 0
 132 294 185 268 232 248 c 0
 286 224 331 185 312 120 c 0
 290 45 211 -11 134 -9 c 0
 46 -8 22 63 26 138 c 1
 56 151 l 1
358 652 m 1
 183 532 l 1
 168 549 l 1
 366 686 l 1
 471 546 l 1
 448 530 l 1
 358 652 l 1
EndSplineSet
EndChar

StartChar: uni1E9E
Encoding: 7838 7838 372
Width: 681
VWidth: 0
Flags: HMW
LayerCount: 2
Fore
SplineSet
366 -10 m 0
 499 -10 605 64 605 192 c 0
 605 348 510 330 510 386 c 0
 510 453 693 427 693 580 c 0
 693 651 632 708 517 708 c 0
 367 708 221 607 164 434 c 2
 20 -0 l 1
 54 -0 l 1
 198 428 l 2
 250 581 377 678 519 678 c 0
 623 678 658 622 658 574 c 0
 658 444 472 477 472 382 c 0
 472 306 568 326 568 190 c 0
 568 82 480 22 368 22 c 0
 305 22 265 39 211 81 c 1
 194 54 l 1
 244 14 287 -10 366 -10 c 0
EndSplineSet
EndChar

StartChar: Zacute
Encoding: 377 377 373
Width: 505
VWidth: 0
Flags: HW
LayerCount: 2
Fore
SplineSet
209 668 m 1
 220 700 l 1
 678 699 l 1
 30 32 l 1
 436 32 l 1
 425 0 l 1
 -40 0 l 1
 608 668 l 1
 209 668 l 1
668 920 m 1
 448 770 l 1
 435 784 l 1
 644 940 l 1
 668 920 l 1
EndSplineSet
EndChar

StartChar: zacute
Encoding: 378 378 374
Width: 412
VWidth: 0
Flags: HW
LayerCount: 2
Fore
SplineSet
425 430 m 1
 131 430 l 1
 141 460 l 1
 494 459 l 1
 30 30 l 1
 346 30 l 1
 336 0 l 1
 -40 0 l 1
 425 430 l 1
538 688 m 1
 320 538 l 1
 306 551 l 1
 516 707 l 1
 538 688 l 1
EndSplineSet
EndChar

StartChar: Zdotaccent
Encoding: 379 379 375
Width: 505
VWidth: 0
Flags: HW
LayerCount: 2
Fore
SplineSet
209 668 m 1
 220 700 l 1
 678 699 l 1
 30 32 l 1
 436 32 l 1
 425 0 l 1
 -40 0 l 1
 608 668 l 1
 209 668 l 1
457 794 m 0
 459 804 475 817 486 816 c 0
 498 815 506 804 504 792 c 0
 502 782 483 768 472 769 c 0
 460 770 455 782 457 794 c 0
EndSplineSet
EndChar

StartChar: zdotaccent
Encoding: 380 380 376
Width: 412
VWidth: 0
Flags: HW
LayerCount: 2
Fore
SplineSet
425 430 m 1
 131 430 l 1
 141 460 l 1
 494 459 l 1
 30 30 l 1
 346 30 l 1
 336 0 l 1
 -40 0 l 1
 425 430 l 1
336 585 m 0
 338 595 355 609 366 608 c 0
 378 607 384 596 382 584 c 0
 380 574 363 559 352 560 c 0
 340 561 334 573 336 585 c 0
EndSplineSet
EndChar

StartChar: Tcaron
Encoding: 356 356 377
Width: 414
VWidth: 0
Flags: HW
LayerCount: 2
Fore
SplineSet
189 668 m 1
 200 700 l 1
 585 700 l 1
 574 668 l 1
 398 668 l 1
 168 0 l 1
 136 0 l 1
 365 668 l 1
 189 668 l 1
425 804 m 1
 600 924 l 1
 615 906 l 1
 417 770 l 1
 312 909 l 1
 336 926 l 1
 425 804 l 1
EndSplineSet
EndChar

StartChar: tcaron
Encoding: 357 357 378
Width: 282
VWidth: 0
Flags: HW
LayerCount: 2
Fore
SplineSet
114 460 m 1
 286 460 l 1
 274 430 l 1
 103 430 l 1
 114 460 l 1
239 619 m 1
 270 620 l 1
 56 0 l 1
 27 0 l 1
 239 619 l 1
477 784 m 1
 506 770 l 1
 314 525 l 1
 295 532 l 1
 477 784 l 1
EndSplineSet
EndChar

StartChar: Uring
Encoding: 366 366 379
Width: 555
VWidth: 0
Flags: HW
LayerCount: 2
Fore
SplineSet
262 700 m 1
 294 700 l 1
 130 223 l 2
 102 133 113 24 229 22 c 0
 346 20 430 123 468 223 c 1
 633 700 l 1
 666 700 l 1
 502 223 l 2
 459 104 360 -9 224 -9 c 0
 89 -9 66 115 99 223 c 1
 262 700 l 1
423 870 m 0
 439 920 499 969 553 968 c 0
 607 967 634 916 618 868 c 0
 602 818 542 769 488 770 c 0
 434 771 407 822 423 870 c 0
445 868 m 0
 433 832 452 792 492 790 c 0
 534 788 584 831 596 869 c 0
 608 905 589 944 549 946 c 0
 507 948 457 906 445 868 c 0
EndSplineSet
EndChar

StartChar: uring
Encoding: 367 367 380
Width: 460
VWidth: 0
Flags: HW
LayerCount: 2
Fore
SplineSet
298 0 m 1
 458 460 l 1
 488 460 l 1
 330 0 l 1
 298 0 l 1
106 159 m 2
 88 99 83 22 165 20 c 0
 257 18 324 104 362 178 c 1
 374 178 l 1
 334 90 262 -11 154 -9 c 0
 56 -9 53 82 75 156 c 1
 181 460 l 1
 210 459 l 1
 106 159 l 2
294 632 m 0
 310 682 370 730 424 729 c 0
 478 728 504 676 488 628 c 0
 472 578 412 530 358 531 c 0
 304 532 278 584 294 632 c 0
316 630 m 0
 304 594 322 554 362 552 c 0
 404 550 454 592 466 630 c 0
 478 666 460 706 420 708 c 0
 378 710 328 668 316 630 c 0
EndSplineSet
EndChar

StartChar: uni0123
Encoding: 291 291 381
Width: 536
VWidth: 0
Flags: HW
LayerCount: 2
Fore
SplineSet
-12 -30 m 1
 18 -30 l 1
 -1 -114 15 -198 117 -200 c 0
 236 -202 326 -92 364 10 c 1
 518 460 l 1
 550 460 l 1
 396 10 l 2
 352 -109 251 -229 114 -229 c 0
 -5 -229 -35 -130 -12 -30 c 1
62 230 m 0
 100 348 213 472 347 470 c 0
 475 468 485 326 454 230 c 0
 418 119 318 -8 190 -9 c 0
 56 -11 28 125 62 230 c 0
94 230 m 0
 62 140 81 20 198 20 c 0
 310 20 406 136 440 234 c 0
 468 314 454 436 348 440 c 0
 231 445 130 332 94 230 c 0
388 562 m 1
 362 581 l 1
 580 806 l 1
 599 793 l 1
 388 562 l 1
EndSplineSet
EndChar

StartChar: Hbar
Encoding: 294 294 382
Width: 627
VWidth: 0
Flags: HW
LayerCount: 2
Fore
SplineSet
168 366 m 1
 178 397 l 1
 618 397 l 1
 608 366 l 1
 168 366 l 1
698 699 m 1
 733 700 l 1
 492 0 l 1
 460 0 l 1
 698 699 l 1
266 699 m 1
 300 700 l 1
 58 0 l 1
 27 0 l 1
 266 699 l 1
150 586 m 1
 160 615 l 1
 780 615 l 1
 771 586 l 1
 150 586 l 1
EndSplineSet
EndChar

StartChar: hbar
Encoding: 295 295 383
Width: 493
VWidth: 0
Flags: HW
LayerCount: 2
Fore
SplineSet
320 780 m 1
 52 0 l 1
 20 0 l 1
 290 780 l 1
 320 780 l 1
406 308 m 2
 424 367 424 437 346 439 c 0
 254 441 186 355 148 282 c 1
 135 282 l 1
 175 370 247 469 355 469 c 0
 449 469 459 384 437 311 c 1
 328 0 l 1
 300 0 l 1
 406 308 l 2
180 671 m 1
 189 700 l 1
 484 700 l 1
 475 671 l 1
 180 671 l 1
EndSplineSet
EndChar

StartChar: Utilde
Encoding: 360 360 384
Width: 555
VWidth: 0
Flags: HW
LayerCount: 2
Fore
SplineSet
262 700 m 1
 295 700 l 1
 130 223 l 2
 102 133 112 24 228 22 c 0
 345 20 430 123 468 223 c 1
 632 700 l 1
 666 700 l 1
 503 223 l 2
 460 104 360 -9 224 -9 c 0
 89 -9 65 114 98 223 c 1
 262 700 l 1
361 782 m 1
 371 812 416 844 450 844 c 0
 490 844 513 797 553 799 c 0
 581 801 604 827 622 845 c 1
 639 829 l 1
 615 805 585 772 548 773 c 0
 510 774 488 818 450 818 c 0
 418 818 398 792 381 769 c 1
 361 782 l 1
EndSplineSet
EndChar

StartChar: utilde
Encoding: 361 361 385
Width: 460
VWidth: 0
Flags: HW
LayerCount: 2
Fore
SplineSet
298 0 m 1
 458 460 l 1
 488 460 l 1
 330 0 l 1
 298 0 l 1
106 159 m 2
 88 100 82 23 164 21 c 0
 256 19 324 104 362 178 c 1
 374 178 l 1
 334 90 262 -10 154 -9 c 0
 56 -9 53 82 75 156 c 1
 180 459 l 1
 210 459 l 1
 106 159 l 2
230 544 m 1
 252 574 281 607 322 606 c 0
 362 606 382 559 422 561 c 0
 450 563 474 590 493 608 c 1
 510 591 l 1
 486 567 456 534 418 535 c 0
 380 536 358 580 320 580 c 0
 288 580 267 554 250 531 c 1
 230 544 l 1
EndSplineSet
EndChar

StartChar: Umacron
Encoding: 362 362 386
Width: 555
VWidth: 0
Flags: HW
LayerCount: 2
Fore
SplineSet
262 700 m 1
 295 700 l 1
 130 223 l 2
 102 133 112 24 228 22 c 0
 345 20 430 123 468 223 c 1
 632 700 l 1
 666 700 l 1
 503 223 l 2
 460 104 360 -9 224 -9 c 0
 89 -9 65 114 98 223 c 1
 262 700 l 1
322 769 m 1
 331 798 l 1
 662 798 l 1
 652 769 l 1
 322 769 l 1
EndSplineSet
EndChar

StartChar: umacron
Encoding: 363 363 387
Width: 460
VWidth: 0
Flags: HW
LayerCount: 2
Fore
SplineSet
298 0 m 1
 458 460 l 1
 488 460 l 1
 330 0 l 1
 298 0 l 1
106 159 m 2
 88 100 82 23 164 21 c 0
 256 19 324 104 362 178 c 1
 374 178 l 1
 334 90 262 -10 154 -9 c 0
 56 -9 53 82 75 156 c 1
 180 459 l 1
 210 459 l 1
 106 159 l 2
193 530 m 1
 202 560 l 1
 534 560 l 1
 524 530 l 1
 193 530 l 1
EndSplineSet
EndChar

StartChar: Ubreve
Encoding: 364 364 388
Width: 555
VWidth: 0
Flags: HW
LayerCount: 2
Fore
SplineSet
262 700 m 1
 295 700 l 1
 130 223 l 2
 102 133 112 24 228 22 c 0
 345 20 430 123 468 223 c 1
 632 700 l 1
 666 700 l 1
 503 223 l 2
 460 104 360 -9 224 -9 c 0
 89 -9 65 114 98 223 c 1
 262 700 l 1
384 908 m 1
 412 908 l 1
 402 848 422 797 492 796 c 0
 566 795 620 848 656 907 c 1
 684 906 l 1
 645 830 580 770 490 770 c 0
 404 770 371 830 384 908 c 1
EndSplineSet
EndChar

StartChar: ubreve
Encoding: 365 365 389
Width: 460
VWidth: 0
Flags: HW
LayerCount: 2
Fore
SplineSet
298 0 m 1
 458 460 l 1
 488 460 l 1
 330 0 l 1
 298 0 l 1
106 159 m 2
 88 100 82 23 164 21 c 0
 256 19 324 104 362 178 c 1
 374 178 l 1
 334 90 262 -10 154 -9 c 0
 56 -9 53 82 75 156 c 1
 180 459 l 1
 210 459 l 1
 106 159 l 2
256 670 m 1
 282 670 l 1
 272 610 292 559 362 558 c 0
 436 557 490 609 526 668 c 1
 555 668 l 1
 516 592 450 531 360 531 c 0
 274 531 243 592 256 670 c 1
EndSplineSet
EndChar

StartChar: Wcircumflex
Encoding: 372 372 390
Width: 904
VWidth: 0
Flags: HW
LayerCount: 2
Fore
SplineSet
637 74 m 1
 1037 699 l 1
 1075 699 l 1
 608 -24 l 1
 612 624 l 1
 200 -24 l 1
 198 700 l 1
 233 700 l 1
 232 74 l 1
 642 724 l 1
 637 74 l 1
709 904 m 1
 534 784 l 1
 518 801 l 1
 715 938 l 1
 821 798 l 1
 799 782 l 1
 709 904 l 1
EndSplineSet
EndChar

StartChar: wcircumflex
Encoding: 373 373 391
Width: 599
VWidth: 0
Flags: HW
LayerCount: 2
Fore
SplineSet
116 460 m 1
 146 460 l 1
 131 64 l 1
 406 484 l 1
 398 63 l 1
 660 459 l 1
 696 459 l 1
 373 -24 l 1
 380 396 l 1
 102 -24 l 1
 116 460 l 1
473 664 m 1
 297 544 l 1
 282 561 l 1
 479 698 l 1
 585 558 l 1
 563 542 l 1
 473 664 l 1
EndSplineSet
EndChar

StartChar: Ycircumflex
Encoding: 374 374 392
Width: 492
VWidth: 0
Flags: HW
LayerCount: 2
Fore
SplineSet
629 698 m 1
 669 698 l 1
 299 274 l 1
 204 0 l 1
 171 0 l 1
 268 280 l 1
 197 700 l 1
 231 700 l 1
 292 312 l 1
 629 698 l 1
488 890 m 1
 312 770 l 1
 296 788 l 1
 494 925 l 1
 600 784 l 1
 578 768 l 1
 488 890 l 1
EndSplineSet
EndChar

StartChar: ycircumflex
Encoding: 375 375 393
Width: 403
VWidth: 0
Flags: HW
LayerCount: 2
Fore
SplineSet
504 459 m 1
 -14 -219 l 1
 -50 -218 l 1
 146 36 l 1
 110 460 l 1
 143 460 l 1
 175 44 l 1
 156 46 l 1
 467 459 l 1
 504 459 l 1
364 651 m 1
 188 531 l 1
 172 549 l 1
 370 686 l 1
 476 546 l 1
 453 530 l 1
 364 651 l 1
EndSplineSet
EndChar

StartChar: uni0400
Encoding: 1024 1024 394
Width: 517
VWidth: 0
Flags: HW
LayerCount: 2
Fore
SplineSet
42 0 m 1
 52 31 l 1
 376 31 l 1
 366 0 l 1
 42 0 l 1
271 670 m 1
 280 700 l 1
 604 700 l 1
 594 670 l 1
 271 670 l 1
169 371 m 1
 180 402 l 1
 484 402 l 1
 474 371 l 1
 169 371 l 1
266 699 m 1
 300 700 l 1
 58 0 l 1
 27 0 l 1
 266 699 l 1
381 942 m 1
 412 959 l 1
 517 799 l 1
 498 788 l 1
 381 942 l 1
EndSplineSet
EndChar

StartChar: uni0401
Encoding: 1025 1025 395
Width: 517
VWidth: 0
Flags: HW
LayerCount: 2
Fore
SplineSet
42 0 m 1
 52 31 l 1
 376 31 l 1
 366 0 l 1
 42 0 l 1
271 670 m 1
 280 700 l 1
 604 700 l 1
 594 670 l 1
 271 670 l 1
169 371 m 1
 180 402 l 1
 484 402 l 1
 474 371 l 1
 169 371 l 1
266 699 m 1
 300 700 l 1
 58 0 l 1
 27 0 l 1
 266 699 l 1
560 846 m 0
 562 856 579 870 590 869 c 0
 602 868 608 856 606 844 c 0
 604 834 587 820 576 821 c 0
 564 822 558 834 560 846 c 0
372 846 m 0
 374 856 391 870 402 869 c 0
 414 868 420 856 418 844 c 0
 416 834 399 820 388 821 c 0
 376 822 370 834 372 846 c 0
EndSplineSet
EndChar

StartChar: uni0403
Encoding: 1027 1027 396
Width: 409
VWidth: 0
Flags: HW
LayerCount: 2
Fore
SplineSet
258 700 m 1
 586 700 l 1
 574 669 l 1
 282 669 l 1
 50 0 l 1
 20 0 l 1
 258 700 l 1
636 939 m 1
 418 789 l 1
 404 802 l 1
 612 958 l 1
 636 939 l 1
EndSplineSet
EndChar

StartChar: uni040C
Encoding: 1036 1036 397
Width: 531
VWidth: 0
Flags: HW
LayerCount: 2
Fore
SplineSet
262 699 m 1
 296 700 l 1
 55 0 l 1
 24 0 l 1
 262 699 l 1
576 698 m 1
 622 698 l 1
 212 369 l 1
 392 0 l 1
 354 0 l 1
 174 374 l 1
 576 698 l 1
692 939 m 1
 475 789 l 1
 460 803 l 1
 669 958 l 1
 692 939 l 1
EndSplineSet
EndChar

StartChar: uni040D
Encoding: 1037 1037 398
Width: 696
VWidth: 0
Flags: HW
LayerCount: 2
Fore
SplineSet
786 672 m 1
 12 -38 l 1
 41 28 l 1
 815 738 l 1
 786 672 l 1
299 700 m 1
 62 12 l 1
 12 -38 l 1
 266 700 l 1
 299 700 l 1
815 738 m 1
 560 0 l 1
 527 0 l 1
 765 690 l 1
 815 738 l 1
436 918 m 1
 468 934 l 1
 571 774 l 1
 552 763 l 1
 436 918 l 1
EndSplineSet
EndChar

StartChar: uni040E
Encoding: 1038 1038 399
Width: 475
VWidth: 0
Flags: HW
LayerCount: 2
Fore
SplineSet
664 700 m 1
 113 0 l 1
 75 0 l 1
 248 224 l 1
 186 700 l 1
 219 700 l 1
 278 230 l 1
 260 232 l 1
 626 700 l 1
 664 700 l 1
342 908 m 1
 368 908 l 1
 359 847 380 797 450 796 c 0
 524 795 578 846 613 906 c 1
 641 906 l 1
 603 830 536 770 446 770 c 0
 360 770 330 830 342 908 c 1
EndSplineSet
EndChar

StartChar: uni0410
Encoding: 1040 1040 400
Width: 620
VWidth: 0
Flags: HW
LayerCount: 2
Fore
SplineSet
159 254 m 1
 176 284 l 1
 492 284 l 1
 490 253 l 1
 159 254 l 1
460 644 m 1
 190 273 l 1
 186 265 l 1
 -8 0 l 1
 -46 0 l 1
 483 723 l 1
 516 0 l 1
 480 0 l 1
 472 263 l 1
 472 271 l 1
 460 644 l 1
EndSplineSet
EndChar

StartChar: uni0411
Encoding: 1041 1041 401
Width: 488
VWidth: 0
Flags: HW
LayerCount: 2
Fore
SplineSet
170 389 m 1
 182 420 l 1
 311 420 l 1
 430 418 509 329 470 210 c 0
 429 86 306 2 178 0 c 1
 37 0 l 1
 48 31 l 1
 180 31 l 2
 290 32 400 103 438 210 c 0
 474 311 412 386 310 388 c 1
 170 389 l 1
258 700 m 1
 588 700 l 1
 577 669 l 1
 282 669 l 1
 50 0 l 1
 20 0 l 1
 258 700 l 1
EndSplineSet
EndChar

StartChar: uni0412
Encoding: 1042 1042 402
Width: 525
VWidth: 0
Flags: HW
LayerCount: 2
Fore
SplineSet
182 382 m 1
 187 400 l 1
 284 401 l 1
 370 405 460 448 490 534 c 0
 520 618 462 668 382 670 c 1
 288 670 l 1
 69 30 l 1
 167 30 l 1
 276 32 378 97 414 203 c 0
 446 297 384 370 290 372 c 1
 178 372 l 1
 184 391 l 1
 297 392 l 1
 403 391 479 309 446 201 c 0
 408 77 292 1 164 0 c 1
 26 0 l 1
 266 700 l 1
 386 700 l 1
 482 699 558 638 524 534 c 0
 491 434 390 386 290 382 c 2
 182 382 l 1
EndSplineSet
EndChar

StartChar: uni0413
Encoding: 1043 1043 403
Width: 409
VWidth: 0
Flags: HW
LayerCount: 2
Fore
SplineSet
258 700 m 1
 586 700 l 1
 574 669 l 1
 282 669 l 1
 50 0 l 1
 20 0 l 1
 258 700 l 1
EndSplineSet
EndChar

StartChar: uni0414
Encoding: 1044 1044 404
Width: 748
VWidth: 0
Flags: HW
LayerCount: 2
Fore
SplineSet
544 656 m 1
 89 15 l 1
 52 15 l 1
 569 737 l 1
 590 14 l 1
 558 14 l 1
 544 656 l 1
625 0 m 1
 13 0 l 1
 -26 -109 l 1
 -56 -109 l 1
 -6 31 l 1
 664 31 l 1
 614 -109 l 1
 584 -109 l 1
 625 0 l 1
EndSplineSet
EndChar

StartChar: uni0415
Encoding: 1045 1045 405
Width: 517
VWidth: 0
Flags: HW
LayerCount: 2
Fore
SplineSet
42 0 m 1
 52 31 l 1
 376 31 l 1
 366 0 l 1
 42 0 l 1
271 670 m 1
 280 700 l 1
 604 700 l 1
 594 670 l 1
 271 670 l 1
169 371 m 1
 180 402 l 1
 484 402 l 1
 474 371 l 1
 169 371 l 1
266 699 m 1
 300 700 l 1
 58 0 l 1
 27 0 l 1
 266 699 l 1
EndSplineSet
EndChar

StartChar: uni0416
Encoding: 1046 1046 406
Width: 674
VWidth: 0
Flags: HW
LayerCount: 2
Fore
SplineSet
242 700 m 1
 405 367 l 1
 -8 0 l 1
 -54 0 l 1
 370 374 l 1
 206 700 l 1
 242 700 l 1
510 699 m 1
 544 700 l 1
 302 0 l 1
 272 0 l 1
 510 699 l 1
798 698 m 1
 845 698 l 1
 456 368 l 1
 613 0 l 1
 578 0 l 1
 423 373 l 1
 798 698 l 1
EndSplineSet
EndChar

StartChar: uni0417
Encoding: 1047 1047 407
Width: 570
VWidth: 0
Flags: HW
LayerCount: 2
Fore
SplineSet
334 356 m 1
 340 376 l 1
 440 384 564 417 602 523 c 0
 634 614 569 678 480 679 c 0
 374 681 289 618 240 528 c 1
 208 528 l 1
 260 636 359 710 482 709 c 0
 586 708 670 631 634 523 c 0
 592 398 450 363 334 356 c 1
240 -9 m 0
 117 -9 39 61 65 185 c 1
 96 184 l 1
 76 78 138 22 243 22 c 0
 351 22 469 81 506 188 c 0
 549 312 426 342 330 348 c 1
 337 368 l 1
 449 363 584 326 538 184 c 0
 498 60 364 -9 240 -9 c 0
EndSplineSet
EndChar

StartChar: uni0418
Encoding: 1048 1048 408
Width: 696
VWidth: 0
Flags: HW
LayerCount: 2
Fore
SplineSet
786 672 m 1
 12 -38 l 1
 41 28 l 1
 815 738 l 1
 786 672 l 1
299 700 m 1
 62 12 l 1
 12 -38 l 1
 266 700 l 1
 299 700 l 1
815 738 m 1
 560 0 l 1
 527 0 l 1
 765 690 l 1
 815 738 l 1
EndSplineSet
EndChar

StartChar: uni0419
Encoding: 1049 1049 409
Width: 696
VWidth: 0
Flags: HW
LayerCount: 2
Fore
SplineSet
786 672 m 1
 12 -38 l 1
 41 28 l 1
 815 738 l 1
 786 672 l 1
299 700 m 1
 62 12 l 1
 12 -38 l 1
 266 700 l 1
 299 700 l 1
815 738 m 1
 560 0 l 1
 527 0 l 1
 765 690 l 1
 815 738 l 1
421 911 m 1
 447 911 l 1
 440 849 462 799 532 798 c 0
 606 797 658 850 692 910 c 1
 720 909 l 1
 683 833 619 772 529 772 c 0
 443 772 411 833 421 911 c 1
EndSplineSet
EndChar

StartChar: uni041A
Encoding: 1050 1050 410
Width: 531
VWidth: 0
Flags: HW
LayerCount: 2
Fore
SplineSet
262 699 m 1
 296 700 l 1
 55 0 l 1
 24 0 l 1
 262 699 l 1
576 698 m 1
 622 698 l 1
 212 368 l 1
 390 0 l 1
 354 0 l 1
 174 374 l 1
 576 698 l 1
EndSplineSet
EndChar

StartChar: uni041B
Encoding: 1051 1051 411
Width: 588
VWidth: 0
Flags: HW
LayerCount: 2
Fore
SplineSet
700 700 m 1
 460 0 l 1
 427 0 l 1
 658 669 l 1
 302 669 l 1
 156 240 l 2
 120 138 66 29 -46 2 c 1
 -36 30 l 1
 56 62 95 160 125 246 c 2
 281 700 l 1
 700 700 l 1
EndSplineSet
EndChar

StartChar: uni041C
Encoding: 1052 1052 412
Width: 762
VWidth: 0
Flags: HW
LayerCount: 2
Fore
SplineSet
301 613 m 1
 28 0 l 1
 -6 0 l 1
 316 722 l 1
 386 162 l 1
 846 726 l 1
 670 0 l 1
 638 0 l 1
 787 608 l 1
 366 92 l 1
 301 613 l 1
EndSplineSet
EndChar

StartChar: uni041D
Encoding: 1053 1053 413
Width: 672
VWidth: 0
Flags: HW
LayerCount: 2
Fore
SplineSet
168 366 m 1
 178 397 l 1
 618 397 l 1
 608 366 l 1
 168 366 l 1
698 699 m 1
 733 700 l 1
 492 0 l 1
 460 0 l 1
 698 699 l 1
266 699 m 1
 300 700 l 1
 58 0 l 1
 27 0 l 1
 266 699 l 1
EndSplineSet
EndChar

StartChar: uni041E
Encoding: 1054 1054 414
Width: 743
VWidth: 0
Flags: HW
LayerCount: 2
Fore
SplineSet
143 350 m 0
 93 204 136 27 317 25 c 0
 502 23 662 185 720 350 c 0
 770 496 727 673 546 675 c 0
 361 677 201 515 143 350 c 0
108 350 m 0
 168 534 347 709 550 708 c 0
 748 707 809 515 755 350 c 0
 695 166 516 -9 313 -8 c 0
 115 -7 54 185 108 350 c 0
EndSplineSet
EndChar

StartChar: uni041F
Encoding: 1055 1055 415
Width: 623
VWidth: 0
Flags: HW
LayerCount: 2
Fore
SplineSet
694 670 m 1
 282 669 l 1
 51 0 l 1
 19 0 l 1
 260 700 l 1
 734 700 l 1
 494 0 l 1
 462 0 l 1
 694 670 l 1
EndSplineSet
EndChar

StartChar: uni0420
Encoding: 1056 1056 416
Width: 515
VWidth: 0
Flags: HW
LayerCount: 2
Fore
SplineSet
266 699 m 1
 300 700 l 1
 58 0 l 1
 27 0 l 1
 266 699 l 1
272 669 m 1
 284 700 l 1
 399 700 l 1
 516 698 580 606 543 494 c 0
 505 374 392 292 268 290 c 1
 143 290 l 1
 154 321 l 1
 270 321 l 2
 377 322 474 393 510 495 c 0
 544 591 495 666 395 668 c 1
 272 669 l 1
EndSplineSet
EndChar

StartChar: uni0421
Encoding: 1057 1057 417
Width: 644
VWidth: 0
Flags: HW
LayerCount: 2
Fore
SplineSet
144 350 m 0
 94 207 134 29 312 26 c 0
 402 24 484 65 558 114 c 1
 544 70 l 1
 472 24 393 -9 307 -8 c 0
 109 -6 54 188 108 350 c 0
 168 534 342 706 544 708 c 0
 620 709 682 684 734 630 c 1
 720 586 l 1
 676 647 615 674 540 674 c 0
 356 672 202 514 144 350 c 0
EndSplineSet
EndChar

StartChar: uni0422
Encoding: 1058 1058 418
Width: 437
VWidth: 0
Flags: HW
LayerCount: 2
Fore
SplineSet
189 668 m 1
 200 700 l 1
 585 700 l 1
 574 668 l 1
 398 668 l 1
 169 0 l 1
 136 0 l 1
 365 668 l 1
 189 668 l 1
EndSplineSet
EndChar

StartChar: uni0423
Encoding: 1059 1059 419
Width: 475
VWidth: 0
Flags: HW
LayerCount: 2
Fore
SplineSet
664 700 m 1
 113 0 l 1
 75 0 l 1
 249 222 l 1
 186 700 l 1
 219 700 l 1
 278 230 l 1
 260 232 l 1
 626 700 l 1
 664 700 l 1
EndSplineSet
EndChar

StartChar: uni0424
Encoding: 1060 1060 420
Width: 701
VWidth: 0
Flags: HW
LayerCount: 2
Fore
SplineSet
519 699 m 1
 553 700 l 1
 312 0 l 1
 280 0 l 1
 519 699 l 1
698 350 m 0
 748 492 650 582 512 586 c 1
 488 587 l 2
 338 583 186 498 134 350 c 0
 84 208 182 116 320 112 c 1
 344 112 l 2
 496 116 646 202 698 350 c 0
730 350 m 0
 675 184 508 84 340 80 c 1
 316 80 l 1
 161 84 49 190 102 350 c 0
 157 516 324 616 492 620 c 1
 516 620 l 1
 671 616 783 510 730 350 c 0
EndSplineSet
EndChar

StartChar: uni0425
Encoding: 1061 1061 421
Width: 522
VWidth: 0
Flags: HW
LayerCount: 2
Fore
SplineSet
602 698 m 1
 644 698 l 1
 332 364 l 1
 416 0 l 1
 378 0 l 1
 308 335 l 1
 0 0 l 1
 -42 0 l 1
 301 370 l 1
 225 700 l 1
 261 700 l 1
 325 398 l 1
 602 698 l 1
EndSplineSet
EndChar

StartChar: uni0426
Encoding: 1062 1062 422
Width: 665
VWidth: 0
Flags: HW
LayerCount: 2
Fore
SplineSet
60 30 m 1
 472 31 l 1
 702 700 l 1
 735 700 l 1
 505 31 l 1
 586 31 l 1
 536 -109 l 1
 506 -109 l 1
 546 0 l 1
 20 0 l 1
 260 700 l 1
 292 699 l 1
 60 30 l 1
EndSplineSet
EndChar

StartChar: uni0427
Encoding: 1063 1063 423
Width: 529
VWidth: 0
Flags: HW
LayerCount: 2
Fore
SplineSet
314 280 m 1
 324 310 l 1
 497 310 l 1
 488 280 l 1
 314 280 l 1
607 699 m 1
 641 700 l 1
 400 0 l 1
 368 0 l 1
 607 699 l 1
292 700 m 1
 227 518 l 2
 191 416 220 310 324 310 c 1
 314 280 l 1
 196 280 158 404 196 518 c 1
 260 700 l 1
 292 700 l 1
EndSplineSet
EndChar

StartChar: uni0428
Encoding: 1064 1064 424
Width: 876
VWidth: 0
Flags: HW
LayerCount: 2
Fore
SplineSet
726 31 m 1
 956 700 l 1
 989 700 l 1
 749 0 l 1
 20 0 l 1
 260 700 l 1
 293 700 l 1
 63 31 l 1
 378 31 l 1
 608 700 l 1
 641 700 l 1
 411 31 l 1
 726 31 l 1
EndSplineSet
EndChar

StartChar: uni0429
Encoding: 1065 1065 425
Width: 919
VWidth: 0
Flags: HW
LayerCount: 2
Fore
SplineSet
726 31 m 1
 956 700 l 1
 989 700 l 1
 759 31 l 1
 840 31 l 1
 790 -109 l 1
 760 -109 l 1
 800 0 l 1
 20 0 l 1
 260 700 l 1
 293 700 l 1
 63 31 l 1
 378 31 l 1
 608 700 l 1
 641 700 l 1
 411 31 l 1
 726 31 l 1
EndSplineSet
EndChar

StartChar: uni042A
Encoding: 1066 1066 426
Width: 591
VWidth: 0
Flags: HW
LayerCount: 2
Fore
SplineSet
272 389 m 1
 284 420 l 1
 416 420 l 2
 535 420 611 327 572 208 c 0
 531 84 407 0 279 0 c 2
 140 0 l 1
 150 31 l 1
 282 31 l 2
 392 32 502 103 540 210 c 0
 576 311 514 388 412 388 c 2
 272 389 l 1
354 670 m 1
 182 669 l 1
 194 700 l 1
 396 700 l 1
 154 0 l 1
 124 0 l 1
 354 670 l 1
EndSplineSet
EndChar

StartChar: uni042B
Encoding: 1067 1067 427
Width: 666
VWidth: 0
Flags: HW
LayerCount: 2
Fore
SplineSet
742 699 m 1
 776 700 l 1
 534 0 l 1
 502 0 l 1
 742 699 l 1
256 699 m 1
 290 700 l 1
 48 0 l 1
 17 0 l 1
 256 699 l 1
166 389 m 1
 177 420 l 1
 309 420 l 2
 428 420 505 327 466 208 c 0
 425 84 300 0 172 0 c 2
 33 0 l 1
 44 31 l 1
 176 31 l 2
 286 32 396 103 434 210 c 0
 470 311 406 388 304 388 c 2
 166 389 l 1
EndSplineSet
EndChar

StartChar: uni042C
Encoding: 1068 1068 428
Width: 484
VWidth: 0
Flags: HW
LayerCount: 2
Fore
SplineSet
256 699 m 1
 290 700 l 1
 48 0 l 1
 17 0 l 1
 256 699 l 1
166 389 m 1
 177 420 l 1
 309 420 l 2
 428 420 505 327 466 208 c 0
 425 84 300 0 172 0 c 2
 33 0 l 1
 44 31 l 1
 176 31 l 2
 286 32 396 103 434 210 c 0
 470 311 406 388 304 388 c 2
 166 389 l 1
EndSplineSet
EndChar

StartChar: uni042D
Encoding: 1069 1069 429
Width: 644
VWidth: 0
Flags: HW
LayerCount: 2
Fore
SplineSet
204 335 m 1
 214 366 l 1
 639 366 l 1
 628 335 l 1
 204 335 l 1
631 350 m 0
 681 493 644 671 464 674 c 0
 374 676 292 636 218 588 c 1
 232 630 l 1
 304 676 382 709 468 708 c 0
 666 706 720 512 666 350 c 0
 606 166 432 -6 230 -8 c 0
 154 -9 94 16 42 70 c 1
 56 114 l 1
 100 53 159 26 235 26 c 0
 417 28 573 186 631 350 c 0
EndSplineSet
EndChar

StartChar: uni042E
Encoding: 1070 1070 430
Width: 964
VWidth: 0
Flags: HW
LayerCount: 2
Fore
SplineSet
163 365 m 1
 174 396 l 1
 382 396 l 1
 372 365 l 1
 163 365 l 1
259 699 m 1
 293 700 l 1
 50 0 l 1
 20 0 l 1
 259 699 l 1
376 352 m 0
 326 206 369 27 550 25 c 0
 735 23 896 186 954 352 c 0
 1004 498 961 674 780 676 c 0
 595 678 434 517 376 352 c 0
342 352 m 0
 402 536 580 711 783 710 c 0
 981 709 1042 517 988 352 c 0
 928 168 749 -11 545 -10 c 0
 347 -9 288 188 342 352 c 0
EndSplineSet
EndChar

StartChar: uni042F
Encoding: 1071 1071 431
Width: 465
VWidth: 0
Flags: HW
LayerCount: 2
Fore
SplineSet
338 324 m 1
 12 0 l 1
 -32 0 l 1
 298 324 l 1
 338 324 l 1
572 700 m 1
 330 0 l 1
 297 0 l 1
 538 700 l 1
 572 700 l 1
545 670 m 1
 432 670 l 2
 324 667 218 608 180 502 c 0
 144 399 213 336 312 334 c 1
 430 334 l 1
 420 304 l 1
 308 304 l 1
 193 306 109 382 148 502 c 0
 188 626 311 697 436 700 c 2
 556 700 l 1
 545 670 l 1
EndSplineSet
EndChar

StartChar: uni0430
Encoding: 1072 1072 432
Width: 456
VWidth: 0
Flags: HW
LayerCount: 2
Fore
SplineSet
56 135 m 0
 34 72 70 20 136 20 c 0
 228 19 294 89 335 164 c 1
 338 149 l 1
 297 66 225 -9 125 -9 c 0
 43 -9 0 58 26 135 c 0
 56 227 157 282 250 282 c 0
 298 282 335 266 369 232 c 1
 362 212 l 1
 329 242 292 256 246 256 c 0
 169 256 82 211 56 135 c 0
163 383 m 1
 154 408 l 1
 206 440 265 471 327 469 c 0
 413 467 440 397 417 323 c 2
 306 0 l 1
 274 0 l 1
 388 323 l 2
 406 380 393 438 322 440 c 0
 264 442 210 411 163 383 c 1
EndSplineSet
Substitution2: "alt a" a.alt
EndChar

StartChar: uni0431
Encoding: 1073 1073 433
Width: 513
VWidth: 0
Flags: HW
LayerCount: 2
Fore
SplineSet
358 440 m 1
 367 469 l 1
 495 469 555 354 518 230 c 0
 481 104 359 -10 223 -10 c 0
 75 -10 72 126 72 179 c 1
 100 179 l 1
 101 130 104 20 226 20 c 0
 344 20 454 122 488 230 c 0
 524 341 470 440 358 440 c 1
82 196 m 1
 96 322 227 469 367 469 c 1
 358 440 l 1
 234 440 100 305 100 179 c 1
 82 196 l 1
72 179 m 1
 72 359 235 592 394 656 c 0
 464 684 520 717 566 779 c 1
 597 778 l 1
 549 700 481 663 399 630 c 0
 249 570 100 341 100 215 c 2
 100 179 l 1
 72 179 l 1
EndSplineSet
EndChar

StartChar: uni0432
Encoding: 1074 1074 434
Width: 398
VWidth: 0
Flags: HW
LayerCount: 2
Fore
SplineSet
112 234 m 1
 235 234 l 2
 304 232 386 212 360 124 c 0
 336 45 256 2 180 1 c 2
 32 0 l 1
 41 28 l 1
 178 28 l 2
 240 28 311 64 331 128 c 0
 351 197 290 214 234 216 c 2
 106 217 l 1
 112 234 l 1
110 226 m 1
 116 244 l 1
 230 244 l 2
 289 246 360 272 382 334 c 0
 404 396 354 432 298 432 c 2
 180 432 l 1
 189 460 l 1
 303 460 l 2
 376 460 440 414 412 334 c 0
 386 256 303 229 229 226 c 2
 110 226 l 1
172 460 m 1
 205 460 l 1
 45 0 l 1
 16 0 l 1
 172 460 l 1
EndSplineSet
EndChar

StartChar: uni0433
Encoding: 1075 1075 435
Width: 290
VWidth: 0
Flags: HW
LayerCount: 2
Fore
SplineSet
176 460 m 1
 390 460 l 1
 380 430 l 1
 199 430 l 1
 50 0 l 1
 20 0 l 1
 176 460 l 1
EndSplineSet
EndChar

StartChar: uni0434
Encoding: 1076 1076 436
Width: 616
VWidth: 0
Flags: HW
LayerCount: 2
Fore
SplineSet
400 426 m 1
 79 13 l 1
 42 13 l 1
 420 496 l 1
 468 12 l 1
 437 12 l 1
 400 426 l 1
493 0 m 1
 16 0 l 1
 -17 -90 l 1
 -50 -90 l 1
 -7 30 l 1
 532 30 l 1
 488 -90 l 1
 460 -90 l 1
 493 0 l 1
EndSplineSet
EndChar

StartChar: uni0435
Encoding: 1077 1077 437
Width: 475
VWidth: 0
Flags: HW
LayerCount: 2
Fore
SplineSet
93 222 m 1
 101 250 l 1
 446 250 l 1
 476 326 455 438 346 440 c 0
 231 442 145 336 109 242 c 1
 106 232 l 1
 82 143 94 22 208 20 c 0
 285 19 353 70 408 123 c 1
 430 104 l 1
 368 42 293 -10 201 -9 c 0
 72 -7 46 129 76 232 c 0
 83 256 92 278 104 300 c 0
 152 388 244 470 350 469 c 0
 471 467 507 349 479 248 c 0
 477 240 472 230 470 222 c 1
 93 222 l 1
EndSplineSet
EndChar

StartChar: uni0436
Encoding: 1078 1078 438
Width: 489
VWidth: 0
Flags: HW
LayerCount: 2
Fore
SplineSet
528 458 m 1
 570 458 l 1
 321 264 l 1
 428 0 l 1
 394 0 l 1
 290 274 l 1
 528 458 l 1
363 459 m 1
 204 0 l 1
 175 0 l 1
 334 459 l 1
 363 459 l 1
162 460 m 1
 276 267 l 1
 -10 0 l 1
 -51 0 l 1
 242 269 l 1
 129 460 l 1
 162 460 l 1
EndSplineSet
EndChar

StartChar: uni0437
Encoding: 1079 1079 439
Width: 447
VWidth: 0
Flags: HW
LayerCount: 2
Fore
SplineSet
255 241 m 1
 262 260 l 1
 320 264 394 272 418 336 c 0
 440 394 392 440 334 440 c 0
 261 440 207 386 172 328 c 1
 140 328 l 1
 178 402 246 469 336 469 c 0
 410 469 475 409 448 332 c 0
 420 252 327 245 255 241 c 1
179 -9 m 0
 83 -9 44 57 51 145 c 1
 81 145 l 1
 77 74 104 19 182 19 c 0
 253 19 346 64 368 136 c 0
 392 214 308 228 252 233 c 1
 260 252 l 1
 328 248 425 226 398 134 c 0
 372 46 265 -9 179 -9 c 0
EndSplineSet
EndChar

StartChar: uni0438
Encoding: 1080 1080 440
Width: 465
VWidth: 0
Flags: HW
LayerCount: 2
Fore
SplineSet
484 437 m 1
 6 -38 l 1
 31 23 l 1
 510 498 l 1
 484 437 l 1
210 460 m 1
 54 10 l 1
 6 -38 l 1
 178 460 l 1
 210 460 l 1
510 498 m 1
 336 0 l 1
 306 0 l 1
 462 450 l 1
 510 498 l 1
EndSplineSet
EndChar

StartChar: uni0439
Encoding: 1081 1081 441
Width: 465
VWidth: 0
Flags: HW
LayerCount: 2
Fore
SplineSet
484 437 m 1
 6 -38 l 1
 31 23 l 1
 510 498 l 1
 484 437 l 1
210 460 m 1
 54 10 l 1
 6 -38 l 1
 178 460 l 1
 210 460 l 1
510 498 m 1
 336 0 l 1
 306 0 l 1
 462 450 l 1
 510 498 l 1
250 688 m 1
 276 688 l 1
 269 626 291 577 361 576 c 0
 435 575 487 627 521 687 c 1
 549 686 l 1
 512 610 448 549 358 549 c 0
 272 549 240 610 250 688 c 1
EndSplineSet
EndChar

StartChar: uni043A
Encoding: 1082 1082 442
Width: 413
VWidth: 0
Flags: HW
LayerCount: 2
Fore
SplineSet
174 459 m 1
 207 460 l 1
 46 0 l 1
 17 0 l 1
 174 459 l 1
406 458 m 1
 451 458 l 1
 166 268 l 1
 308 0 l 1
 273 0 l 1
 130 273 l 1
 406 458 l 1
EndSplineSet
EndChar

StartChar: uni043B
Encoding: 1083 1083 443
Width: 478
VWidth: 0
Flags: HW
LayerCount: 2
Fore
SplineSet
508 460 m 1
 350 0 l 1
 318 0 l 1
 467 430 l 1
 202 430 l 1
 110 160 l 2
 81 81 37 21 -46 1 c 1
 -36 30 l 1
 26 52 55 100 77 160 c 1
 180 460 l 1
 508 460 l 1
EndSplineSet
EndChar

StartChar: uni043C
Encoding: 1084 1084 444
Width: 571
VWidth: 0
Flags: HW
LayerCount: 2
Fore
SplineSet
478 0 m 1
 532 430 l 1
 570 498 l 1
 512 0 l 1
 478 0 l 1
228 29 m 1
 570 496 l 1
 546 415 l 1
 218 -31 l 1
 228 29 l 1
218 -32 m 1
 206 422 l 1
 234 498 l 1
 246 23 l 1
 218 -32 l 1
-52 0 m 1
 234 496 l 1
 225 425 l 1
 -15 0 l 1
 -52 0 l 1
EndSplineSet
EndChar

StartChar: uni043D
Encoding: 1085 1085 445
Width: 484
VWidth: 0
Flags: HW
LayerCount: 2
Fore
SplineSet
113 230 m 1
 122 259 l 1
 438 259 l 1
 428 230 l 1
 113 230 l 1
488 459 m 1
 520 460 l 1
 360 0 l 1
 331 0 l 1
 488 459 l 1
172 459 m 1
 205 460 l 1
 45 0 l 1
 16 0 l 1
 172 459 l 1
EndSplineSet
EndChar

StartChar: uni043E
Encoding: 1086 1086 446
Width: 513
VWidth: 0
Flags: HW
LayerCount: 2
Fore
SplineSet
62 230 m 0
 102 354 226 469 362 469 c 0
 495 469 542 343 506 230 c 0
 466 106 342 -9 206 -9 c 0
 73 -9 26 117 62 230 c 0
94 230 m 0
 60 134 93 22 209 20 c 0
 328 18 438 122 476 230 c 0
 510 326 476 438 360 440 c 0
 241 442 132 338 94 230 c 0
EndSplineSet
EndChar

StartChar: uni043F
Encoding: 1087 1087 447
Width: 447
VWidth: 0
Flags: HW
LayerCount: 2
Fore
SplineSet
482 460 m 1
 322 0 l 1
 292 0 l 1
 440 430 l 1
 194 430 l 1
 46 0 l 1
 14 0 l 1
 173 460 l 1
 482 460 l 1
EndSplineSet
EndChar

StartChar: uni0440
Encoding: 1088 1088 448
Width: 536
VWidth: 0
Flags: HW
LayerCount: 2
Fore
SplineSet
-27 -219 m 1
 -60 -220 l 1
 176 460 l 1
 205 459 l 1
 -27 -219 l 1
504 230 m 0
 466 112 353 -12 219 -10 c 0
 91 -8 81 134 112 230 c 0
 148 341 248 468 376 469 c 0
 510 471 538 335 504 230 c 0
472 230 m 0
 503 320 485 442 368 440 c 0
 257 438 160 327 126 230 c 0
 98 148 110 24 218 20 c 0
 335 15 436 128 472 230 c 0
EndSplineSet
EndChar

StartChar: uni0441
Encoding: 1089 1089 449
Width: 449
VWidth: 0
Flags: HW
LayerCount: 2
Fore
SplineSet
88 230 m 0
 54 134 89 23 205 21 c 0
 269 21 326 50 378 86 c 1
 367 48 l 1
 317 15 261 -10 201 -10 c 0
 68 -10 22 117 58 230 c 0
 98 355 222 469 358 469 c 0
 410 469 455 450 490 412 c 1
 478 374 l 1
 450 418 410 440 356 440 c 0
 237 440 126 338 88 230 c 0
EndSplineSet
EndChar

StartChar: uni0442
Encoding: 1090 1090 450
Width: 263
VWidth: 0
Flags: HW
LayerCount: 2
Fore
SplineSet
106 460 m 1
 363 460 l 1
 352 430 l 1
 96 430 l 1
 106 460 l 1
216 450 m 1
 248 450 l 1
 91 0 l 1
 62 0 l 1
 216 450 l 1
EndSplineSet
EndChar

StartChar: uni0443
Encoding: 1091 1091 451
Width: 413
VWidth: 0
Flags: HW
LayerCount: 2
Fore
SplineSet
504 459 m 1
 -14 -219 l 1
 -52 -218 l 1
 145 36 l 1
 110 460 l 1
 144 460 l 1
 174 44 l 1
 157 46 l 1
 466 459 l 1
 504 459 l 1
EndSplineSet
EndChar

StartChar: uni0444
Encoding: 1092 1092 452
Width: 551
VWidth: 0
Flags: HW
LayerCount: 2
Fore
SplineSet
398 559 m 1
 430 560 l 1
 201 -99 l 1
 172 -99 l 1
 398 559 l 1
56 230 m 0
 100 364 236 471 378 470 c 0
 514 469 585 356 544 230 c 0
 500 96 364 -11 222 -10 c 0
 86 -9 15 104 56 230 c 0
86 230 m 0
 48 122 104 22 224 20 c 0
 350 18 471 113 512 230 c 0
 550 338 496 438 376 440 c 0
 250 442 127 347 86 230 c 0
EndSplineSet
EndChar

StartChar: uni0445
Encoding: 1093 1093 453
Width: 395
VWidth: 0
Flags: HW
LayerCount: 2
Fore
SplineSet
419 458 m 1
 458 458 l 1
 226 235 l 1
 307 0 l 1
 274 0 l 1
 205 210 l 1
 -11 0 l 1
 -51 0 l 1
 196 239 l 1
 119 460 l 1
 152 460 l 1
 217 264 l 1
 419 458 l 1
EndSplineSet
EndChar

StartChar: uni0446
Encoding: 1094 1094 454
Width: 484
VWidth: 0
Flags: HW
LayerCount: 2
Fore
SplineSet
332 29 m 1
 410 29 l 1
 368 -89 l 1
 340 -89 l 1
 372 0 l 1
 14 0 l 1
 174 460 l 1
 204 460 l 1
 56 30 l 1
 302 30 l 1
 452 459 l 1
 481 459 l 1
 332 29 l 1
EndSplineSet
EndChar

StartChar: uni0447
Encoding: 1095 1095 455
Width: 409
VWidth: 0
Flags: HW
LayerCount: 2
Fore
SplineSet
210 140 m 1
 218 169 l 1
 336 170 l 1
 326 140 l 1
 210 140 l 1
412 459 m 1
 444 460 l 1
 284 0 l 1
 256 0 l 1
 412 459 l 1
182 459 m 1
 134 328 l 2
 101 236 118 169 218 169 c 1
 210 140 l 1
 90 140 67 220 104 328 c 2
 150 460 l 1
 182 459 l 1
EndSplineSet
EndChar

StartChar: uni0448
Encoding: 1096 1096 456
Width: 687
VWidth: 0
Flags: HW
LayerCount: 2
Fore
SplineSet
313 29 m 1
 542 30 l 1
 691 460 l 1
 722 460 l 1
 564 0 l 1
 14 0 l 1
 174 460 l 1
 204 460 l 1
 56 30 l 1
 284 30 l 1
 432 459 l 1
 462 459 l 1
 313 29 l 1
EndSplineSet
EndChar

StartChar: uni0449
Encoding: 1097 1097 457
Width: 724
VWidth: 0
Flags: HW
LayerCount: 2
Fore
SplineSet
313 29 m 1
 542 30 l 1
 691 460 l 1
 722 460 l 1
 574 30 l 1
 650 30 l 1
 608 -89 l 1
 580 -89 l 1
 612 0 l 1
 14 0 l 1
 174 460 l 1
 204 460 l 1
 56 30 l 1
 284 30 l 1
 432 459 l 1
 462 459 l 1
 313 29 l 1
EndSplineSet
EndChar

StartChar: uni044A
Encoding: 1098 1098 458
Width: 500
VWidth: 0
Flags: HW
LayerCount: 2
Fore
SplineSet
211 258 m 1
 220 286 l 1
 336 286 l 2
 420 286 478 230 450 142 c 0
 422 52 334 0 244 0 c 2
 124 0 l 1
 132 28 l 1
 248 28 l 2
 324 28 396 73 419 146 c 0
 442 218 398 258 332 258 c 2
 211 258 l 1
254 431 m 1
 96 430 l 1
 106 460 l 1
 294 460 l 1
 134 0 l 1
 105 0 l 1
 254 431 l 1
EndSplineSet
EndChar

StartChar: uni044B
Encoding: 1099 1099 459
Width: 543
VWidth: 0
Flags: HW
LayerCount: 2
Fore
SplineSet
546 459 m 1
 579 460 l 1
 419 0 l 1
 390 0 l 1
 546 459 l 1
172 459 m 1
 205 460 l 1
 45 0 l 1
 16 0 l 1
 172 459 l 1
118 258 m 1
 128 286 l 1
 244 286 l 2
 328 286 385 230 357 142 c 0
 329 52 238 0 148 0 c 2
 30 0 l 1
 39 28 l 1
 156 28 l 2
 222 28 300 71 326 144 c 0
 350 213 306 258 240 258 c 2
 118 258 l 1
EndSplineSet
EndChar

StartChar: uni044C
Encoding: 1100 1100 460
Width: 407
VWidth: 0
Flags: HW
LayerCount: 2
Fore
SplineSet
172 459 m 1
 205 460 l 1
 45 0 l 1
 16 0 l 1
 172 459 l 1
118 258 m 1
 128 286 l 1
 244 286 l 2
 328 286 386 228 358 140 c 0
 330 50 234 0 152 0 c 2
 30 0 l 1
 39 28 l 1
 156 28 l 2
 230 31 300 71 326 144 c 0
 350 213 306 258 240 258 c 2
 118 258 l 1
EndSplineSet
EndChar

StartChar: uni044D
Encoding: 1101 1101 461
Width: 456
VWidth: 0
Flags: HW
LayerCount: 2
Fore
SplineSet
157 244 m 1
 446 244 l 1
 416 216 l 1
 148 216 l 1
 157 244 l 1
416 230 m 0
 450 326 416 437 300 439 c 0
 236 439 179 410 127 374 c 1
 138 412 l 1
 188 444 244 470 304 470 c 0
 437 470 482 343 446 230 c 0
 405 105 283 -9 147 -9 c 0
 94 -9 51 9 16 48 c 1
 28 86 l 1
 56 42 96 20 150 20 c 0
 269 20 378 122 416 230 c 0
EndSplineSet
EndChar

StartChar: uni044E
Encoding: 1102 1102 462
Width: 708
VWidth: 0
Flags: HW
LayerCount: 2
Fore
SplineSet
112 226 m 1
 121 255 l 1
 283 256 l 1
 272 226 l 1
 112 226 l 1
172 459 m 1
 205 460 l 1
 45 0 l 1
 16 0 l 1
 172 459 l 1
250 230 m 0
 290 354 415 469 551 469 c 0
 684 469 730 343 694 230 c 0
 654 106 530 -9 394 -9 c 0
 261 -9 214 117 250 230 c 0
282 230 m 0
 248 134 281 22 397 20 c 0
 516 18 626 122 664 230 c 0
 698 326 664 438 548 440 c 0
 429 442 320 338 282 230 c 0
EndSplineSet
EndChar

StartChar: uni044F
Encoding: 1103 1103 463
Width: 407
VWidth: 0
Flags: HW
LayerCount: 2
Fore
SplineSet
30 0 m 1
 -8 0 l 1
 210 205 l 1
 246 205 l 1
 30 0 l 1
308 0 m 1
 275 0 l 1
 436 460 l 1
 465 460 l 1
 308 0 l 1
362 212 m 1
 354 184 l 1
 240 184 l 1
 157 186 96 235 124 323 c 0
 152 412 241 456 329 460 c 2
 446 460 l 1
 438 432 l 1
 325 432 l 2
 253 429 179 394 155 322 c 0
 131 252 179 215 244 212 c 2
 362 212 l 1
EndSplineSet
EndChar

StartChar: uni0450
Encoding: 1104 1104 464
Width: 475
VWidth: 0
Flags: HW
LayerCount: 2
Fore
SplineSet
93 222 m 1
 101 250 l 1
 446 250 l 1
 476 326 455 438 346 440 c 0
 231 442 145 336 109 242 c 1
 106 232 l 1
 82 143 94 22 208 20 c 0
 285 19 353 70 408 123 c 1
 430 104 l 1
 368 42 293 -10 201 -9 c 0
 72 -7 46 129 76 232 c 0
 83 256 92 278 104 300 c 0
 152 388 244 470 350 469 c 0
 471 467 507 349 479 248 c 0
 477 240 472 230 470 222 c 1
 93 222 l 1
248 684 m 1
 279 700 l 1
 387 540 l 1
 369 529 l 1
 248 684 l 1
EndSplineSet
EndChar

StartChar: uni0451
Encoding: 1105 1105 465
Width: 475
VWidth: 0
Flags: HW
LayerCount: 2
Fore
SplineSet
93 222 m 1
 101 250 l 1
 446 250 l 1
 476 326 455 438 346 440 c 0
 231 442 145 336 109 242 c 1
 106 232 l 1
 82 143 94 22 208 20 c 0
 285 19 353 70 408 123 c 1
 430 104 l 1
 368 42 293 -10 201 -9 c 0
 72 -7 46 129 76 232 c 0
 83 256 92 278 104 300 c 0
 152 388 244 470 350 469 c 0
 471 467 507 349 479 248 c 0
 477 240 472 230 470 222 c 1
 93 222 l 1
449 554 m 0
 451 564 467 578 478 577 c 0
 490 576 497 565 495 553 c 0
 493 543 476 528 465 529 c 0
 453 530 447 542 449 554 c 0
261 554 m 0
 263 564 279 578 290 577 c 0
 302 576 309 565 307 553 c 0
 305 543 288 528 277 529 c 0
 265 530 259 542 261 554 c 0
EndSplineSet
EndChar

StartChar: uni0453
Encoding: 1107 1107 466
Width: 290
VWidth: 0
Flags: HW
LayerCount: 2
Fore
SplineSet
176 460 m 1
 390 460 l 1
 380 430 l 1
 199 430 l 1
 50 0 l 1
 20 0 l 1
 176 460 l 1
488 682 m 1
 271 532 l 1
 256 546 l 1
 465 701 l 1
 488 682 l 1
EndSplineSet
EndChar

